<svg version="1.2" baseProfile="tiny-ps" xmlns="http://www.w3.org/2000/svg" viewBox="0 0 4000 4000" width="4000" height="4000">
	<title>27-02-ai</title>
	<style>
		tspan { white-space:pre }
		.shp0 { fill: #ea7534 } 
		.shp1 { fill: #000072 } 
		.shp2 { fill: #ffffff } 
		.shp3 { fill: #ff6cbd } 
		.shp4 { fill: #ff1e00 } 
		.shp5 { fill: #390176 } 
		.shp6 { fill: #e98345 } 
		.shp7 { fill: #febd00 } 
	</style>
	<g id="Layer 1">
		<g id="&lt;Group&gt;">
			<g id="&lt;Group&gt;">
				<g id="&lt;Group&gt;">
					<path id="&lt;Path&gt;" class="shp0" d="M3522.35 2503.15C3514.65 2550.5 3498.5 2594.05 3475.7 2632.9C3437.25 2698.4 3379.9 2750.45 3312 2784.7C3188.55 2846.95 3041.65 2841.2 2920.75 2774.05L2911.35 2768.8C2856 2738.05 2788.2 2737.2 2733.3 2768.8C2665.7 2807.75 2605.75 2882.7 2547.7 2966.8C2547 2967.8 2546.3 2968.85 2545.6 2969.85L2546.85 2966.05L2653.35 2643.35C2666.55 2630.25 2680.2 2618.95 2694.25 2609.3C2701.65 2604.25 2709.15 2599.65 2716.75 2595.55L2716.75 2595.5C2797.3 2551.55 2888.05 2559.5 2973.3 2606.15C3017.65 2630.45 3071.5 2632.6 3116.45 2609.45C3132.15 2601.35 3145.7 2590.85 3156.65 2577.55C3170.5 2561 3180.3 2540.15 3185.65 2514.35C3189.55 2495.4 3189.1 2475.9 3185.8 2456.85C3173.55 2386.45 3184.9 2327.6 3210.05 2284.9L3210.05 2284.85C3232.35 2246.95 3265.45 2221.75 3302.5 2212.35C3358.4 2198.15 3423.3 2219.95 3473.6 2288.45C3518.7 2350 3534.6 2427.85 3522.35 2503.15Z" />
					<path id="&lt;Compound Path&gt;" fill-rule="evenodd" class="shp1" d="M2537.9 2985.26L2651.16 2642L2651.59 2641.58C2664.63 2628.64 2678.5 2617.09 2692.83 2607.24C2699.98 2602.36 2707.2 2597.93 2714.32 2594.03L2715.55 2593.31C2792.89 2551.11 2884.85 2554.9 2974.5 2603.96C3019.15 2628.42 3071.79 2629.64 3115.31 2607.23C3131.08 2599.09 3144.34 2588.57 3154.72 2575.96C3168.49 2559.51 3178.06 2538.62 3183.2 2513.84C3186.78 2496.45 3186.82 2477.42 3183.34 2457.28C3168.78 2373.59 3188.37 2317.06 3207.55 2284.22L3207.9 2283.58C3230.11 2245.83 3263.49 2219.67 3301.89 2209.93C3363.72 2194.21 3428.65 2223.02 3475.62 2286.97C3519.53 2346.9 3537.46 2425.85 3524.82 2503.55C3517.27 2549.99 3501.47 2593.93 3477.86 2634.17C3439.84 2698.92 3382.88 2751.75 3313.13 2786.93C3190.27 2848.88 3043.13 2844.88 2919.53 2776.24L2910.13 2770.98C2855.01 2740.36 2787.73 2740.37 2734.54 2770.97C2663.39 2811.97 2601.2 2893.69 2549.76 2968.22L2537.9 2985.26ZM2655.54 2644.7L2553.39 2954.23C2603.6 2882.39 2663.58 2806.09 2732.05 2766.63C2786.75 2735.16 2855.91 2735.15 2912.57 2766.61L2921.97 2771.87C3044.11 2839.71 3189.5 2843.67 3310.87 2782.47C3379.76 2747.72 3436.01 2695.56 3473.54 2631.64C3496.84 2591.93 3512.43 2548.57 3519.88 2502.75C3532.31 2426.35 3514.71 2348.78 3471.58 2289.93C3425.87 2227.68 3362.87 2199.6 3303.12 2214.77C3266.21 2224.14 3234.07 2249.26 3212.54 2285.55L3212.2 2286.17C3193.34 2318.19 3173.87 2373.73 3188.26 2456.42C3191.86 2477.18 3191.8 2496.84 3188.1 2514.85C3182.79 2540.45 3172.86 2562.08 3158.57 2579.16C3147.77 2592.27 3133.98 2603.22 3117.6 2611.67C3072.59 2634.84 3018.2 2633.6 2972.1 2608.34C2884.49 2560.4 2794.76 2556.39 2719.25 2596.99L2719.25 2596.99L2717.94 2597.75C2710.56 2601.73 2703.07 2606.31 2695.66 2611.37C2681.74 2620.93 2668.23 2632.14 2655.54 2644.7Z" />
				</g>
				<g id="&lt;Group&gt;" style="opacity: 0.6">
					<path id="&lt;Path&gt;" class="shp2" d="M3187.4 2503.25C3189.1 2518.65 3188.75 2534.15 3185.65 2549.35C3180.3 2575.15 3170.5 2596 3156.65 2612.55C3145.7 2625.85 3132.15 2636.35 3116.45 2644.45C3071.5 2667.6 3017.65 2665.45 2973.3 2641.15C2888.05 2594.5 2797.3 2586.55 2716.75 2630.5L2716.75 2630.55C2709.15 2634.65 2701.65 2639.25 2694.25 2644.3C2680.2 2653.95 2666.55 2665.25 2653.35 2678.35L2567.45 2938.7C2560.85 2947.9 2554.25 2957.3 2547.7 2966.8C2547 2967.8 2546.3 2968.85 2545.6 2969.85L2546.85 2966.05L2653.35 2643.35C2666.55 2630.25 2680.2 2618.95 2694.25 2609.3C2701.65 2604.25 2709.15 2599.65 2716.75 2595.55L2716.75 2595.5C2797.3 2551.55 2888.05 2559.5 2973.3 2606.15C3017.65 2630.45 3071.5 2632.6 3116.45 2609.45C3132.15 2601.35 3145.7 2590.85 3156.65 2577.55C3170.5 2561 3180.3 2540.15 3185.65 2514.35C3186.4 2510.65 3187 2506.95 3187.4 2503.25Z" />
				</g>
				<g id="&lt;Group&gt;" style="opacity: 0.6">
					<path id="&lt;Path&gt;" class="shp2" d="M3525.85 2471.55C3522.75 2418.45 3505.45 2366.9 3473.6 2323.45C3423.3 2254.95 3358.4 2233.15 3302.5 2247.35C3265.45 2256.75 3232.35 2281.95 3210.05 2319.85L3210.05 2319.9C3194.15 2346.85 3183.8 2380.2 3181.4 2418.9C3178.25 2365.2 3189.55 2319.7 3210.05 2284.9L3210.05 2284.85C3232.35 2246.95 3265.45 2221.75 3302.5 2212.35C3358.4 2198.15 3423.3 2219.95 3473.6 2288.45C3512.4 2341.4 3529.6 2406.45 3525.85 2471.55Z" />
				</g>
				<g id="&lt;Group&gt;" style="opacity: 0.6">
					<path id="&lt;Path&gt;" class="shp2" d="M3187.4 2503.25C3187 2499.45 3186.45 2495.65 3185.8 2491.85C3181.3 2465.9 3179.95 2441.5 3181.4 2418.9C3182.1 2431.1 3183.55 2443.8 3185.8 2456.85C3188.45 2472.2 3189.25 2487.85 3187.4 2503.25Z" />
				</g>
				<g id="&lt;Group&gt;">
					<path id="&lt;Path&gt;" class="shp2" d="M3522.35 2503.15C3514.65 2550.5 3498.5 2594.05 3475.7 2632.9C3468.4 2630.07 3462.33 2627.43 3457.5 2625C3306.45 2709.7 3206.15 2693.9 3156.65 2577.55C3170.5 2561 3180.3 2540.15 3185.65 2514.35C3189.55 2495.4 3189.1 2475.9 3185.8 2456.85C3146.3 2229.8 3352.3 2123.25 3473.6 2288.45C3518.7 2350 3534.6 2427.85 3522.35 2503.15Z" />
				</g>
				<g id="&lt;Group&gt;">
					<path id="&lt;Path&gt;" class="shp1" d="M2545.58 2987.36C2542.16 2987.36 2538.71 2986.37 2535.68 2984.28C2527.71 2978.81 2525.7 2967.91 2531.17 2959.95C2584.63 2882.22 2649.4 2796.92 2724.59 2753.63C2783.8 2719.54 2858.62 2719.49 2919.83 2753.5L2929.26 2758.74C3047.06 2824.18 3187.2 2828.04 3304.11 2769.09C3412.92 2714.22 3486.16 2616.27 3505.07 2500.36C3516.89 2427.87 3500.27 2354.41 3459.47 2298.82C3412.55 2234.89 3347.43 2210.5 3289.52 2235.16C3231.81 2259.74 3182.7 2336.89 3203.04 2453.85C3206.97 2476.46 3206.89 2498.01 3202.78 2517.9C3192.54 2567.5 3166.19 2603.54 3124.46 2625.02C3075.05 2650.47 3015.4 2649.16 2964.91 2621.52C2854.93 2561.3 2748.67 2573.48 2665.65 2655.77C2658.78 2662.56 2647.7 2662.52 2640.9 2655.65C2634.1 2648.79 2634.15 2637.71 2641.01 2630.9C2734.63 2538.14 2858.8 2523.52 2981.72 2590.82C3022 2612.87 3069.37 2614.02 3108.44 2593.91C3140.74 2577.28 3160.39 2550.09 3168.5 2510.82C3171.72 2495.26 3171.74 2478.11 3168.56 2459.85C3144.93 2324.01 3205.4 2232.94 3275.8 2202.96C3349.45 2171.58 3430.64 2200.39 3487.68 2278.11C3534.01 2341.23 3552.94 2424.29 3539.61 2505.99C3518.88 2633.09 3438.79 2740.38 3319.87 2800.34C3192.57 2864.52 3040.2 2860.41 2912.27 2789.34L2902.83 2784.09C2852.28 2756.01 2790.68 2755.95 2742.05 2783.96C2672.93 2823.77 2611.24 2905.28 2560.01 2979.78C2556.62 2984.71 2551.14 2987.36 2545.58 2987.36Z" />
				</g>
				<g id="&lt;Group&gt;">
					<path id="&lt;Path&gt;" class="shp1" d="M2945.24 2573.28C2972.03 2588.09 2998.31 2603.95 3023.54 2621.4C3048.74 2638.86 3072.94 2657.94 3094.94 2679.36C3097.91 2682.25 3097.98 2687.01 3095.09 2689.98C3092.39 2692.75 3088.07 2692.99 3085.09 2690.67L3085.06 2690.64C3061.69 2672.45 3036.49 2656.77 3010.44 2642.7C2984.38 2628.64 2957.43 2616.2 2930.03 2604.81C2921.09 2601.09 2916.86 2590.83 2920.58 2581.9C2924.29 2572.96 2934.55 2568.72 2943.49 2572.44C2944.09 2572.69 2944.68 2572.98 2945.24 2573.28Z" />
				</g>
				<g id="&lt;Group&gt;">
					<path id="&lt;Path&gt;" class="shp1" d="M2934.82 2678.53L2860.55 2749.64C2898.25 2764.57 2918.32 2772.7 2920.77 2774.04C2923.31 2775.42 2938.4 2720 2947.4 2685.92C2949.36 2678.52 2940.35 2673.23 2934.82 2678.53Z" />
				</g>
				<g id="&lt;Group&gt;">
					<path id="&lt;Path&gt;" class="shp1" d="M3109.22 2612.93L3181.02 2659.68C3190.43 2665.81 3202.53 2657.45 3200.13 2646.49L3177.35 2542.27C3160.29 2572.44 3137.58 2595.99 3109.22 2612.93Z" />
				</g>
				<g id="&lt;Group&gt;">
					<path id="&lt;Path&gt;" class="shp1" d="M3503.34 2574.79L3407.81 2557.25C3394.11 2554.73 3384.62 2570.54 3393.27 2581.45L3456.94 2661.76L3503.34 2574.79Z" />
				</g>
				<g id="&lt;Group&gt;">
					<path id="&lt;Path&gt;" class="shp0" d="M2704.1 2059.55C2706.1 2178.15 2701.15 2290.15 2690.35 2394.7C2688.5 2412.45 2686.55 2430 2684.35 2447.3C2592.2 3185.95 2204.75 3526.1 1948.15 3153.35C1937.45 3155.15 1926.7 3156.55 1916 3157.55L1915.85 3157.6C1874.1 3161.7 1832.35 3160.15 1790.65 3153.35C1790.02 3153.25 1789.08 3153.08 1787.85 3152.85C1786.15 3152.6 1784.5 3152.3 1782.8 3152C1638.35 3363.15 1452.05 3347.5 1300.35 3161.4C1141.6 2966.6 1020.75 2584.95 1025.6 2081.15C1025.65 2074 1025.75 2066.8 1025.9 2059.55C950.15 1954.3 896.65 1830.4 882.8 1703.1C866.75 1556.45 903.4 1405.35 1019.2 1273.35C988.85 1113.35 981.75 961.8 1014.1 824.55C1026.45 772 1073 734.15 1126.95 733.85C1270.75 733.15 1425 787.1 1557.5 861.65C1745.6 829.05 1933.75 826.35 2121.85 853.6C2138.75 856.05 2155.6 858.75 2172.5 861.65C2305.05 787.1 2459.3 733.15 2603.1 733.85C2657.05 734.15 2703.6 772 2715.95 824.55C2748.3 961.8 2741.2 1113.35 2710.85 1273.35C2747.4 1315 2776.05 1358.55 2797.65 1403.3C2797.65 1403.33 2797.65 1403.35 2797.65 1403.35C2903.95 1623.25 2839.65 1871.3 2704.1 2059.55Z" />
					<path id="&lt;Compound Path&gt;" fill-rule="evenodd" class="shp1" d="M2183.15 3308.3C2097.3 3308.3 2016.53 3256.52 1946.99 3156.07C1936.95 3157.73 1926.71 3159.05 1916.51 3160.01L1916.1 3160.09C1874.82 3164.14 1832.47 3162.7 1790.25 3155.82C1790.25 3155.82 1789.27 3155.66 1787.39 3155.31C1786.27 3155.14 1785.12 3154.95 1783.95 3154.74C1717.36 3251.51 1638.28 3304.5 1555.19 3307.99C1467.41 3311.65 1378.74 3261.52 1298.41 3162.98C1121.58 2946 1018.67 2541.57 1023.1 2081.12C1023.15 2074.24 1023.24 2067.31 1023.39 2060.33C943.02 1948.46 893.56 1825.04 880.31 1703.37C862.82 1543.54 909.92 1394.61 1016.52 1272.62C983.4 1097.4 981.81 950.64 1011.67 823.98C1024.41 769.75 1071.81 731.66 1126.94 731.35C1127.83 731.34 1128.73 731.34 1129.63 731.34C1259.29 731.34 1411.24 776.63 1557.95 859.03C1745.21 826.68 1935.07 824.01 2122.21 851.12C2138.2 853.44 2154.51 856.03 2172.05 859.04C2318.81 776.64 2470.79 731.34 2600.42 731.34C2601.32 731.34 2602.21 731.34 2603.11 731.35C2658.24 731.66 2705.64 769.75 2718.38 823.98C2748.23 950.64 2746.65 1097.39 2713.53 1272.62C2748.83 1313 2777.88 1356.59 2799.9 1402.22L2800.15 1402.78C2895.47 1600.49 2860.51 1846.2 2706.61 2060.34C2708.52 2175.4 2703.89 2287.97 2692.83 2394.96C2690.7 2415.49 2688.79 2432.23 2686.83 2447.61C2629.55 2906.74 2448.64 3249.98 2236.66 3301.72C2218.64 3306.11 2200.79 3308.3 2183.15 3308.3ZM1949.31 3150.62L1950.21 3151.93C2018.95 3251.79 2098.69 3303.27 2183.29 3303.28C2200.5 3303.28 2217.91 3301.15 2235.47 3296.86C2445.45 3245.61 2624.85 2904.07 2681.87 2446.99C2683.82 2431.64 2685.72 2414.94 2687.86 2394.44C2698.92 2287.4 2703.54 2174.74 2701.6 2059.6L2701.58 2058.77L2702.07 2058.09C2855.42 1845.12 2890.31 1600.77 2795.4 1404.44L2795.15 1403.87C2773.19 1358.5 2744.2 1315.14 2708.97 1275L2708.17 1274.08L2708.4 1272.89C2741.6 1097.84 2743.27 951.37 2713.52 825.12C2701.3 773.15 2655.9 736.65 2603.09 736.35C2602.2 736.34 2601.31 736.34 2600.42 736.34C2471.4 736.34 2320 781.56 2173.73 863.83L2172.96 864.26L2172.08 864.12C2154.24 861.06 2137.7 858.42 2121.49 856.07C1934.57 828.99 1744.96 831.7 1557.93 864.11L1557.05 864.27L1556.28 863.83C1410.07 781.56 1258.67 736.34 1129.63 736.34C1128.74 736.34 1127.86 736.34 1126.96 736.35C1074.16 736.65 1028.75 773.15 1016.53 825.12C986.77 951.38 988.45 1097.84 1021.66 1272.89L1021.89 1274.08L1021.08 1275C914.86 1396.08 867.9 1544.02 885.28 1702.83C898.46 1823.89 947.78 1946.74 1027.93 2058.09L1028.41 2058.77L1028.4 2059.6C1028.25 2066.84 1028.15 2074.03 1028.1 2081.16C1023.68 2540.48 1126.18 2943.72 1302.29 3159.82C1381.58 3257.1 1468.86 3306.8 1554.98 3302.99C1636.81 3299.56 1714.88 3246.86 1780.73 3150.59L1781.65 3149.25L1783.24 3149.54C1785.14 3149.87 1786.66 3150.15 1788.22 3150.38C1790.09 3150.73 1791.02 3150.88 1791.04 3150.88C1832.77 3157.69 1874.58 3159.12 1915.33 3155.14L1915.76 3155.06C1926.47 3154.06 1937.22 3152.66 1947.74 3150.88L1949.31 3150.62Z" />
				</g>
				<g id="&lt;Group&gt;" style="opacity: 0.6">
					<path id="&lt;Path&gt;" class="shp2" d="M1584.3 3302.2C1487.95 3319.95 1388.35 3269.35 1300.35 3161.4C1198.85 3036.85 1112.85 2835.9 1065.25 2575.45C1079.35 2570.7 1093.95 2565.8 1108.25 2560.85C1155.35 2826.75 1242.4 3031.7 1345.35 3158.05C1419.7 3249.25 1502.35 3299.55 1584.3 3302.2Z" />
				</g>
				<g id="&lt;Group&gt;" style="opacity: 0.6">
					<path id="&lt;Path&gt;" class="shp2" d="M1597 855.25C1649.5 847.3 1702 841.7 1754.55 838.45C1703.85 842.9 1653.2 849.5 1602.5 858.3C1600.7 857.25 1598.85 856.25 1597 855.25Z" />
				</g>
				<g id="&lt;Group&gt;" style="opacity: 0.6">
					<path id="&lt;Path&gt;" class="shp2" d="M1927.3 3156.3C1923.5 3156.8 1919.75 3157.2 1916 3157.55L1915.85 3157.6C1884.45 3160.7 1853.05 3160.55 1821.65 3157.4C1823.75 3154.55 1825.75 3151.6 1827.8 3148.65C1829.5 3148.95 1831.15 3149.25 1832.85 3149.5C1834.08 3149.73 1835.02 3149.9 1835.65 3150C1866.2 3155 1896.75 3157.15 1927.3 3156.3Z" />
				</g>
				<g id="&lt;Group&gt;" style="opacity: 0.6">
					<path id="&lt;Path&gt;" class="shp2" d="M2222.15 3302.2C2127.25 3319.3 2031.7 3273.7 1949.5 3155.25C1953.3 3154.95 1957.05 3154.6 1960.85 3154.25L1961 3154.2C1971.7 3153.2 1982.45 3151.8 1993.15 3150C2062.7 3251.05 2141.9 3299.7 2222.15 3302.2Z" />
				</g>
				<g id="&lt;Group&gt;" style="opacity: 0.6">
					<path id="&lt;Path&gt;" class="shp2" d="M2217.5 858.3C2207.45 856.6 2197.45 854.95 2187.45 853.4C2308.65 787.45 2446.6 739.35 2577.6 734.3C2454.9 747.8 2328.6 795.85 2217.5 858.3Z" />
				</g>
				<g id="&lt;Group&gt;" style="opacity: 0.6">
					<path id="&lt;Path&gt;" class="shp2" d="M1597 855.25C1583.85 857.25 1570.65 859.35 1557.5 861.65C1430.35 790.1 1283.15 737.55 1144.35 734.05C1153.25 731.75 1162.5 730.55 1171.95 730.5C1313.75 729.8 1465.75 782.25 1597 855.25Z" />
				</g>
				<g id="&lt;Group&gt;" style="opacity: 0.6">
					<path id="&lt;Path&gt;" class="shp2" d="M1790.65 3153.35C1801 3155.05 1811.3 3156.4 1821.65 3157.4C1749.5 3258.95 1667.25 3304.95 1584.3 3302.2C1654.1 3289.35 1722.15 3240.7 1782.8 3152C1784.5 3152.3 1786.15 3152.6 1787.85 3152.85C1789.08 3153.08 1790.02 3153.25 1790.65 3153.35Z" />
				</g>
				<g id="&lt;Group&gt;" style="opacity: 0.6">
					<path id="&lt;Path&gt;" class="shp2" d="M1948.15 3153.35C1948.6 3154 1949 3154.6 1949.5 3155.25C1942.1 3155.75 1934.7 3156.15 1927.3 3156.3C1934.25 3155.5 1941.2 3154.5 1948.15 3153.35Z" />
				</g>
				<g id="&lt;Group&gt;" style="opacity: 0.6">
					<path id="&lt;Path&gt;" class="shp2" d="M2187.45 853.4C2182.45 856.1 2177.45 858.85 2172.5 861.65C2155.6 858.75 2138.75 856.05 2121.85 853.6C1999.45 835.85 1877 830.8 1754.55 838.45C1892 826.4 2029.45 830.35 2166.85 850.25C2173.7 851.25 2180.6 852.3 2187.45 853.4Z" />
				</g>
				<g id="&lt;Group&gt;" style="opacity: 0.6">
					<path id="&lt;Path&gt;" class="shp2" d="M2715.8 824.05C2694.45 796.5 2661.3 779.05 2624.75 778.85C2480.95 778.15 2326.7 832.1 2194.15 906.65C2177.25 903.75 2160.4 901.05 2143.5 898.6C1955.4 871.35 1767.25 874.05 1579.15 906.65C1446.65 832.1 1292.4 778.15 1148.6 778.85C1094.65 779.15 1048.1 817 1035.75 869.55C1003.4 1006.8 1010.5 1158.35 1040.85 1318.35C869.1 1514.15 871.5 1751.9 961.45 1954.95C851.2 1742.75 834.55 1483.8 1019.2 1273.35C988.85 1113.35 981.75 961.8 1014.1 824.55C1026.45 772 1073 734.15 1126.95 733.85C1270.75 733.15 1425 787.1 1557.5 861.65C1745.6 829.05 1933.75 826.35 2121.85 853.6C2138.75 856.05 2155.6 858.75 2172.5 861.65C2305.05 787.1 2459.3 733.15 2603.1 733.85C2656.9 734.15 2703.3 771.75 2715.8 824.05Z" />
				</g>
				<g id="&lt;Group&gt;" style="opacity: 0.6">
					<path id="&lt;Path&gt;" class="shp2" d="M2808.3 1426.85C2788.3 1389.65 2763.2 1353.3 2732.5 1318.35C2733.45 1313.25 2734.4 1308.15 2735.35 1303.1C2760.5 1335.55 2781.15 1369.1 2797.65 1403.3C2797.65 1403.33 2797.65 1403.35 2797.65 1403.35C2801.4 1411.15 2805 1419 2808.3 1426.85Z" />
				</g>
				<g id="&lt;Group&gt;" style="opacity: 0.6">
					<path id="&lt;Path&gt;" class="shp2" d="M961.45 1954.95C980.35 1991.35 1002.05 2026.4 1025.9 2059.55C1025.8 2063.95 1025.75 2068.35 1025.7 2072.75C1001.25 2035.3 979.6 1995.85 961.45 1954.95Z" />
				</g>
				<g id="&lt;Group&gt;" style="opacity: 0.6">
					<path id="&lt;Path&gt;" class="shp2" d="M2735.35 1303.1C2727.6 1293.1 2719.45 1283.15 2710.85 1273.35C2741.2 1113.35 2748.3 961.8 2715.95 824.55C2715.9 824.4 2715.85 824.2 2715.8 824.05C2726.05 837.2 2733.6 852.6 2737.6 869.55C2768.9 1002.45 2763.25 1148.7 2735.35 1303.1Z" />
				</g>
				<g id="&lt;Group&gt;">
					<path id="&lt;Path&gt;" class="shp2" d="M2797.65 1403.3C2797.65 1403.33 2797.65 1403.35 2797.65 1403.35C2105.15 1599.15 1907.5 1159.25 2125 865.8C2125.35 863.9 2123.9 859.65 2121.85 853.6C2138.75 856.05 2155.6 858.75 2172.5 861.65C2305.05 787.1 2459.3 733.15 2603.1 733.85C2657.05 734.15 2703.6 772 2715.95 824.55C2748.3 961.8 2741.2 1113.35 2710.85 1273.35C2747.4 1315 2776.05 1358.55 2797.65 1403.3Z" />
				</g>
				<g id="&lt;Group&gt;" style="opacity: 0.302">
					<path id="&lt;Path&gt;" class="shp1" d="M2704.1 2059.55C2706.1 2178.15 2701.15 2290.15 2690.35 2394.7C2599 2441.6 2521.6 2476.9 2507.2 2475C2476.9 2471 1441.8 2193.5 1025.6 2081.15C1025.65 2074 1025.75 2066.8 1025.9 2059.55C950.15 1954.3 896.65 1830.4 882.8 1703.1C1196.8 2064.1 2758.2 2031.4 2620 1178L2710.85 1273.35C2747.4 1315 2776.05 1358.55 2797.65 1403.3C2797.65 1403.33 2797.65 1403.35 2797.65 1403.35C2903.95 1623.25 2839.65 1871.3 2704.1 2059.55Z" />
				</g>
				<g id="&lt;Group&gt;">
					<path id="&lt;Path&gt;" class="shp3" d="M2350.83 942.5C2442.81 994.19 2521.54 1057.84 2590.83 1130C2597.37 1052.49 2604.16 975.57 2592.09 909.3C2586.91 880.86 2559.79 861.81 2531.26 866.48C2475.32 875.64 2411.05 898.3 2350.83 942.5Z" />
				</g>
				<g id="&lt;Group&gt;">
					<path id="&lt;Path&gt;" class="shp3" d="M1379.17 942.5C1287.19 994.19 1208.46 1057.84 1139.17 1130C1132.63 1052.49 1125.84 975.57 1137.91 909.3C1143.09 880.86 1170.21 861.81 1198.74 866.48C1254.68 875.64 1318.95 898.3 1379.17 942.5Z" />
				</g>
				<g id="&lt;Group&gt;" style="opacity: 0.302">
					<path id="&lt;Path&gt;" class="shp1" d="M1379.15 942.5C1360.65 952.9 1342.7 963.8 1325.25 975.15C1281.85 952.4 1238.25 939.2 1198.75 932.75C1170.2 928.05 1143.1 947.1 1137.9 975.55C1134.8 992.6 1132.95 1010.4 1132.05 1028.75C1130.3 986.75 1131.15 946.35 1137.9 909.3C1143.1 880.85 1170.2 861.8 1198.75 866.5C1254.7 875.65 1318.95 898.3 1379.15 942.5Z" />
				</g>
				<g id="&lt;Group&gt;" style="opacity: 0.302">
					<path id="&lt;Path&gt;" class="shp1" d="M2350.85 942.5C2369.35 952.9 2387.3 963.8 2404.75 975.15C2448.15 952.4 2491.75 939.2 2531.25 932.75C2559.8 928.05 2586.9 947.1 2592.1 975.55C2595.2 992.6 2597.05 1010.4 2597.95 1028.75C2599.7 986.75 2598.85 946.35 2592.1 909.3C2586.9 880.85 2559.8 861.8 2531.25 866.5C2475.3 875.65 2411.05 898.3 2350.85 942.5Z" />
				</g>
				<g id="&lt;Group&gt;" style="opacity: 0.6">
					<path id="&lt;Path&gt;" class="shp2" d="M1369.13 1000.33C1308.94 1037.6 1254.62 1080.18 1205 1126.98C1188.78 1142.29 1162.03 1132.16 1160.45 1109.92L1160.35 1108.5C1220.2 1049.35 1286.95 996.45 1362.85 951.9C1364.73 952.96 1366.6 954.04 1368.47 955.14C1385.63 965.19 1386.03 989.86 1369.13 1000.33Z" />
				</g>
				<g id="&lt;Group&gt;">
					<path id="&lt;Path&gt;" class="shp1" d="M1546 3323.14C1521.77 3323.14 1497.25 3319.26 1472.61 3311.41C1344.92 3270.73 1227.47 3129.9 1141.91 2914.85C1049.67 2683.05 1003.51 2389.29 1008.31 2065.04C922.35 1943.93 870.72 1805.64 862.81 1675.01C853.71 1524.86 901.28 1384.41 1000.45 1268.28C968.23 1094.1 967.13 947.55 997.07 820.54C1011.4 759.55 1064.78 716.69 1126.85 716.35C1258.18 715.54 1412.12 760.78 1560.64 843.35C1747.76 811.58 1937.39 809.19 2124.36 836.28C2138.87 838.38 2153.65 840.71 2169.35 843.36C2316.89 761.36 2469.64 716.34 2600.43 716.34C2601.36 716.34 2602.26 716.34 2603.19 716.35C2665.28 716.69 2718.65 759.55 2732.99 820.55C2762.92 947.54 2761.82 1094.09 2729.61 1268.28C2763.64 1308.11 2791.81 1350.94 2813.41 1395.69C2813.53 1395.95 2813.65 1396.22 2813.77 1396.48C2876.41 1526.61 2885.28 1675.72 2839.4 1827.75C2836.62 1837.01 2826.85 1842.25 2817.59 1839.45C2808.34 1836.66 2803.1 1826.9 2805.9 1817.65C2849.28 1673.86 2840.98 1533.23 2781.89 1410.97C2781.77 1410.71 2781.65 1410.44 2781.54 1410.18C2760.18 1366.1 2731.98 1323.96 2697.7 1284.89C2694.14 1280.85 2692.65 1275.38 2693.66 1270.09C2726.46 1097.15 2728.18 952.73 2698.92 828.56C2688.29 783.35 2648.85 751.61 2603 751.35C2602.15 751.34 2601.26 751.34 2600.4 751.34C2473.93 751.34 2325.15 795.87 2181.08 876.9C2177.58 878.87 2173.5 879.59 2169.54 878.9C2151.84 875.86 2135.42 873.25 2119.34 870.92C1933.97 844.06 1745.95 846.75 1560.49 878.89C1556.53 879.6 1552.43 878.88 1548.92 876.9C1404.91 795.88 1256.14 751.34 1129.64 751.34C1128.77 751.34 1127.9 751.34 1127.03 751.35C1081.2 751.61 1041.76 783.35 1031.13 828.56C1001.87 952.73 1003.59 1097.15 1036.39 1270.09C1037.4 1275.38 1035.91 1280.84 1032.36 1284.89C812.62 1535.36 892.28 1844 1040.1 2049.33C1042.31 2052.39 1043.46 2056.07 1043.4 2059.84C1038.03 2381.81 1083.34 2672.99 1174.43 2901.91C1254.86 3104.06 1367.42 3241.17 1483.23 3278.06C1586.4 3310.92 1685.01 3263.93 1768.36 3142.12C1772.25 3136.43 1779.12 3133.56 1785.9 3134.78C1839.32 3144.38 1892.95 3144.81 1945.27 3136.09C1951.93 3134.96 1958.72 3137.83 1962.57 3143.43C2041.48 3258.07 2134.66 3306.06 2232 3282.26C2402.11 3240.65 2602.67 2964.94 2667.28 2442.75C2668.47 2433.16 2677.16 2426.33 2686.8 2427.53C2696.39 2428.72 2703.2 2437.46 2702.02 2447.05C2672.84 2682.85 2612.24 2890.13 2526.75 3046.48C2445.48 3195.15 2343.76 3290.96 2240.32 3316.26C2131.93 3342.79 2025.64 3291.69 1940.08 3172.31C1890.91 3179.38 1840.81 3178.97 1790.81 3171.1C1719.66 3270.98 1634.84 3323.13 1546 3323.14Z" />
				</g>
				<g id="&lt;Group&gt;">
					<g id="&lt;Group&gt;">
						<path id="&lt;Compound Path&gt;" fill-rule="evenodd" class="shp1" d="M2590.83 1145C2586.82 1145 2582.89 1143.39 2580.01 1140.39C2507.2 1064.56 2429.83 1004.11 2343.48 955.58C2339.04 953.08 2336.17 948.5 2335.86 943.41C2335.55 938.32 2337.85 933.42 2341.95 930.41C2411.72 879.2 2482.09 859.33 2528.84 851.68C2565.22 845.74 2600.24 870.36 2606.84 906.62C2619.07 973.75 2612.48 1051.85 2606.11 1127.38L2605.78 1131.26C2605.28 1137.13 2601.39 1142.17 2595.84 1144.14C2594.21 1144.72 2592.51 1145 2590.83 1145ZM2378.85 941.36C2450.62 983.94 2516.36 1034.91 2578.6 1096.25C2583.97 1029.89 2587.41 967.31 2577.33 911.99C2573.63 891.73 2554.07 877.93 2533.69 881.29C2494.45 887.71 2437.34 903.38 2378.85 941.36Z" />
					</g>
					<g id="&lt;Group&gt;">
						<path id="&lt;Compound Path&gt;" fill-rule="evenodd" class="shp1" d="M1139.17 1145C1137.49 1145 1135.79 1144.72 1134.16 1144.14C1128.61 1142.17 1124.71 1137.13 1124.22 1131.26L1123.89 1127.38C1117.52 1051.85 1110.92 973.75 1123.16 906.61C1129.76 870.36 1164.79 845.76 1201.16 851.68C1247.91 859.33 1318.28 879.2 1388.04 930.41C1392.15 933.42 1394.45 938.32 1394.14 943.41C1393.83 948.5 1390.96 953.08 1386.52 955.58C1300.16 1004.11 1222.79 1064.57 1149.99 1140.39C1147.11 1143.39 1143.18 1145 1139.17 1145ZM1190.21 880.79C1172.16 880.79 1155.99 893.77 1152.67 911.99C1142.59 967.31 1146.03 1029.89 1151.4 1096.25C1213.63 1034.92 1279.38 983.94 1351.14 941.36C1292.66 903.38 1235.55 887.71 1196.32 881.29C1194.27 880.95 1192.22 880.79 1190.21 880.79Z" />
					</g>
				</g>
				<g id="&lt;Group&gt;">
					<path id="&lt;Path&gt;" class="shp4" d="M3182.12 1654.08L1859.01 1698.93C1837.36 1699.66 1819.09 1682.94 1817.91 1661.3C1816.73 1639.61 1833.15 1620.98 1854.81 1619.42L3175.25 1524.37C3211.48 1521.76 3242.8 1549.36 3244.77 1585.63L3244.77 1585.63C3246.75 1621.97 3218.49 1652.84 3182.12 1654.08Z" />
					<path id="&lt;Compound Path&gt;" fill-rule="evenodd" class="shp5" d="M1857.68 1701.6C1835.37 1701.6 1816.48 1683.87 1815.26 1661.45C1814.01 1638.46 1831.67 1618.43 1854.62 1616.78L3175.06 1521.72C3193.29 1520.4 3210.9 1526.34 3224.61 1538.43C3238.33 1550.52 3246.43 1567.23 3247.42 1585.48C3248.42 1603.78 3242.16 1621.29 3229.78 1634.81C3217.41 1648.32 3200.51 1656.11 3182.2 1656.73L1859.1 1701.58C1858.63 1701.59 1858.15 1701.6 1857.68 1701.6ZM3180.02 1526.85C3178.5 1526.85 3176.97 1526.9 3175.44 1527.02L1855 1622.07C1834.91 1623.52 1819.46 1641.05 1820.56 1661.16C1821.65 1681.2 1838.74 1696.99 1858.93 1696.27L3182.03 1651.43C3198.9 1650.85 3214.47 1643.68 3225.87 1631.23C3237.27 1618.77 3243.04 1602.63 3242.12 1585.78C3241.21 1568.95 3233.74 1553.55 3221.1 1542.41C3209.62 1532.29 3195.17 1526.85 3180.02 1526.85Z" />
				</g>
				<g id="&lt;Group&gt;" style="opacity: 0.6">
					<path id="&lt;Path&gt;" class="shp2" d="M1859.81 1649.42L3180.25 1554.37C3207.83 1552.39 3232.52 1567.93 3243.63 1591.45C3244.61 1586.35 3245.07 1581.06 3244.77 1575.63L3244.77 1575.63C3242.8 1539.37 3211.47 1511.76 3175.25 1514.37L1854.81 1609.42C1833.14 1610.98 1816.73 1629.61 1817.91 1651.3C1818.36 1659.64 1821.38 1667.24 1826.13 1673.4C1831.83 1660.18 1844.49 1650.52 1859.81 1649.42Z" />
				</g>
				<g id="&lt;Group&gt;">
					<path id="&lt;Compound Path&gt;" fill-rule="evenodd" class="shp1" d="M1857.68 1716.45C1827.57 1716.45 1802.09 1692.52 1800.43 1662.25C1798.75 1631.24 1822.58 1604.19 1853.55 1601.97L3174 1506.91C3196.23 1505.3 3217.7 1512.55 3234.43 1527.29C3251.15 1542.03 3261.04 1562.41 3262.25 1584.68C3263.46 1606.99 3255.82 1628.35 3240.73 1644.83C3225.65 1661.31 3205.04 1670.81 3182.71 1671.57C3182.71 1671.57 3182.71 1671.57 3182.71 1671.57L1859.61 1716.42C1858.97 1716.44 1858.32 1716.45 1857.68 1716.45ZM3180 1541.7C3178.84 1541.7 3177.67 1541.74 3176.51 1541.83L1856.06 1636.88C1844.01 1637.74 1834.73 1648.28 1835.38 1660.35C1836.04 1672.38 1846.44 1682.01 1858.42 1681.44L3181.53 1636.59C3194.37 1636.15 3206.23 1630.69 3214.92 1621.2C3223.6 1611.71 3227.99 1599.42 3227.3 1586.58C3226.6 1573.77 3220.91 1562.04 3211.29 1553.55C3202.54 1545.85 3191.53 1541.7 3180 1541.7ZM3182.12 1654.08L3182.16 1654.08L3182.12 1654.08Z" />
				</g>
				<g id="&lt;Group&gt;">
					<path id="&lt;Path&gt;" class="shp1" d="M1995 1359C1995 1396.28 1936.8 1426.5 1865 1426.5C1793.2 1426.5 1735 1396.28 1735 1359C1735 1321.72 1793.2 1311.5 1865 1311.5C1936.8 1311.5 1995 1321.72 1995 1359Z" />
				</g>
				<g id="&lt;Group&gt;">
					<g id="&lt;Group&gt;">
						<path id="&lt;Path&gt;" class="shp1" d="M1635.05 1241.67C1606.28 1225.67 1582.2 1217.32 1559.02 1214.62C1536.09 1211.83 1514.54 1213.55 1494.11 1218.9C1473.74 1224.48 1455.01 1233.33 1437.68 1247.38C1429.04 1254.48 1420.62 1263.02 1412.82 1273.65C1410.79 1276.29 1408.76 1279.03 1407 1281.97C1405.13 1284.88 1403.05 1287.86 1401.34 1291.04C1399.66 1294.21 1397.47 1297.45 1395.79 1300.87C1394 1304.29 1392.23 1307.82 1390.05 1311.5C1381.47 1297.33 1377.5 1280.84 1377.35 1263.64C1377.35 1246.49 1381.63 1228.6 1390.09 1212.43C1398.46 1196.2 1410.85 1181.8 1425.53 1170.55C1440.21 1159.27 1457.17 1151.1 1474.91 1146.41C1510.34 1137.02 1549.27 1141.62 1580.23 1159.74C1611.14 1177.65 1633.15 1208.72 1635.05 1241.67Z" />
					</g>
					<g id="&lt;Group&gt;">
						<path id="&lt;Path&gt;" class="shp1" d="M2094.95 1241.67C2096.85 1208.72 2118.86 1177.65 2149.77 1159.74C2180.73 1141.62 2219.66 1137.02 2255.09 1146.41C2272.83 1151.1 2289.79 1159.27 2304.47 1170.55C2319.15 1181.8 2331.54 1196.2 2339.91 1212.43C2348.37 1228.6 2352.65 1246.49 2352.65 1263.64C2352.5 1280.84 2348.53 1297.33 2339.95 1311.5C2337.77 1307.82 2336 1304.29 2334.21 1300.87C2332.53 1297.45 2330.34 1294.21 2328.66 1291.04C2326.95 1287.86 2324.87 1284.88 2323 1281.97C2321.24 1279.03 2319.21 1276.29 2317.18 1273.65C2309.38 1263.02 2300.96 1254.48 2292.32 1247.38C2274.99 1233.33 2256.26 1224.48 2235.89 1218.9C2215.46 1213.55 2193.91 1211.83 2170.98 1214.62C2147.8 1217.32 2123.72 1225.67 2094.95 1241.67Z" />
					</g>
				</g>
				<g id="&lt;Group&gt;">
					<g id="&lt;Group&gt;">
						<path id="&lt;Path&gt;" class="shp1" d="M1638.18 1358.17C1639.29 1373.92 1636.17 1390.24 1628.9 1405.4C1621.63 1420.54 1609.67 1434.05 1595.31 1443.34C1580.99 1452.76 1564.76 1458.12 1548.87 1460.22C1532.91 1462.23 1517.13 1461.38 1502.11 1457.5C1497.96 1456.43 1495.47 1452.2 1496.54 1448.06C1497.25 1445.33 1499.32 1443.32 1501.83 1442.57L1502.06 1442.5C1516.18 1438.32 1529.6 1434.98 1542.08 1430.53C1554.57 1426.19 1566 1420.93 1575.99 1414.23C1585.98 1407.5 1594.63 1399.4 1602.34 1389.52C1610.01 1379.58 1616.48 1367.93 1623.48 1355.17L1623.6 1354.97C1625.66 1351.2 1630.4 1349.82 1634.16 1351.89C1636.55 1353.2 1637.99 1355.63 1638.18 1358.17Z" />
					</g>
					<g id="&lt;Group&gt;">
						<path id="&lt;Path&gt;" class="shp1" d="M2106.52 1355.17C2113.52 1367.93 2119.99 1379.58 2127.66 1389.52C2135.37 1399.4 2144.02 1407.5 2154.01 1414.23C2164 1420.93 2175.43 1426.19 2187.92 1430.53C2200.4 1434.98 2213.82 1438.32 2227.94 1442.5L2228.15 1442.56C2232.26 1443.78 2234.6 1448.09 2233.39 1452.19C2232.59 1454.89 2230.43 1456.84 2227.89 1457.5C2212.87 1461.38 2197.09 1462.23 2181.13 1460.22C2165.24 1458.12 2149.01 1452.76 2134.69 1443.34C2120.33 1434.05 2108.37 1420.54 2101.1 1405.4C2093.83 1390.24 2090.71 1373.92 2091.82 1358.17C2092.12 1353.88 2095.84 1350.65 2100.13 1350.95C2102.85 1351.14 2105.14 1352.71 2106.38 1354.92L2106.52 1355.17Z" />
					</g>
				</g>
				<g id="&lt;Group&gt;">
					<path id="&lt;Path&gt;" class="shp1" d="M2159.8 3077.86C2128.55 3099.33 2095.45 3118.51 2060.5 3134.34C2025.56 3150.17 1988.75 3162.59 1950.69 3170.61L1950.65 3170.62C1941.19 3172.62 1931.89 3166.56 1929.9 3157.1C1927.9 3147.63 1933.96 3138.34 1943.42 3136.34C1943.93 3136.23 1944.46 3136.15 1944.96 3136.09C1980.89 3131.79 2016.55 3123.26 2051.19 3111.14C2085.85 3099.03 2119.49 3083.37 2151.85 3065.14C2155.45 3063.1 2160.04 3064.36 2162.08 3067.97C2164.01 3071.37 2162.95 3075.67 2159.8 3077.86Z" />
				</g>
				<g id="&lt;Group&gt;">
					<path id="&lt;Path&gt;" class="shp1" d="M1779.39 3169.23C1703.67 3152.23 1633.65 3119.07 1570.37 3077.96C1566.89 3075.7 1565.9 3071.05 1568.16 3067.58C1570.29 3064.3 1574.59 3063.25 1577.98 3065.04C1643.47 3099.76 1713.71 3125.3 1785.56 3134.77C1795.15 3136.04 1801.9 3144.84 1800.64 3154.43C1799.38 3164.02 1790.57 3170.78 1780.98 3169.51C1780.47 3169.44 1779.96 3169.35 1779.47 3169.24L1779.39 3169.23Z" />
				</g>
				<g id="&lt;Group&gt;">
					<g id="&lt;Group&gt;">
						<path id="&lt;Path&gt;" class="shp1" d="M1922.93 833.75L1882.19 991.93C1877.61 1009.71 1852.36 1009.71 1847.78 991.92L1807.08 833.75L1922.93 833.75Z" />
					</g>
					<g id="&lt;Group&gt;">
						<path id="&lt;Path&gt;" class="shp1" d="M1737.71 840L1756.83 973.87C1758.28 984.02 1745.19 989.37 1739.12 981.11L1642.71 850L1737.71 840Z" />
					</g>
					<g id="&lt;Group&gt;">
						<path id="&lt;Path&gt;" class="shp1" d="M1992.29 840L1973.17 973.87C1971.72 984.02 1984.81 989.37 1990.88 981.11L2087.29 850L1992.29 840Z" />
					</g>
				</g>
				<g id="&lt;Group&gt;">
					<path id="&lt;Path&gt;" class="shp6" d="M2494.1 1880.92C2429.85 1573.33 2768.33 1503.33 2838.33 1888.33C2887.35 2114.81 2803.33 2311.67 2684.62 2444.95" />
					<path id="&lt;Path&gt;" class="shp1" d="M2686.49 2446.62L2682.76 2443.29C2822.4 2286.5 2878.21 2084.42 2835.89 1888.86C2811.56 1755.07 2751.79 1662.43 2671.9 1634.6C2626.59 1618.83 2580.56 1627.4 2545.61 1658.11C2494.33 1703.16 2476.45 1784.18 2496.54 1880.41L2491.65 1881.43C2471.17 1783.39 2489.64 1700.63 2542.31 1654.35C2578.65 1622.43 2626.48 1613.51 2673.54 1629.88C2755.19 1658.31 2816.15 1752.35 2840.79 1887.89C2883.44 2084.94 2827.21 2288.62 2686.49 2446.62Z" />
				</g>
				<g id="&lt;Group&gt;">
					<path id="&lt;Path&gt;" class="shp6" d="M2684.6 2444.95L2580.95 2138.15L2494.1 1880.9C2441.65 1629.9 2657.45 1537.15 2776.65 1720.75C2776.65 1720.78 2776.67 1720.83 2776.7 1720.9C2803.55 1762.25 2825.5 1817.65 2838.35 1888.35C2887.35 2114.8 2803.35 2311.65 2684.6 2444.95Z" />
					<path id="&lt;Compound Path&gt;" fill-rule="evenodd" class="shp1" d="M2683.61 2449.82L2491.73 1881.7C2461.27 1735.99 2519.71 1655.86 2578.99 1631.44C2647.37 1603.26 2725.77 1637.78 2778.75 1719.39L2779.15 1720.11C2807.84 1764.39 2828.63 1820.93 2840.81 1887.9C2883.45 2084.96 2827.2 2288.64 2686.47 2446.62L2683.61 2449.82ZM2627.57 1626.77C2611.76 1626.77 2596.07 1629.81 2580.9 1636.06C2523.39 1659.76 2466.79 1737.97 2496.54 1880.39L2685.59 2440.06C2823.16 2283.75 2877.94 2083.11 2835.91 1888.88C2823.81 1822.31 2803.19 1766.28 2774.61 1722.26L2774.2 1721.56C2734.47 1660.68 2680.4 1626.77 2627.57 1626.77Z" />
				</g>
				<g id="&lt;Group&gt;" style="opacity: 0.6">
					<path id="&lt;Path&gt;" class="shp2" d="M2525.35 1915.05L2698.8 2428.5C2694.1 2434.1 2689.4 2439.55 2684.6 2444.95L2494.1 1880.9C2443.5 1638.6 2642.8 1543.75 2763.9 1702.65C2643 1594.45 2478.9 1692.65 2525.35 1915.05Z" />
				</g>
				<g id="&lt;Group&gt;" style="opacity: 0.302">
					<path id="&lt;Path&gt;" class="shp1" d="M2684.6 2444.95L2580.95 2138.15C2610.95 2056.75 2651.75 1980.7 2703.3 1954.95C2827.9 1892.6 2778.4 1726.4 2776.7 1720.9C2803.55 1762.25 2825.5 1817.65 2838.35 1888.35C2887.35 2114.8 2803.35 2311.65 2684.6 2444.95Z" />
				</g>
				<g id="&lt;Group&gt;">
					<path id="&lt;Path&gt;" class="shp2" d="M1658.1 1824.8C1724.6 1821 1793.85 1819 1865 1819C2368.5 1819 2776.65 1919.35 2776.65 2043.15L2776.65 2043.2C2776.65 3145.6 953.35 3145.6 953.35 2043.2L953.35 2043.15C953.35 2009.25 983.95 1977.15 1038.65 1948.35" />
				</g>
				<g id="&lt;Group&gt;">
					<path id="&lt;Path&gt;" class="shp2" d="M2776.65 2043.15L2776.65 2043.2C2776.65 2922.66 1616.25 3100.51 1146.95 2576.76C1027.9 2444.01 953.35 2266.16 953.35 2043.2L953.35 2043.15C953.35 2009.25 983.95 1977.15 1038.65 1948.35L1658.1 1824.8C1724.6 1821 1793.85 1819 1865 1819C2262.55 1819 2600.7 1881.55 2725.35 1968.85C2758.6 1992.1 2776.65 2017.1 2776.65 2043.15Z" />
				</g>
				<g id="&lt;Group&gt;">
					<path id="&lt;Path&gt;" class="shp2" d="M1105.87 2151.95C815 1523.33 1480 1586.67 1581.62 2059.8" />
				</g>
				<g id="&lt;Group&gt;">
					<path id="&lt;Path&gt;" class="shp2" d="M1307.23 1714.3C1386.88 1383.16 1703.33 1535.19 1665.3 2045.88" />
				</g>
				<g id="&lt;Group&gt;">
					<path id="&lt;Path&gt;" class="shp1" d="M1865 2887.5C1622.19 2887.5 1395.7 2812.72 1227.26 2676.92C1036.62 2523.24 935.85 2304.1 935.85 2043.2C935.85 2003.04 967.69 1965.93 1030.49 1932.87L1046.8 1963.83C997.12 1990 970.85 2017.42 970.85 2043.15C970.85 2599.24 1434.35 2852.5 1865 2852.5C2295.65 2852.5 2759.15 2599.24 2759.15 2043.2C2759.15 1945.41 2391.94 1836.5 1865 1836.5C1795.43 1836.5 1726.15 1838.44 1659.1 1842.27L1657.11 1807.33C1724.82 1803.46 1794.76 1801.5 1865 1801.5C2109.88 1801.5 2340.3 1825 2513.82 1867.66C2641.71 1899.1 2794.15 1955.07 2794.15 2043.15C2794.15 2304.1 2693.39 2523.24 2502.75 2676.92C2334.3 2812.72 2107.81 2887.5 1865 2887.5Z" />
				</g>
				<g id="&lt;Group&gt;">
					<path id="&lt;Path&gt;" class="shp7" d="M1236.58 2026.55C1106.35 1718.72 1389.64 1752.92 1473.04 1990.92" />
					<path id="&lt;Path&gt;" class="shp1" d="M1234.27 2027.52C1195.17 1935.09 1189.73 1863.79 1218.94 1826.77C1235.12 1806.26 1261.27 1797.82 1292.57 1803.07C1352.57 1813.09 1435.37 1875.89 1475.39 1990.09L1470.68 1991.74C1431.33 1879.46 1350.34 1817.78 1291.74 1808C1262.36 1803.09 1237.87 1810.85 1222.86 1829.87C1194.83 1865.4 1200.52 1934.89 1238.88 2025.57L1234.27 2027.52Z" />
				</g>
				<g id="&lt;Group&gt;">
					<path id="&lt;Path&gt;" class="shp7" d="M1597.07 1780.09C1620.14 1854.62 1612.54 1923.18 1580.11 1933.22C1547.68 1943.25 1502.69 1890.97 1479.62 1816.43C1456.56 1741.9 1464.15 1673.34 1496.58 1663.3C1529.01 1653.26 1574 1705.55 1597.07 1780.09Z" />
					<path id="&lt;Compound Path&gt;" fill-rule="evenodd" class="shp1" d="M1571.69 1936.98C1538.83 1936.98 1499 1887.49 1477.24 1817.17C1465.98 1780.8 1461.57 1744.66 1464.81 1715.4C1468.13 1685.43 1479.15 1666.08 1495.85 1660.91C1512.49 1655.75 1532.56 1665.48 1552.23 1688.35C1571.43 1710.66 1588.2 1742.97 1599.46 1779.35C1623.29 1856.36 1615.12 1925 1580.85 1935.61C1577.87 1936.53 1574.81 1936.98 1571.69 1936.98ZM1504.95 1664.56C1502.32 1664.56 1499.77 1664.93 1497.32 1665.69C1482.65 1670.23 1472.86 1688.08 1469.78 1715.95C1466.61 1744.54 1470.96 1779.96 1482.01 1815.69C1504.63 1888.78 1548.21 1940.4 1579.38 1930.83C1610.44 1921.22 1617.31 1853.92 1594.68 1780.82C1583.62 1745.09 1567.2 1713.41 1548.44 1691.61C1533.21 1673.9 1518.06 1664.56 1504.95 1664.56Z" />
				</g>
				<g id="&lt;Group&gt;">
					<g id="&lt;Group&gt;">
						<path id="&lt;Path&gt;" class="shp7" d="M2046.6 1819L1895.8 1956.1L1665.3 2045.9L1668.45 1932.5C1660.5 1861.8 1662.3 1799.45 1665.85 1756.05C1668.9 1718.35 1665.5 1680.35 1654.75 1644.05C1654.6 1643.55 1654.45 1643 1654.3 1642.5C1640.57 1597.1 1636.7 1558.52 1642.7 1526.75C1708.67 1562.25 1782.77 1551.12 1865 1493.35C1902.47 1557.02 1950.9 1576.97 2010.3 1553.2C2030.5 1597.3 2035.95 1634.75 2037 1669.65C2038.55 1720.5 2030.95 1765.95 2046.6 1819Z" />
						<path id="&lt;Compound Path&gt;" fill-rule="evenodd" class="shp1" d="M1662.7 2049.6L1665.95 1932.43C1657.79 1860.11 1660.04 1796.46 1663.36 1755.85C1666.47 1717.31 1662.77 1679.94 1652.35 1644.76L1651.91 1643.23C1631.36 1575.32 1640.15 1526.77 1640.25 1526.28L1640.88 1522.93L1643.88 1524.55C1644.87 1525.07 1743.01 1575.99 1863.57 1491.3L1865.78 1489.75L1867.16 1492.08C1867.71 1493.02 1923.3 1585.3 2009.37 1550.88L2011.58 1550L2012.57 1552.16C2034.76 1600.61 2038.62 1640.36 2039.5 1669.58C2039.94 1684.06 2039.64 1698.24 2039.35 1711.96C2038.6 1747.29 2037.9 1780.66 2049 1818.29L2049.44 1819.8L1896.71 1958.43L1662.7 2049.6ZM1644.68 1530.45C1643.17 1542.24 1639.53 1585.05 1656.69 1641.78L1657.15 1643.35C1667.74 1679.11 1671.51 1717.1 1668.34 1756.25C1665.04 1796.64 1662.81 1859.95 1670.93 1932.22L1667.9 2042.2L1894.46 1953.94L2043.76 1818.2C2032.9 1780.44 2033.61 1747.11 2034.35 1711.86C2034.64 1698.2 2034.94 1684.08 2034.5 1669.73C2033.65 1641.41 2029.96 1603.05 2009 1556.39C1928 1587.01 1873.66 1511.21 1864.29 1496.89C1754.26 1572.91 1662.6 1538.47 1644.68 1530.45Z" />
					</g>
				</g>
				<g id="&lt;Group&gt;">
					<path id="&lt;Path&gt;" class="shp1" d="M1734.54 1571.52C1714.29 1571.52 1693.82 1568.24 1673.85 1561.47C1613.88 1541.15 1574.74 1493.05 1571.69 1435.93C1571.18 1426.28 1578.58 1418.04 1588.23 1417.52C1597.9 1417.03 1606.12 1424.42 1606.64 1434.07C1608.94 1477.22 1638.27 1512.46 1685.08 1528.33C1730.52 1543.71 1801.44 1540.83 1851.69 1481.97C1855.02 1478.08 1859.88 1475.84 1865 1475.84C1870.12 1475.84 1874.99 1478.08 1878.31 1481.97C1928.56 1540.82 1999.46 1543.71 2044.92 1528.33C2091.73 1512.46 2121.06 1477.23 2123.36 1434.07C2123.87 1424.42 2132.15 1417.03 2141.76 1417.52C2151.42 1418.04 2158.82 1426.28 2158.31 1435.93C2155.26 1493.05 2116.12 1541.15 2056.15 1561.47C1988.79 1584.28 1915.76 1567.49 1865 1518.8C1829.29 1553.05 1782.56 1571.52 1734.54 1571.52Z" />
				</g>
				<g id="&lt;Group&gt;">
					<path id="&lt;Path&gt;" class="shp7" d="M2481.35 2041.25L2481.35 2041.2C2447.95 1896.5 2318.35 1788.65 2163.55 1788.65C2044.65 1788.65 1940.55 1852.3 1883.6 1947.4L2140.83 2130.88L2481.35 2041.25Z" />
					<path id="&lt;Compound Path&gt;" fill-rule="evenodd" class="shp1" d="M2140.33 2133.6L1880.27 1948.09L1881.46 1946.11C1940.54 1847.44 2048.63 1786.15 2163.55 1786.15C2317.52 1786.15 2449.2 1890.8 2483.79 2040.64L2483.85 2041.2L2483.85 2043.13L2481.98 2043.67L2140.33 2133.6ZM1886.94 1946.71L2141.33 2128.17L2478.37 2039.45C2443.49 1893.13 2314.38 1791.15 2163.55 1791.15C2051.15 1791.15 1945.38 1850.69 1886.94 1946.71Z" />
				</g>
				<g id="&lt;Group&gt;" style="opacity: 0.6">
					<path id="&lt;Path&gt;" class="shp2" d="M1903.72 1777.37L1903.72 1777.37C1932.28 1775.05 1957.2 1796.59 1959.03 1825.18L1959.88 1838.39C1961.78 1867.94 1938.33 1892.94 1908.72 1892.94L1907.5 1892.94C1878.62 1892.94 1855.44 1869.1 1856.26 1840.23L1856.63 1827.02C1857.37 1800.88 1877.66 1779.49 1903.72 1777.37Z" />
				</g>
				<g id="&lt;Group&gt;" style="opacity: 0.6">
					<path id="&lt;Path&gt;" class="shp2" d="M2040.05 1812.9C2005.95 1826.8 1974.75 1846.4 1947.6 1870.5C1945.15 1864.3 1943.9 1857.55 1944.1 1850.45L1944.45 1837.2C1945.2 1811.1 1965.5 1789.7 1991.55 1787.55C2011.9 1785.9 2030.4 1796.4 2040.05 1812.9Z" />
				</g>
				<g id="&lt;Group&gt;">
					<path id="&lt;Compound Path&gt;" class="shp7" d="M1564.25 2259.2C1571.7 2085.7 1714.7 1947.3 1890.05 1947.3C2063.6 1947.3 2205.45 2082.85 2215.6 2253.8M2114.7 2263.8C2083.95 2266.3 2052.4 2268.3 2020.2 2269.85C1969.95 2272.3 1918.1 2273.55 1865 2273.55C1829.4 2273.55 1794.3 2273 1759.9 2271.9C1727.75 2270.85 1696.15 2269.35 1665.3 2267.4" />
					<path id="&lt;Compound Path&gt;" class="shp1" d="M1865 2276.05C1829.52 2276.05 1794.14 2275.49 1759.82 2274.4C1727.6 2273.35 1695.75 2271.83 1665.14 2269.89L1665.46 2264.9C1696.01 2266.84 1727.81 2268.35 1759.98 2269.4C1794.24 2270.49 1829.58 2271.05 1865 2271.05C1917.59 2271.05 1969.77 2269.81 2020.08 2267.35C2052.67 2265.79 2084.44 2263.75 2114.5 2261.31L2114.9 2266.29C2084.79 2268.74 2052.97 2270.78 2020.32 2272.34C1969.93 2274.81 1917.67 2276.05 1865 2276.05ZM1566.75 2259.31L1561.75 2259.09C1569.32 2082.85 1713.53 1944.8 1890.05 1944.8C2063.72 1944.8 2207.81 2080.46 2218.1 2253.65L2213.11 2253.95C2202.98 2083.4 2061.08 1949.8 1890.05 1949.8C1716.21 1949.8 1574.2 2085.75 1566.75 2259.31Z" />
				</g>
				<g id="&lt;Group&gt;">
					<path id="&lt;Path&gt;" class="shp7" d="M2156.8 2085.75C2179.1 2054.5 2209.2 2029.15 2244.3 2012.6C2273.35 1998.9 2305.8 1991.25 2340.05 1991.25C2343.95 1991.25 2347.8 1991.35 2351.6 1991.55C2400.65 1994.05 2445.55 2012.2 2481.35 2041.2L2481.35 2041.25C2522.3 2074.35 2551.35 2121.55 2561.15 2175.5C2313.32 2270.51 2052.89 2293.43 1786.67 2282.3C1637.34 2276.06 1486.23 2270.63 1334.38 2233.18C1265.32 2216.14 1205.37 2182.65 1135.55 2160.25C1167.3 2049.7 1269.15 1968.85 1389.95 1968.85C1536.15 1968.85 1654.65 2087.35 1654.65 2233.55C1654.65 2244.75 1653.95 2255.75 1652.6 2266.55" />
					<path id="&lt;Path&gt;" class="shp1" d="M1907.59 2287.4C1868.26 2287.4 1827.97 2286.53 1786.56 2284.8L1774.51 2284.3C1630.61 2278.31 1481.8 2272.11 1333.78 2235.6C1294.14 2225.83 1258.33 2211 1220.42 2195.3C1192.98 2183.95 1164.61 2172.2 1134.79 2162.63L1132.48 2161.89L1133.15 2159.56C1165.82 2045.8 1271.42 1966.35 1389.95 1966.35C1537.28 1966.35 1657.15 2086.22 1657.15 2233.55C1657.15 2244.69 1656.45 2255.89 1655.08 2266.86L1650.12 2266.24C1651.47 2255.48 1652.15 2244.48 1652.15 2233.55C1652.15 2088.97 1534.53 1971.35 1389.95 1971.35C1274.45 1971.35 1171.46 2048.23 1138.63 2158.62C1167.8 2168.11 1195.51 2179.58 1222.33 2190.68C1260.06 2206.3 1295.7 2221.06 1334.98 2230.75C1482.51 2267.13 1631.06 2273.32 1774.72 2279.3L1786.77 2279.8C2090.63 2292.52 2335.84 2258.85 2558.31 2173.91C2548.49 2122.59 2520.66 2076.24 2479.78 2043.19L2478.85 2042.4C2442.36 2013.15 2398.34 1996.44 2351.47 1994.04C2347.71 1993.85 2343.91 1993.75 2340.05 1993.75C2306.94 1993.75 2275.07 2000.85 2245.36 2014.86C2210.94 2031.09 2181.02 2056.11 2158.83 2087.2L2154.76 2084.3C2177.45 2052.51 2208.04 2026.93 2243.23 2010.34C2273.62 1996.01 2306.19 1988.75 2340.05 1988.75C2344 1988.75 2347.89 1988.85 2351.73 1989.05C2400.05 1991.51 2445.42 2008.88 2482.92 2039.26L2483.85 2040.06C2525.69 2074.24 2554 2122.13 2563.61 2175.05L2563.98 2177.09L2562.04 2177.83C2368.71 2251.95 2158.36 2287.4 1907.59 2287.4Z" />
				</g>
				<g id="&lt;Group&gt;" style="opacity: 0.6">
					<path id="&lt;Path&gt;" class="shp2" d="M1789.06 2027.89L1789.06 2027.89C1796.61 2047.91 1818.21 2058.6 1838.82 2052.84C1852.3 2049.07 1868.9 2045.99 1887.27 2045.91C1908.39 2045.82 1926.02 2029.75 1927.99 2008.71L1928.05 2008.07C1930.39 1982.97 1909.81 1961.83 1884.64 1963.28C1866.16 1964.34 1843.23 1967.16 1817.55 1973.55C1793.72 1979.48 1780.4 2004.91 1789.06 2027.89Z" />
				</g>
				<g id="&lt;Group&gt;" style="opacity: 0.6">
					<path id="&lt;Path&gt;" class="shp2" d="M1796.74 2128.21C1804.3 2148.24 1825.89 2158.92 1846.5 2153.17C1859.98 2149.4 1876.58 2146.31 1894.95 2146.23C1916.07 2146.14 1933.71 2130.07 1935.67 2109.03L1935.73 2108.4C1938.07 2083.3 1917.49 2062.16 1892.32 2063.6C1873.85 2064.66 1850.91 2067.49 1825.23 2073.88C1801.41 2079.81 1788.08 2105.24 1796.74 2128.21Z" />
				</g>
				<g id="&lt;Group&gt;" style="opacity: 0.6">
					<path id="&lt;Path&gt;" class="shp2" d="M1815.34 2217.07L1815.34 2217.07C1822.9 2237.09 1844.49 2247.78 1865.1 2242.02C1878.58 2238.25 1895.18 2235.17 1913.55 2235.09C1934.67 2234.99 1952.31 2218.92 1954.27 2197.89L1954.33 2197.25C1956.67 2172.15 1936.09 2151.01 1910.92 2152.46C1892.44 2153.52 1869.51 2156.34 1843.83 2162.73C1820.01 2168.66 1806.68 2194.09 1815.34 2217.07Z" />
				</g>
				<g id="&lt;Group&gt;" style="opacity: 0.6">
					<path id="&lt;Path&gt;" class="shp2" d="M2092.88 1854.3L2092.88 1854.3C2096.16 1875.44 2115.11 1890.34 2136.46 1888.93C2150.42 1888.02 2167.3 1888.41 2185.29 1892.1C2205.99 1896.35 2226.54 1884.24 2232.79 1864.06L2232.98 1863.44C2240.42 1839.36 2224.62 1814.44 2199.69 1810.69C2181.39 1807.93 2158.37 1805.99 2131.92 1806.97C2107.39 1807.88 2089.12 1830.03 2092.88 1854.3Z" />
				</g>
				<g id="&lt;Group&gt;" style="opacity: 0.6">
					<path id="&lt;Path&gt;" class="shp2" d="M2103.05 1946.28L2103.05 1946.28C2106.33 1967.43 2125.27 1982.33 2146.62 1980.92C2160.59 1980 2177.47 1980.39 2195.46 1984.09C2216.15 1988.33 2236.71 1976.23 2242.95 1956.04L2243.14 1955.43C2250.59 1931.35 2234.78 1906.43 2209.86 1902.68C2191.56 1899.92 2168.53 1897.98 2142.09 1898.96C2117.55 1899.87 2099.29 1922.02 2103.05 1946.28Z" />
				</g>
				<g id="&lt;Group&gt;" style="opacity: 0.6">
					<path id="&lt;Path&gt;" class="shp2" d="M2288.12 2050.89L2288.12 2050.89C2290.32 2072.17 2308.49 2088 2329.89 2087.68C2343.88 2087.47 2360.72 2088.72 2378.5 2093.31C2398.95 2098.6 2420.09 2087.55 2427.35 2067.7L2427.57 2067.1C2436.23 2043.43 2421.7 2017.74 2397 2012.73C2378.86 2009.06 2355.96 2005.95 2329.5 2005.59C2304.95 2005.26 2285.59 2026.46 2288.12 2050.89Z" />
				</g>
				<g id="&lt;Group&gt;" style="opacity: 0.6">
					<path id="&lt;Path&gt;" class="shp2" d="M2268.85 2151.51L2268.85 2151.51C2271.06 2172.79 2289.22 2188.63 2310.62 2188.31C2324.61 2188.1 2341.45 2189.34 2359.23 2193.94C2379.69 2199.22 2400.83 2188.17 2408.08 2168.33L2408.3 2167.73C2416.96 2144.05 2402.43 2118.37 2377.73 2113.36C2359.59 2109.68 2336.7 2106.58 2310.24 2106.22C2285.68 2105.89 2266.32 2127.09 2268.85 2151.51Z" />
				</g>
				<g id="&lt;Group&gt;">
					<path id="&lt;Path&gt;" class="shp1" d="M1865 2297.3C1829.39 2297.3 1793.87 2296.74 1759.42 2295.64C1727.07 2294.59 1695.08 2293.06 1664.35 2291.12C1628.64 2288.85 1594.45 2286.08 1562.74 2282.87C1349.44 2261.73 1179.9 2218.57 1097.61 2164.48C1097.44 2164.37 1097.28 2164.26 1097.12 2164.14C1058.35 2138.51 1038.7 2110.43 1038.7 2080.65C1038.7 2066.86 1043.03 2053.19 1051.57 2040.03L1076.74 2056.37C1071.4 2064.58 1068.7 2072.75 1068.7 2080.65C1068.7 2104.51 1093.36 2125.75 1114.04 2139.37C1114.2 2139.47 1114.36 2139.58 1114.51 2139.69C1193.04 2191.07 1357.44 2232.37 1565.73 2253.02C1597.1 2256.19 1630.91 2258.94 1666.25 2261.18C1696.68 2263.11 1728.35 2264.61 1760.39 2265.66C1794.51 2266.75 1829.71 2267.3 1865 2267.3C1917.39 2267.3 1969.36 2266.06 2019.47 2263.62C2051.94 2262.06 2083.56 2260.03 2113.48 2257.6C2147.63 2254.84 2181.39 2251.5 2213.83 2247.65C2522.94 2210.8 2661.3 2137.22 2661.3 2080.65C2661.3 2036.56 2579.32 1989.33 2441.99 1954.3C2437 1953.03 2431.95 1951.77 2426.82 1950.53L2433.88 1921.37C2439.12 1922.64 2444.3 1923.93 2449.41 1925.23C2559.76 1953.38 2691.3 2003.19 2691.3 2080.65C2691.3 2168.49 2514.13 2242.06 2217.38 2277.44C2184.55 2281.33 2150.41 2284.72 2115.91 2287.5C2085.66 2289.96 2053.7 2292.01 2020.92 2293.58C1970.34 2296.05 1917.88 2297.3 1865 2297.3Z" />
				</g>
				<g id="&lt;Group&gt;">
					<path id="&lt;Path&gt;" class="shp1" d="M2215.59 2277.55C2207.71 2277.55 2201.1 2271.41 2200.63 2263.44C2190.89 2099.48 2054.47 1971.05 1890.05 1971.05C1784.17 1971.05 1686.52 2024.16 1628.84 2113.11C1624.33 2120.06 1615.04 2122.04 1608.09 2117.54C1601.14 2113.03 1599.16 2103.74 1603.66 2096.79C1666.9 1999.27 1773.96 1941.05 1890.05 1941.05C2070.32 1941.05 2219.9 2081.88 2230.58 2261.66C2231.07 2269.93 2224.76 2277.03 2216.49 2277.52C2216.19 2277.54 2215.89 2277.55 2215.59 2277.55Z" />
				</g>
				<g id="&lt;Group&gt;">
					<path id="&lt;Path&gt;" class="shp1" d="M1665.31 2291.15C1665.17 2291.15 1665.04 2291.15 1664.9 2291.14C1656.62 2290.92 1650.08 2284.03 1650.3 2275.75C1651.98 2213.05 1677.66 2154.38 1722.61 2110.53C1767.65 2066.59 1827.12 2042.4 1890.05 2042.4C2019 2042.4 2124.25 2143.21 2129.68 2271.92C2130.04 2280.2 2123.61 2287.19 2115.33 2287.53C2106.9 2287.89 2100.06 2281.46 2099.71 2273.18C2094.96 2160.59 2002.87 2072.4 1890.05 2072.4C1775.5 2072.4 1683.36 2162.07 1680.29 2276.55C1680.07 2284.69 1673.41 2291.15 1665.31 2291.15Z" />
				</g>
				<g id="&lt;Group&gt;">
					<path id="&lt;Path&gt;" class="shp1" d="M1759.9 2295.65C1759.85 2295.65 1759.79 2295.65 1759.73 2295.65C1751.45 2295.56 1744.81 2288.77 1744.9 2280.48C1745.79 2201.34 1810.91 2136.95 1890.05 2136.95C1969.35 2136.95 2033.11 2198.99 2035.2 2278.2C2035.42 2286.48 2028.88 2293.37 2020.6 2293.59C2012.39 2294.01 2005.42 2287.28 2005.21 2278.99C2003.55 2216.16 1952.97 2166.95 1890.05 2166.95C1827.26 2166.95 1775.6 2218.03 1774.9 2280.82C1774.81 2289.04 1768.11 2295.65 1759.9 2295.65Z" />
				</g>
				<g id="&lt;Group&gt;">
					<path id="&lt;Path&gt;" class="shp1" d="M2481.35 2064.98C2474.01 2064.98 2467.9 2059.72 2466.6 2052.76C2433.66 1911.22 2309.12 1812.4 2163.55 1812.4C2054.75 1812.4 1952.41 1870.43 1896.47 1963.85C1892.21 1970.96 1883 1973.28 1875.9 1969.02C1868.79 1964.76 1866.48 1955.55 1870.73 1948.44C1932.06 1846.02 2044.26 1782.4 2163.55 1782.4C2241.14 1782.4 2317.08 1809.15 2377.38 1857.73C2436.79 1905.58 2478.9 1972.65 2495.96 2046.58C2496.22 2047.69 2496.35 2048.81 2496.35 2049.95C2496.35 2058.24 2489.64 2064.98 2481.35 2064.98Z" />
				</g>
				<g id="&lt;Group&gt;">
					<path id="&lt;Path&gt;" class="shp1" d="M2351.61 2015.3C2346.73 2015.3 2341.94 2012.92 2339.05 2008.53C2300.1 1949.15 2234.49 1913.7 2163.55 1913.7C2103.96 1913.7 2046.95 1939.2 2007.12 1983.66C2001.6 1989.83 1992.12 1990.36 1985.94 1984.82C1979.77 1979.29 1979.25 1969.81 1984.78 1963.64C2030.28 1912.84 2095.44 1883.7 2163.55 1883.7C2244.64 1883.7 2319.63 1924.21 2364.14 1992.07C2368.68 1999 2366.75 2008.3 2359.83 2012.84C2357.29 2014.5 2354.44 2015.3 2351.61 2015.3Z" />
				</g>
				<g id="&lt;Group&gt;">
					<path id="&lt;Path&gt;" class="shp1" d="M2244.29 2036.35C2241.02 2036.35 2237.74 2035.29 2234.98 2033.1C2214.47 2016.85 2189.77 2008.25 2163.55 2008.25C2137.95 2008.25 2113.7 2016.49 2093.45 2032.09C2086.89 2037.14 2077.46 2035.92 2072.41 2029.35C2067.36 2022.78 2068.59 2013.37 2075.15 2008.32C2100.7 1988.65 2131.27 1978.25 2163.55 1978.25C2196.61 1978.25 2227.76 1989.09 2253.62 2009.6C2260.11 2014.74 2261.2 2024.18 2256.05 2030.66C2253.09 2034.4 2248.71 2036.35 2244.29 2036.35Z" />
				</g>
				<g id="&lt;Group&gt;">
					<path id="&lt;Path&gt;" class="shp1" d="M2561.13 2199.25C2554.02 2199.25 2547.71 2194.18 2546.39 2186.93C2537.46 2137.75 2511.01 2093.26 2471.92 2061.67C2471.65 2061.45 2471.38 2061.22 2471.12 2060.98C2436.67 2033.33 2395.1 2017.53 2350.84 2015.28C2347.27 2015.09 2343.68 2015 2340.05 2015C2308.79 2015 2278.73 2021.7 2250.7 2034.92C2218.2 2050.24 2189.96 2073.86 2169.01 2103.21C2164.2 2109.95 2154.83 2111.53 2148.09 2106.71C2141.34 2101.9 2139.78 2092.53 2144.59 2085.79C2168.51 2052.26 2200.78 2025.29 2237.9 2007.78C2269.97 1992.67 2304.33 1985 2340.05 1985C2344.22 1985 2348.33 1985.1 2352.39 1985.32C2403.35 1987.92 2451.22 2006.24 2490.79 2038.3C2491.08 2038.53 2491.34 2038.77 2491.61 2039.01C2535.83 2075.08 2565.75 2125.66 2575.91 2181.57C2577.39 2189.72 2571.98 2197.52 2563.83 2199.01C2562.92 2199.17 2562.02 2199.25 2561.13 2199.25Z" />
				</g>
				<g id="&lt;Group&gt;">
					<path id="&lt;Path&gt;" class="shp1" d="M2480.74 2226.95C2474.28 2226.95 2468.32 2222.74 2466.37 2216.24C2465.6 2213.64 2464.74 2211.05 2463.82 2208.49C2448.72 2166.32 2414.05 2133.73 2371.09 2121.31C2342.36 2112.95 2311.14 2114.12 2283.33 2124.46C2253.39 2135.56 2227.92 2156.81 2211.6 2184.31C2207.37 2191.43 2198.18 2193.79 2191.04 2189.55C2183.92 2185.32 2181.57 2176.12 2185.8 2168.99C2205.61 2135.61 2236.54 2109.81 2272.89 2096.33C2291.75 2089.32 2311.65 2085.75 2332 2085.75C2348.09 2085.75 2364.05 2088.02 2379.44 2092.5C2431.61 2107.57 2473.73 2147.16 2492.07 2198.39C2493.17 2201.46 2494.2 2204.56 2495.12 2207.66C2497.49 2215.6 2492.98 2223.95 2485.04 2226.32C2483.61 2226.75 2482.16 2226.95 2480.74 2226.95Z" />
				</g>
				<g id="&lt;Group&gt;">
					<path id="&lt;Path&gt;" class="shp4" d="M1887.05 1658.6L2507.2 1705.55C2493.85 1733.05 2486.05 1767.15 2486.05 1807L1879.55 1737.85C1858 1735.4 1842.4 1716.15 1844.4 1694.6C1846.35 1674 1863.65 1658.5 1884 1658.5C1885 1658.5 1886 1658.5 1887.05 1658.6Z" />
					<path id="&lt;Compound Path&gt;" fill-rule="evenodd" class="shp5" d="M2488.7 1809.97L1879.24 1740.49C1856.45 1737.9 1839.64 1717.2 1841.76 1694.36C1843.83 1672.4 1861.99 1655.85 1884 1655.85C1885.07 1655.85 1886.14 1655.85 1887.27 1655.95L2511.29 1703.2L2509.59 1706.71C2495.73 1735.25 2488.7 1768.99 2488.7 1807L2488.7 1809.97ZM1884.2 1661.15C1884.14 1661.15 1884.07 1661.15 1884 1661.15C1864.75 1661.15 1848.86 1675.64 1847.04 1694.85C1845.19 1714.83 1859.9 1732.94 1879.85 1735.22L2483.41 1804.02C2483.76 1767.95 2490.39 1735.65 2503.15 1707.91L1886.8 1661.24C1885.91 1661.16 1885.06 1661.15 1884.2 1661.15Z" />
				</g>
				<g id="&lt;Group&gt;" style="opacity: 0.6">
					<path id="&lt;Path&gt;" class="shp2" d="M1884 1688.5C1885 1688.5 1886 1688.5 1887.05 1688.6L2494.55 1734.59C2497.89 1722.33 2502.14 1710.96 2507.2 1700.55L1887.05 1653.6C1886 1653.5 1885 1653.5 1884 1653.5C1863.65 1653.5 1846.35 1669 1844.4 1689.6C1843.7 1697.15 1845.2 1704.41 1848.32 1710.77C1854.87 1697.45 1868.55 1688.5 1884 1688.5Z" />
				</g>
				<g id="&lt;Group&gt;">
					<path id="&lt;Path&gt;" class="shp4" d="M3266.9 1829.35C3263.8 1863.05 3235.4 1888.25 3202.3 1888.25C3199.85 1888.25 3197.4 1888.15 3194.9 1887.85L2829.15 1846.15C2816.85 1797.9 2799.9 1758.1 2780.1 1726.2L3207.15 1758.55C3243.35 1761.25 3270.3 1793.15 3266.9 1829.35Z" />
					<path id="&lt;Compound Path&gt;" fill-rule="evenodd" class="shp5" d="M3202.3 1890.9C3199.41 1890.9 3196.95 1890.77 3194.59 1890.49L2827.03 1848.57L2826.58 1846.8C2814.9 1800.99 2798.5 1760.88 2777.84 1727.6L2775.09 1723.16L3207.35 1755.9C3225.57 1757.26 3242.1 1765.7 3253.89 1779.66C3265.7 1793.64 3271.25 1811.37 3269.54 1829.6C3266.33 1864.55 3237.42 1890.9 3202.3 1890.9ZM2831.27 1843.72L3195.2 1885.22C3197.37 1885.47 3199.63 1885.6 3202.3 1885.6C3234.66 1885.6 3261.3 1861.31 3264.26 1829.11L3264.26 1829.1C3265.84 1812.31 3260.71 1795.96 3249.84 1783.09C3238.97 1770.22 3223.74 1762.45 3206.95 1761.2L2785.06 1729.24C2804.47 1761.65 2820 1800.12 2831.27 1843.72Z" />
				</g>
				<g id="&lt;Group&gt;" style="opacity: 0.6">
					<path id="&lt;Path&gt;" class="shp2" d="M3202.15 1758.55L2775.1 1726.2C2781.03 1735.76 2786.67 1746.11 2792.04 1757.1L3207.15 1788.55C3232.17 1790.41 3252.75 1806.23 3261.97 1827.77C3264.45 1792.23 3237.82 1761.21 3202.15 1758.55Z" />
				</g>
				<g id="&lt;Group&gt;">
					<path id="&lt;Path&gt;" class="shp1" d="M3202.3 1905.75C3198.88 1905.75 3195.78 1905.58 3192.83 1905.23L2827.17 1863.54C2817.57 1862.44 2810.67 1853.77 2811.76 1844.17C2812.86 1834.57 2821.49 1827.68 2831.13 1828.76L3196.88 1870.46C3198.56 1870.66 3200.25 1870.75 3202.3 1870.75C3226.94 1870.75 3247.22 1852.27 3249.47 1827.75C3250.68 1814.92 3246.78 1802.48 3238.5 1792.67C3230.22 1782.87 3218.63 1776.95 3205.85 1776L2778.78 1743.65C2769.14 1742.92 2761.92 1734.52 2762.65 1724.88C2763.38 1715.24 2771.74 1707.99 2781.42 1708.75L3208.47 1741.1C3230.68 1742.76 3250.85 1753.05 3265.24 1770.08C3279.63 1787.13 3286.41 1808.76 3284.32 1830.99C3280.4 1873.59 3245.14 1905.75 3202.3 1905.75Z" />
				</g>
				<g id="&lt;Group&gt;">
					<path id="&lt;Path&gt;" class="shp1" d="M2486.07 1824.5C2485.41 1824.5 2484.74 1824.47 2484.07 1824.39L1877.57 1755.24C1846.81 1751.74 1824.11 1723.81 1826.97 1692.98C1829.78 1663.34 1854.29 1641 1884 1641C1885.53 1641 1887.06 1641.03 1888.67 1641.17L2508.52 1688.1C2518.16 1688.83 2525.38 1697.24 2524.65 1706.88C2523.92 1716.51 2515.58 1723.67 2505.88 1723L1885.72 1676.05C1884.94 1675.98 1884.46 1676 1884 1676C1872.45 1676 1862.92 1684.71 1861.82 1696.25C1860.71 1708.22 1869.55 1719.1 1881.53 1720.46L2488.03 1789.61C2497.64 1790.71 2504.53 1799.38 2503.44 1808.98C2502.42 1817.92 2494.85 1824.5 2486.07 1824.5Z" />
				</g>
				<g id="&lt;Group&gt;" style="opacity: 0.6">
					<path id="&lt;Path&gt;" class="shp2" d="M1333.46 2026.17L1333.46 2026.17C1335.78 2047.44 1354.03 2063.17 1375.43 2062.73C1389.42 2062.44 1406.27 2063.59 1424.07 2068.09C1444.55 2073.27 1465.63 2062.1 1472.78 2042.22L1472.99 2041.61C1481.52 2017.89 1466.85 1992.29 1442.12 1987.41C1423.96 1983.84 1401.05 1980.86 1374.59 1980.65C1350.04 1980.45 1330.79 2001.76 1333.46 2026.17Z" />
				</g>
				<g id="&lt;Group&gt;" style="opacity: 0.6">
					<path id="&lt;Path&gt;" class="shp2" d="M1345.86 2104.42C1348.19 2125.69 1366.44 2141.42 1387.83 2140.98C1401.83 2140.69 1418.67 2141.85 1436.48 2146.34C1456.96 2151.52 1478.04 2140.35 1485.19 2120.47L1485.4 2119.86C1493.93 2096.14 1479.26 2070.54 1454.53 2065.67C1436.37 2062.09 1413.46 2059.11 1387 2058.9C1362.44 2058.7 1343.2 2080.01 1345.86 2104.42Z" />
				</g>
				<g id="&lt;Group&gt;" style="opacity: 0.6">
					<path id="&lt;Path&gt;" class="shp2" d="M1338.2 2176.41C1340.52 2197.68 1358.78 2213.41 1380.17 2212.97C1394.16 2212.68 1411.01 2213.83 1428.81 2218.33C1449.3 2223.51 1470.38 2212.34 1477.52 2192.46L1477.74 2191.85C1486.26 2168.13 1471.6 2142.53 1446.86 2137.65C1428.71 2134.08 1405.79 2131.1 1379.33 2130.89C1354.78 2130.69 1335.53 2152 1338.2 2176.41Z" />
				</g>
				<g id="&lt;Group&gt;">
					<path id="&lt;Path&gt;" class="shp1" d="M1652.62 2290.3C1651.99 2290.3 1651.37 2290.26 1650.73 2290.18C1642.52 2289.15 1636.69 2281.66 1637.72 2273.43C1639 2263.19 1639.65 2252.72 1639.65 2242.3C1639.65 2104.61 1527.63 1992.6 1389.95 1992.6C1279.18 1992.6 1180.5 2066.84 1149.97 2173.14C1147.68 2181.1 1139.35 2185.69 1131.41 2183.42C1123.44 2181.13 1118.84 2172.82 1121.13 2164.86C1155.33 2045.77 1265.88 1962.6 1389.95 1962.6C1544.18 1962.6 1669.65 2088.07 1669.65 2242.3C1669.65 2253.96 1668.92 2265.68 1667.48 2277.16C1666.53 2284.75 1660.07 2290.3 1652.62 2290.3Z" />
				</g>
				<g id="&lt;Group&gt;">
					<path id="&lt;Path&gt;" class="shp1" d="M1570.57 2283.55C1569.85 2283.55 1569.11 2283.5 1568.38 2283.39C1560.18 2282.19 1554.51 2274.58 1555.7 2266.38C1556.86 2258.48 1557.45 2250.38 1557.45 2242.3C1557.45 2149.94 1482.31 2074.8 1389.95 2074.8C1311.76 2074.8 1244.71 2127.88 1226.91 2203.87C1225.02 2211.94 1216.95 2216.92 1208.88 2215.05C1200.81 2213.16 1195.81 2205.09 1197.7 2197.03C1218.7 2107.4 1297.76 2044.8 1389.95 2044.8C1498.85 2044.8 1587.45 2133.4 1587.45 2242.3C1587.45 2251.82 1586.75 2261.38 1585.39 2270.72C1584.3 2278.18 1577.89 2283.55 1570.57 2283.55Z" />
				</g>
				<g id="&lt;Group&gt;">
					<path id="&lt;Path&gt;" class="shp1" d="M1494.17 2275.01C1493.32 2275.01 1492.46 2274.93 1491.59 2274.78C1483.43 2273.36 1477.96 2265.61 1479.37 2257.44C1480.22 2252.54 1480.65 2247.45 1480.65 2242.3C1480.65 2192.29 1439.96 2151.6 1389.95 2151.6C1346.63 2151.6 1309.22 2182.39 1300.98 2224.81C1299.4 2232.94 1291.54 2238.21 1283.39 2236.68C1275.26 2235.09 1269.95 2227.22 1271.53 2219.09C1282.5 2162.6 1332.3 2121.6 1389.95 2121.6C1456.51 2121.6 1510.65 2175.75 1510.65 2242.3C1510.65 2249.16 1510.07 2255.97 1508.93 2262.56C1507.67 2269.85 1501.33 2275.01 1494.17 2275.01Z" />
				</g>
				<g id="&lt;Group&gt;">
					<path id="&lt;Path&gt;" class="shp1" d="M2684.62 2462.45C2680.48 2462.45 2676.32 2460.99 2672.98 2458.02C2665.76 2451.59 2665.12 2440.53 2671.55 2433.31C2807.98 2280.14 2862.53 2082.85 2821.23 1892.04C2821.19 1891.85 2821.15 1891.66 2821.12 1891.47C2798.14 1765.11 2740.51 1674.38 2666.96 1648.77C2626.91 1634.82 2586.29 1642.34 2555.51 1669.38C2509.1 1710.15 2492.55 1787.9 2511.23 1877.34C2513.2 1886.8 2507.14 1896.07 2497.68 1898.05C2488.23 1900.05 2478.94 1893.96 2476.97 1884.5C2455.35 1781.02 2475.56 1693.03 2532.41 1643.08C2572.93 1607.49 2626.16 1597.51 2678.47 1615.72C2765.31 1645.95 2829.83 1744.06 2855.5 1884.92C2899.07 2086.69 2841.56 2295.05 2697.69 2456.59C2694.23 2460.47 2689.44 2462.45 2684.62 2462.45Z" />
				</g>
				<g id="&lt;Group&gt;">
					<path id="&lt;Path&gt;" class="shp1" d="M1105.88 2166.95C1100.22 2166.95 1094.79 2163.73 1092.26 2158.25C1005.08 1969.85 994.27 1820.83 1061.81 1738.63C1106.52 1684.2 1181.43 1664.94 1267.34 1685.8C1398.25 1717.57 1550.73 1844.56 1596.28 2056.65C1598.02 2064.75 1592.87 2072.72 1584.77 2074.47C1576.68 2076.17 1568.69 2071.05 1566.95 2062.95C1524.13 1863.58 1382.07 1744.51 1260.27 1714.95C1185.99 1696.93 1122.11 1712.5 1084.99 1757.67C1050.34 1799.85 1008.75 1906.33 1119.48 2145.65C1122.96 2153.17 1119.69 2162.09 1112.17 2165.56C1110.13 2166.5 1107.99 2166.95 1105.88 2166.95Z" />
				</g>
				<g id="&lt;Group&gt;">
					<path id="&lt;Path&gt;" class="shp1" d="M1665.31 2060.88C1664.94 2060.88 1664.56 2060.86 1664.19 2060.84C1655.92 2060.22 1649.72 2053.03 1650.34 2044.77C1663.57 1867.14 1632.61 1752.98 1604.32 1688.5C1570.52 1611.47 1522.07 1562.75 1471.37 1554.82C1405.76 1544.58 1348.46 1607.02 1321.81 1717.81C1319.87 1725.86 1311.75 1730.83 1303.72 1728.89C1295.66 1726.95 1290.7 1718.85 1292.64 1710.8C1329.27 1558.52 1411.41 1515.05 1476.01 1525.18C1592.51 1543.41 1703.68 1732.49 1680.26 2046.99C1679.67 2054.87 1673.09 2060.88 1665.31 2060.88Z" />
				</g>
				<g id="&lt;Group&gt;">
					<path id="&lt;Path&gt;" class="shp1" d="M1236.58 2041.55C1230.74 2041.55 1225.19 2038.11 1222.77 2032.39C1170.27 1908.29 1186.37 1847.87 1209.12 1819.03C1228.27 1794.78 1258.65 1784.73 1294.63 1790.74C1358.14 1801.34 1445.49 1866.96 1487.19 1985.96C1489.93 1993.77 1485.81 2002.33 1477.99 2005.07C1470.18 2007.81 1461.61 2003.7 1458.88 1995.88C1421.21 1888.39 1344.77 1829.53 1289.68 1820.33C1272.21 1817.4 1248.12 1818.04 1232.68 1837.61C1207.96 1868.94 1214.42 1935.66 1250.39 2020.7C1253.62 2028.33 1250.05 2037.13 1242.42 2040.36C1240.51 2041.16 1238.53 2041.55 1236.58 2041.55Z" />
				</g>
				<g id="&lt;Group&gt;">
					<path id="&lt;Compound Path&gt;" fill-rule="evenodd" class="shp1" d="M1572.02 1949.43C1533.06 1949.43 1489.04 1897.61 1465.29 1820.86C1453.55 1782.89 1448.96 1744.95 1452.38 1714.03C1456.29 1678.8 1470.41 1655.7 1492.15 1648.97C1513.89 1642.24 1538.6 1653.33 1561.71 1680.2C1582 1703.78 1599.65 1737.68 1611.4 1775.65C1637.74 1860.76 1626.19 1934.65 1584.55 1947.55C1580.46 1948.81 1576.27 1949.43 1572.02 1949.43ZM1504.81 1677.09C1503.47 1677.09 1502.2 1677.27 1501.02 1677.63C1491.81 1680.48 1484.6 1695.69 1482.2 1717.33C1479.22 1744.25 1483.4 1777.87 1493.96 1812C1516.74 1885.62 1557.57 1924.46 1575.68 1918.89C1593.78 1913.29 1605.53 1858.15 1582.74 1784.52C1572.18 1750.4 1556.64 1720.29 1538.97 1699.76C1526.59 1685.38 1513.95 1677.09 1504.81 1677.09Z" />
				</g>
				<g id="&lt;Group&gt;">
					<path id="&lt;Path&gt;" class="shp0" d="M1161.91 2314.61C1215.08 2435.64 1190.54 2563.46 1107.11 2600.11C1023.68 2636.77 912.95 2568.36 859.78 2447.34C806.61 2326.31 831.15 2198.49 914.58 2161.84C998.01 2125.19 1108.75 2193.59 1161.91 2314.61Z" />
					<path id="&lt;Compound Path&gt;" fill-rule="evenodd" class="shp1" d="M1058.99 2612.55C1030.52 2612.55 1000.39 2603.27 970.78 2584.98C923.64 2555.86 883.41 2507.34 857.49 2448.35C831.58 2389.35 823.06 2326.89 833.5 2272.48C844.01 2217.72 872.45 2177.61 913.58 2159.55C998.14 2122.41 1110.56 2191.51 1164.21 2313.61C1217.84 2435.7 1192.68 2565.25 1108.12 2602.4C1092.66 2609.19 1076.12 2612.55 1058.99 2612.55ZM962.48 2154.47C946.28 2154.47 930.49 2157.58 915.59 2164.13C876.01 2181.51 848.6 2220.32 838.41 2273.42C828.16 2326.85 836.56 2388.26 862.07 2446.33C887.58 2504.41 927.12 2552.13 973.41 2580.73C1019.4 2609.13 1066.53 2615.22 1106.11 2597.82C1188.14 2561.79 1212.15 2435.19 1159.63 2315.62C1116.64 2217.76 1035.49 2154.47 962.48 2154.47Z" />
				</g>
				<g id="&lt;Group&gt;" style="opacity: 0.302">
					<path id="&lt;Path&gt;" class="shp1" d="M1107.1 2600.1C1023.7 2636.75 912.95 2568.35 859.8 2447.35C822.3 2361.95 823.45 2273.25 856.65 2215.5C860.7 2244.05 868.95 2273.55 881.75 2302.7C934.95 2423.7 1045.65 2492.1 1129.1 2455.45C1153.7 2444.65 1173.15 2425.95 1187.05 2401.8C1199.85 2491.9 1170.45 2572.25 1107.1 2600.1Z" />
				</g>
				<g id="&lt;Group&gt;" style="opacity: 0.6">
					<path id="&lt;Path&gt;" class="shp2" d="M1714.25 1760.03L1714.25 1760.03C1742.81 1757.7 1767.73 1779.24 1769.56 1807.84L1770.41 1821.05C1772.31 1850.59 1748.86 1875.6 1719.25 1875.6L1718.03 1875.6C1689.15 1875.6 1665.97 1851.76 1666.79 1822.89L1667.16 1809.67C1667.9 1783.54 1688.19 1762.15 1714.25 1760.03Z" />
				</g>
				<g id="&lt;Group&gt;" style="opacity: 0.6">
					<path id="&lt;Path&gt;" class="shp2" d="M1813.46 1761.3L1813.46 1761.3C1842.01 1758.98 1866.93 1780.51 1868.77 1809.11L1869.62 1822.32C1871.52 1851.87 1848.06 1876.87 1818.46 1876.87L1817.24 1876.87C1788.36 1876.87 1765.18 1853.03 1765.99 1824.16L1766.37 1810.95C1767.11 1784.81 1787.4 1763.42 1813.46 1761.3Z" />
				</g>
				<g id="&lt;Group&gt;" style="opacity: 0.6">
					<path id="&lt;Path&gt;" class="shp2" d="M1163.15 2549.65C1180.15 2494.3 1175.2 2422.75 1144.75 2353.45C1091.6 2232.45 980.85 2164.05 897.4 2200.7C873.95 2211 855.15 2228.5 841.45 2251.05C854.05 2209.8 878.95 2177.5 914.6 2161.85C998 2125.2 1108.75 2193.6 1161.9 2314.6C1200.15 2401.6 1198.2 2492.05 1163.15 2549.65Z" />
				</g>
				<g id="&lt;Group&gt;">
					<path id="&lt;Compound Path&gt;" fill-rule="evenodd" class="shp1" d="M1058.96 2627.58C1027.76 2627.58 994.95 2617.54 962.9 2597.74C913.2 2567.04 870.89 2516.13 843.76 2454.38C816.63 2392.63 807.76 2327.02 818.77 2269.65C830.24 2209.9 861.76 2165.92 907.55 2145.82C999.69 2105.33 1120.97 2177.92 1177.94 2307.57L1177.94 2307.58C1234.9 2437.24 1206.28 2575.66 1114.15 2616.13C1096.72 2623.79 1078.15 2627.58 1058.96 2627.58ZM962.99 2169.35C948.66 2169.35 934.74 2172.1 921.62 2177.86C886.7 2193.2 862.37 2228.14 853.14 2276.25C843.45 2326.72 851.5 2384.98 875.8 2440.3C900.1 2495.62 937.57 2540.96 981.29 2567.96C1022.96 2593.71 1065.14 2599.42 1100.07 2584.09C1174.54 2551.38 1195.09 2433.65 1145.9 2321.65L1145.9 2321.66C1105.36 2229.39 1029.93 2169.35 962.99 2169.35Z" />
				</g>
				<g id="&lt;Group&gt;">
					<path id="&lt;Path&gt;" class="shp1" d="M1668.44 1947.5C1660.91 1947.5 1654.42 1941.84 1653.55 1934.18C1645.44 1862.21 1647.48 1798.87 1650.62 1758.41C1653.65 1719.28 1649.69 1680.53 1638.85 1643.24C1618.82 1574.3 1627.58 1525.97 1627.97 1523.95C1629.51 1515.81 1637.32 1510.43 1645.49 1512C1653.62 1513.54 1658.97 1521.37 1657.45 1529.49C1657.3 1530.36 1649.87 1573.62 1667.66 1634.87C1679.51 1675.64 1683.84 1717.99 1680.53 1760.73C1677.49 1799.9 1675.51 1861.19 1683.37 1930.82C1684.29 1939.05 1678.37 1946.48 1670.14 1947.41C1669.57 1947.47 1669 1947.5 1668.44 1947.5Z" />
				</g>
				<g id="&lt;Group&gt;">
					<path id="&lt;Path&gt;" class="shp1" d="M2046.59 1834C2040.12 1834 2034.15 1829.79 2032.22 1823.27C2026.07 1802.55 2022.78 1781.28 2021.86 1756.35C2021.56 1748.07 2028.02 1741.11 2036.31 1740.81C2044.45 1740.58 2051.54 1746.97 2051.84 1755.25C2052.66 1777.6 2055.56 1796.49 2060.98 1814.73C2063.34 1822.67 2058.81 1831.02 2050.87 1833.38C2049.45 1833.8 2048 1834 2046.59 1834Z" />
				</g>
				<g id="&lt;Group&gt;">
					<path id="&lt;Path&gt;" class="shp1" d="M2037.04 1684.95C2028.97 1684.95 2022.31 1678.54 2022.06 1670.42C2021.18 1642.69 2017.51 1605.01 1996.66 1559.44C1993.21 1551.9 1996.53 1543 2004.06 1539.56C2011.59 1536.1 2020.49 1539.42 2023.94 1546.96C2047.02 1597.4 2051.08 1638.93 2052.04 1669.48C2052.3 1677.76 2045.8 1684.68 2037.52 1684.94C2037.36 1684.95 2037.2 1684.95 2037.04 1684.95Z" />
				</g>
				<g id="&lt;Group&gt;">
					<path id="&lt;Path&gt;" class="shp1" d="M1951.68 1890.6C1944.01 1890.6 1937.46 1884.74 1936.76 1876.94C1933.88 1844.79 1931.6 1814.36 1929.4 1784.94C1928.41 1771.83 1927.45 1758.89 1926.44 1746.06C1925.8 1737.81 1931.97 1730.59 1940.23 1729.94C1948.52 1729.32 1955.71 1735.47 1956.35 1743.73C1957.36 1756.59 1958.33 1769.55 1959.31 1782.7C1961.51 1812.01 1963.78 1842.32 1966.64 1874.26C1967.38 1882.52 1961.29 1889.8 1953.04 1890.54C1952.58 1890.58 1952.13 1890.6 1951.68 1890.6Z" />
				</g>
				<g id="&lt;Group&gt;">
					<path id="&lt;Path&gt;" class="shp1" d="M1933.88 1677.15C1926.31 1677.15 1919.8 1671.44 1918.98 1663.74C1914.26 1619.48 1908.59 1580.64 1901.12 1541.51C1899.56 1533.38 1904.9 1525.52 1913.04 1523.97C1921.19 1522.42 1929.03 1527.75 1930.58 1535.89C1938.21 1575.85 1944.01 1615.46 1948.82 1660.56C1949.69 1668.79 1943.73 1676.19 1935.49 1677.07C1934.95 1677.12 1934.41 1677.15 1933.88 1677.15Z" />
				</g>
				<g id="&lt;Group&gt;">
					<path id="&lt;Path&gt;" class="shp1" d="M1848.35 1971.06C1847.2 1971.06 1846.04 1970.92 1844.87 1970.64C1836.81 1968.74 1831.83 1960.65 1833.74 1952.59C1848.37 1890.81 1841.65 1797.34 1834.53 1698.38C1830.41 1640.92 1826.13 1581.5 1826.13 1526.74C1826.13 1518.45 1832.85 1511.74 1841.13 1511.74C1849.42 1511.74 1856.13 1518.45 1856.13 1526.74C1856.13 1580.43 1860.37 1639.3 1864.46 1696.24C1871.74 1797.55 1878.62 1893.25 1862.93 1959.51C1861.3 1966.41 1855.14 1971.06 1848.35 1971.06Z" />
				</g>
				<g id="&lt;Group&gt;">
					<path id="&lt;Path&gt;" class="shp1" d="M1759.9 1998.07C1758.23 1998.07 1756.54 1997.79 1754.88 1997.2C1747.08 1994.43 1742.99 1985.86 1745.76 1978.05C1768.74 1913.29 1757.09 1808.19 1745.82 1706.55C1739.63 1650.76 1733.79 1598.07 1733.79 1553.19C1733.79 1544.91 1740.5 1538.19 1748.79 1538.19C1757.07 1538.19 1763.79 1544.91 1763.79 1553.19C1763.79 1596.41 1769.54 1648.3 1775.63 1703.24C1787.28 1808.25 1799.32 1916.83 1774.03 1988.08C1771.85 1994.23 1766.07 1998.07 1759.9 1998.07Z" />
				</g>
				<g id="&lt;Group&gt;">
					<path id="&lt;Path&gt;" class="shp1" d="M2244.31 2273.96C2243.05 2273.96 2241.78 2273.79 2240.51 2273.47C2232.5 2271.37 2227.69 2263.18 2229.78 2255.17C2240.5 2214.08 2271.38 2185.82 2308.45 2183.17C2340.95 2180.86 2369.72 2199.84 2383.54 2232.73C2386.75 2240.37 2383.16 2249.16 2375.52 2252.37C2367.88 2255.57 2359.1 2251.99 2355.89 2244.35C2346.94 2223.07 2330.35 2211.63 2310.59 2213.09C2286.55 2214.81 2266.23 2234.3 2258.82 2262.73C2257.05 2269.48 2250.97 2273.96 2244.31 2273.96Z" />
				</g>
				<g id="&lt;Group&gt;">
					<path id="&lt;Path&gt;" class="shp1" d="M1109.93 2242.79L1027.43 2288.44C1023.79 2290.46 1019.2 2289.14 1017.18 2285.49C1015.43 2282.33 1016.2 2278.45 1018.82 2276.16L1089.84 2214.14C1097.16 2207.74 1108.28 2208.5 1114.67 2215.82C1121.06 2223.14 1120.31 2234.26 1112.99 2240.65C1112.06 2241.47 1110.98 2242.21 1109.93 2242.79Z" />
				</g>
				<g id="&lt;Group&gt;">
					<path id="&lt;Path&gt;" class="shp1" d="M1185 2437.32L1091.67 2427.32C1087.52 2426.88 1084.53 2423.16 1084.97 2419.02C1085.36 2415.42 1088.21 2412.69 1091.67 2412.32L1185 2402.32C1194.67 2401.29 1203.34 2408.28 1204.38 2417.95C1205.41 2427.61 1198.42 2436.29 1188.75 2437.32C1187.51 2437.45 1186.19 2437.44 1185 2437.32Z" />
				</g>
				<g id="&lt;Group&gt;" style="opacity: 0.502">
					<path id="&lt;Path&gt;" class="shp2" d="M1856.24 1354.47C1856.24 1365.34 1839.05 1374.16 1817.85 1374.16C1796.65 1374.16 1779.46 1365.34 1779.46 1354.47C1779.46 1343.6 1796.65 1339.18 1817.85 1339.18C1839.05 1339.18 1856.24 1343.6 1856.24 1354.47Z" />
				</g>
				<g id="&lt;Group&gt;" style="opacity: 0.302">
					<path id="&lt;Path&gt;" class="shp1" d="M1630.83 1388.33C1662.27 1484.4 1727.34 1504.1 1815.36 1457.81C1842.46 1443.55 1874.81 1445.72 1901.32 1461.04C1965.87 1498.36 2074.74 1481.14 2122.62 1409.25L2140.83 1450C2090 1564.91 2000.93 1586.37 1865 1493.33C1775.54 1583.24 1681.64 1580.59 1581.62 1450L1630.83 1388.33Z" />
				</g>
				<g id="&lt;Group&gt;">
					<path id="&lt;Path&gt;" class="shp1" d="M2517.17 1712.21L2574.07 1763.84C2577.17 1766.64 2577.4 1771.43 2574.59 1774.52C2572.24 1777.11 2568.5 1777.69 2565.53 1776.16L2497.23 1740.97C2488.56 1736.51 2485.16 1725.86 2489.62 1717.2C2494.09 1708.53 2504.73 1705.13 2513.4 1709.59C2514.77 1710.3 2516.07 1711.23 2517.17 1712.21Z" />
				</g>
				<g id="&lt;Group&gt;">
					<path id="&lt;Path&gt;" class="shp1" d="M2641.89 1632.34L2650.49 1704.34C2650.99 1708.49 2648.02 1712.26 2643.87 1712.76C2640.43 1713.17 2637.26 1711.2 2635.98 1708.16L2608.04 1641.25C2604.28 1632.24 2608.54 1621.89 2617.54 1618.13C2626.55 1614.38 2636.89 1618.63 2640.65 1627.63C2641.29 1629.15 2641.7 1630.79 2641.89 1632.34Z" />
				</g>
				<g id="&lt;Group&gt;" style="opacity: 0.302">
					<path id="&lt;Path&gt;" class="shp1" d="M2776.65 2043.15L2776.65 2043.2C2776.65 2922.65 1616.25 3100.5 1146.95 2576.75L1178.1 2532.1L1175 2525C1185.9 2449.5 1181.53 2379.37 1161.9 2314.6L1263.52 2490.79C1324.96 2597.32 1429.93 2672.68 1551.14 2693.4C1810.12 2737.68 2069.29 2628.36 2176.55 2399.85C2192.2 2366.55 2224.2 2343.85 2260.85 2340.95C2627.9 2311.55 2868.7 2142.35 2725.3 1968.85C2725.3 1968.85 2725.32 1968.85 2725.35 1968.85C2758.6 1992.1 2776.65 2017.1 2776.65 2043.15Z" />
				</g>
				<g id="&lt;Group&gt;" style="opacity: 0.302">
					<path id="&lt;Path&gt;" class="shp1" d="M2684.35 2447.3C2592.2 3185.95 2204.75 3526.1 1948.15 3153.35C1937.45 3155.15 1926.7 3156.55 1916 3157.55L2023.65 3134.55C2185.91 3248.43 2301.78 3169.95 2374.68 2913.26C2384.66 2878.13 2349.19 2847.27 2315.84 2862.15C2007.22 2999.75 1739.78 2985.39 1515.15 2813.3C1824.85 2910.25 2125.3 2876.6 2416.8 2717.05C2519.77 2664.58 2606.27 2573.88 2676.3 2444.95L2684.35 2447.3Z" />
				</g>
				<g id="&lt;Group&gt;" style="opacity: 0.302">
					<path id="&lt;Path&gt;" class="shp1" d="M1787.85 3152.85C1786.15 3152.6 1784.5 3152.3 1782.8 3152C1638.35 3363.15 1452.05 3347.5 1300.35 3161.4C1300.35 3161.37 1300.35 3161.35 1300.35 3161.35C1444.55 3274.05 1513.15 3201.75 1543.75 3036.25C1625.55 3119.2 1766.35 3148.75 1787.85 3152.85Z" />
				</g>
				<g id="&lt;Group&gt;" style="opacity: 0.302">
					<path id="&lt;Path&gt;" class="shp1" d="M3522.35 2503.15C3514.65 2550.5 3498.5 2594.05 3475.7 2632.9C3437.25 2698.4 3379.9 2750.45 3312 2784.7C3188.55 2846.95 3041.65 2841.2 2920.75 2774.05L2911.35 2768.8C2856 2738.05 2788.2 2737.2 2733.3 2768.8C2665.7 2807.75 2605.75 2882.7 2547.7 2966.8C2547 2967.8 2546.3 2968.85 2545.6 2969.85L2546.85 2966.05L2653.35 2643.35C2666.55 2630.25 2680.2 2618.95 2694.25 2609.3C2701.65 2604.25 2709.15 2599.65 2716.75 2595.55C2706.28 2635.02 2713.62 2659 2738.75 2667.5C2799.58 2652.5 2859.63 2661.25 2918.9 2693.75C3352.5 2875.3 3549.95 2368.5 3302.5 2212.5L3302.5 2212.35C3358.4 2198.15 3423.3 2219.95 3473.6 2288.45C3518.7 2350 3534.6 2427.85 3522.35 2503.15Z" />
				</g>
				<g id="&lt;Group&gt;" style="opacity: 0.302">
					<path id="&lt;Path&gt;" class="shp1" d="M2486.04 2053.94L2439.41 1949.5C2575.54 1969 2652.17 2007.08 2669.3 2063.75C2686.43 2120.42 2653.27 2157.5 2569.8 2175L2486.04 2053.94Z" />
				</g>
				<g id="&lt;Group&gt;" style="opacity: 0.302">
					<path id="&lt;Path&gt;" class="shp1" d="M2037 1669.65L1849.25 1658.5C1736.5 1699.65 1658.65 1646.75 1654.75 1644.05C1654.6 1643.55 1654.45 1643 1654.3 1642.5C1640.57 1597.1 1636.7 1558.52 1642.7 1526.75C1708.67 1562.25 1782.77 1551.12 1865 1493.35C1902.47 1557.02 1950.9 1576.97 2010.3 1553.2C2030.5 1597.3 2035.95 1634.75 2037 1669.65Z" />
				</g>
			</g>
		</g>
	</g>
</svg>