<svg version="1.2" baseProfile="tiny-ps" xmlns="http://www.w3.org/2000/svg" viewBox="0 0 1500 1500" width="1500" height="1500">
	<title>3806649-ai</title>
	<style>
		tspan { white-space:pre }
		.shp0 { fill: #7cc788 } 
		.shp1 { fill: #008183 } 
		.shp2 { fill: #c26a45 } 
		.shp3 { fill: #f48b45 } 
		.shp4 { fill: #cfd1d2 } 
		.shp5 { fill: #babcbe } 
		.shp6 { opacity: 0.2;mix-blend-mode: multiply;fill: #babcbe } 
		.shp7 { fill: #a25445 } 
		.shp8 { fill: #e38859 } 
		.shp9 { fill: #ffb867 } 
		.shp10 { opacity: 0.302;mix-blend-mode: multiply;fill: #babcbe } 
		.shp11 { fill: #ff9c67 } 
		.shp12 { opacity: 0.502;mix-blend-mode: multiply;fill: #babcbe } 
		.shp13 { fill: #d67c4d } 
		.shp14 { fill: #33314f } 
		.shp15 { fill: #db7a45 } 
		.shp16 { fill: #f5cc65 } 
		.shp17 { mix-blend-mode: multiply;fill: #eff0f0 } 
		.shp18 { mix-blend-mode: multiply;fill: #e4e5e6 } 
		.shp19 { fill: #ffffff } 
		.shp20 { fill: #9d3d29 } 
		.shp21 { fill: #743129 } 
		.shp22 { fill: #ffa267 } 
		.shp23 { fill: #a95b45 } 
		.shp24 { fill: #a5a7aa } 
		.shp25 { opacity: 0.2;mix-blend-mode: screen;fill: #ffffff } 
	</style>
	<g id="OBJECTS">
		<g id="&lt;Group&gt;">
			<g id="&lt;Group&gt;">
				<g id="&lt;Group&gt;">
					<path id="&lt;Path&gt;" class="shp0" d="M1196.12 1128.26C1259.07 1014.43 1301.57 965.68 1323.62 982C1332.62 988.67 1321.01 1019.78 1288.8 1075.35C1322.89 1032.52 1344.88 1015.42 1354.75 1024.06C1363.43 1031.66 1350.4 1056.62 1315.67 1098.96C1351.79 1067.3 1372.41 1056.18 1377.54 1065.58C1382.97 1075.53 1370.21 1098.05 1339.28 1133.15L1196.12 1128.26Z" />
					<g id="&lt;Group&gt;">
						<path id="&lt;Path&gt;" class="shp1" d="M1221.62 1128.26C1249.44 1082.92 1295.66 1010.27 1299.62 1012.25C1303.51 1014.2 1261.54 1083.61 1235.51 1128.86L1221.62 1128.26C1221.54 1128.08 1221.54 1128.08 1221.62 1128.26Z" />
						<path id="&lt;Path&gt;" class="shp1" d="M1347.69 1095.16C1349.46 1097.56 1330.69 1117.6 1314.3 1132.07L1297.42 1131.34C1324.66 1110.85 1344.62 1091 1347.69 1095.16Z" />
						<path id="&lt;Path&gt;" class="shp1" d="M1328.7 1056.62C1331.6 1060.49 1301.2 1099.96 1271.12 1130.75L1253.12 1132.25C1282.95 1103.04 1325.97 1052.99 1328.7 1056.62Z" />
					</g>
				</g>
				<g id="&lt;Group&gt;">
					<path id="&lt;Path&gt;" class="shp0" d="M302.5 1128.26C239.54 1014.43 197.04 965.68 175 982C166 988.67 177.6 1019.78 209.81 1075.35C175.72 1032.52 153.74 1015.42 143.87 1024.06C135.19 1031.66 148.21 1056.62 182.95 1098.96C146.83 1067.3 126.2 1056.18 121.08 1065.58C115.65 1075.53 128.4 1098.05 159.34 1133.15L302.5 1128.26Z" />
					<g id="&lt;Group&gt;">
						<path id="&lt;Path&gt;" class="shp1" d="M277 1128.26C249.17 1082.92 202.96 1010.27 199 1012.25C195.11 1014.2 237.08 1083.61 263.1 1128.86L277 1128.26C277.08 1128.08 277.08 1128.08 277 1128.26Z" />
						<path id="&lt;Path&gt;" class="shp1" d="M150.93 1095.16C149.15 1097.56 167.92 1117.6 184.32 1132.07L201.19 1131.34C173.95 1110.85 154 1091 150.93 1095.16Z" />
						<path id="&lt;Path&gt;" class="shp1" d="M169.92 1056.62C167.02 1060.49 197.42 1099.96 227.5 1130.75L245.5 1132.25C215.67 1103.04 172.65 1052.99 169.92 1056.62Z" />
					</g>
				</g>
				<g id="&lt;Group&gt;">
					<path id="&lt;Path&gt;" class="shp2" d="M1300.5 691.75C1299.71 690.48 1298.5 668.25 1316.5 645.75C1328.5 630.75 1344.34 623.58 1364 624.25C1364 645.58 1358.17 662.58 1346.5 675.25C1366.5 677.92 1378.5 692.25 1382.5 718.25C1341.84 722.92 1314.5 714.08 1300.5 691.75Z" />
					<path id="&lt;Path&gt;" class="shp3" d="M1329.98 675.93C1294.71 688.46 1252.44 711.34 1235.08 746.29C1232.5 751.48 1240.34 755.91 1242.92 750.71C1259.18 717.97 1299.45 696.32 1332.52 684.57C1337.95 682.64 1335.47 673.98 1329.98 675.93Z" />
					<path id="&lt;Path&gt;" class="shp2" d="M1295.72 717.67C1288.11 708.03 1283.17 697.49 1282.88 685.05C1282.74 679.26 1273.74 679.39 1273.88 685.2C1274.2 699.13 1279.44 711.48 1288.03 722.33C1291.57 726.82 1299.33 722.22 1295.72 717.67Z" />
				</g>
				<path id="&lt;Path&gt;" class="shp1" d="M1073.25 705.75C1072.97 686.21 1099.41 671.16 1115.96 670.5C1133.21 669.81 1145.72 678.64 1162.69 670.71C1178.46 663.33 1192.56 663.41 1208.25 668.81C1216.68 671.72 1221.51 670.8 1230 668.79C1235.87 667.41 1245.32 665.7 1251 668.8C1263.88 675.82 1266.97 708.83 1262.83 721.5C1258.08 736.07 1242.62 745.88 1228.72 749.29C1204.39 755.27 1176.76 752.98 1151.95 753C1133.55 753.02 1118.36 750.92 1101.6 742.44C1086.64 734.88 1073.1 726.84 1057.5 720.75" />
				<path id="&lt;Path&gt;" class="shp0" d="M1039.5 701.25C1045 688.25 1052 680.5 1060.5 678C1069 675.5 1077.5 680.25 1086 692.25C1087.5 681.25 1093.25 674.5 1103.25 672C1118.25 668.25 1120.5 702.75 1131 702C1141.5 701.25 1143.75 675.75 1154.25 673.5C1164.75 671.25 1168.5 693.75 1177.5 692.25C1186.5 690.75 1194 682.5 1204.5 689.25C1215 696 1209.75 711.75 1221 714.75C1232.25 717.75 1233 700.5 1245.75 699.75C1258.5 699 1263.75 717.75 1261.5 726.75C1259.25 735.75 1246.5 732.75 1162.5 723.75C1078.5 714.75 1029 722.25 1039.5 701.25Z" />
				<g id="&lt;Group&gt;">
					<g id="&lt;Group&gt;">
						<path id="&lt;Path&gt;" class="shp4" d="M966.27 1088.19C955.28 1075.26 983.93 722.43 989.87 704.85C995.81 687.27 1269.66 706.5 1275.55 726.54C1281.45 746.58 1244.23 1112.27 1228.68 1118.53C1213.12 1124.79 977.26 1101.13 966.27 1088.19Z" />
						<path id="&lt;Path&gt;" class="shp5" d="M1024.92 741.8C1016.77 807.97 1009.51 872.23 1003.14 934.58C993.57 1028.09 993.67 1045.95 993.86 1052.28C994.28 1066.41 1009.5 1074.17 1012.08 1051.32C1018.39 995.53 1040.67 762.7 1042.58 745.81C1044.49 728.92 1026.71 725.9 1024.92 741.8Z" />
						<path id="&lt;Path&gt;" class="shp5" d="M1086.71 742.96C1079.96 809.3 1074.06 873.69 1069.01 936.16C1061.44 1029.86 1061.92 1047.71 1062.24 1054.03C1062.96 1068.16 1078.34 1075.59 1080.44 1052.68C1085.55 996.77 1102.9 763.53 1104.45 746.6C1106 729.67 1088.16 727.03 1086.71 742.96Z" />
						<path id="&lt;Path&gt;" class="shp5" d="M1236.89 758.52C1232.16 825.02 1226.93 889.47 1221.2 951.88C1212.59 1045.49 1209.06 1063 1207.66 1069.17C1204.53 1082.96 1188.1 1087.65 1189.96 1064.72C1194.51 1008.76 1217.42 775.99 1218.79 759.05C1220.17 742.11 1238.19 742.57 1236.89 758.52Z" />
						<path id="&lt;Path&gt;" class="shp5" d="M1171.25 752.06C1167.35 818.62 1162.91 883.13 1157.96 945.61C1150.52 1039.31 1147.2 1056.86 1145.89 1063.05C1142.93 1076.89 1126.56 1081.78 1128.13 1058.82C1131.98 1002.81 1151.99 769.78 1153.15 752.82C1154.32 735.86 1172.34 736.1 1171.25 752.06Z" />
						<path id="&lt;Path&gt;" class="shp5" d="M1318.74 769.18C1317.12 764.34 1284.6 763.68 1268.06 763.21L1268.39 759.07C1268.62 756.32 1266.57 753.9 1263.82 753.68C1261.06 753.46 1258.65 755.51 1258.43 758.26L1256.89 777.2C1256.67 779.95 1258.72 782.36 1261.47 782.58C1264.22 782.81 1266.64 780.76 1266.86 778.01L1267.11 774.9C1268.94 774.99 1271.48 775.11 1274.37 775.28C1285.47 775.89 1301.84 777.02 1303.69 778.49C1306.52 780.72 1303.76 802.32 1301.44 806.14C1299.93 808.65 1283.32 807.24 1272.05 805.97C1271.74 809.69 1271.43 813.46 1271.1 817.34C1286.4 819.29 1308.87 821.46 1311.79 817.77C1316.26 812.12 1321.17 776.4 1318.74 769.18Z" />
						<path id="&lt;Path&gt;" class="shp5" d="M999.13 732.19C996.38 731.96 993.96 734.02 993.74 736.77L993.4 740.9C990.96 740.58 988.15 740.2 985.15 739.8C968.06 737.54 944.45 734.78 942.42 738.62C938.87 745.36 937.95 781.4 941.45 787.71C943.65 791.67 964.68 793.2 980 793.78C980.34 789.9 980.68 786.09 981.02 782.38C969.79 781.79 954.57 780.5 953.53 777.9C951.86 773.75 952.63 751.99 955.78 750.24C957.76 749.14 972.94 750.5 983.94 751.66C984.37 751.71 984.81 751.75 985.22 751.8C988.11 752.11 990.64 752.39 992.46 752.6L992.21 755.71C991.98 758.46 994.03 760.87 996.78 761.09C999.53 761.32 1001.95 759.27 1002.17 756.52L1003.71 737.58C1003.93 734.82 1001.88 732.41 999.13 732.19Z" />
					</g>
					<path id="&lt;Compound Path&gt;" fill-rule="evenodd" class="shp6" d="M1244.58 1049.8C1238.55 1089.43 1232.84 1116.86 1228.68 1118.53C1213.12 1124.79 977.26 1101.13 966.27 1088.19C958.6 1079.17 970.25 904.4 980 793.78C964.68 793.2 943.65 791.67 941.45 787.71C937.95 781.4 938.87 745.36 942.42 738.62C944.45 734.78 968.06 737.54 985.15 739.8C987.18 720.63 988.85 707.85 989.87 704.85C990.76 702.23 997.64 700.43 1008.67 699.33L1009.5 700.5C1015.5 836.5 1054 933 1125 990C1173.04 1028.57 1214.02 1044.21 1244.58 1049.8ZM981.01 782.56C981.01 782.55 981.01 782.54 981.01 782.53C981.01 782.54 981.01 782.55 981.01 782.56ZM981.01 782.53C982.02 771.35 983 760.96 983.94 751.66C972.94 750.5 957.76 749.14 955.78 750.24C952.63 751.99 951.86 773.75 953.53 777.9C954.57 780.5 969.79 781.79 981.02 782.38C981.02 782.43 981.01 782.48 981.01 782.53Z" />
				</g>
				<path id="&lt;Path&gt;" class="shp2" d="M245 631.5C263.33 599.17 275.67 581.84 282 579.5C292.36 575.68 346.5 570 349.61 574.91C351.56 577.98 342.2 595.68 321.54 628L278.74 664.83L245 631.5Z" />
				<path id="&lt;Path&gt;" class="shp7" d="M285.15 578.59C283.88 578.9 282.8 579.21 282 579.5C275.67 581.84 263.33 599.17 245 631.5L247.9 634.36C257.66 618.1 275.39 589.37 285.15 578.59Z" />
				<path id="&lt;Path&gt;" class="shp2" d="M510.5 603.7C491.5 570.57 478.33 553.67 471 553C460 552 397.2 554.57 398 559.5C398.58 563.08 407.93 578.21 426.05 604.87L490 633L510.5 603.7Z" />
				<path id="&lt;Path&gt;" class="shp7" d="M432 604.5C416.6 582.12 406.24 566.49 400.95 557.62C399.49 558.06 398.52 558.51 398.16 558.99C398.05 559.2 397.98 559.38 398 559.5C398.58 563.08 407.93 578.21 426.05 604.87L490 633L490.98 631.61L432 604.5Z" />
				<path id="&lt;Path&gt;" class="shp8" d="M260.5 842.43C243.16 708.57 238.42 638.03 246.28 630.8C258.08 619.97 496.65 593.2 510.5 603.7C519.73 610.7 526.33 686.51 530.28 831.14C410.51 853.47 320.59 857.24 260.5 842.43Z" />
				<path id="&lt;Path&gt;" class="shp9" d="M426.05 604.87C426.02 604.76 425.8 604.73 425.68 604.66C351.13 610.83 253.72 623.98 246.28 630.8C238.42 638.03 243.16 708.57 260.5 842.43C312.12 855.15 393.09 849.59 452.87 842.53C450.89 808.77 444.63 696.27 426.05 604.87Z" />
				<path id="&lt;Path&gt;" class="shp8" d="M344.25 843L350.25 842.25C340.26 774.17 334.71 698.23 333.61 614.42C331.18 614.73 328.78 615.04 326.4 615.36C327.04 649.52 330.17 763.13 344.25 843Z" />
				<path id="&lt;Path&gt;" class="shp2" d="M475.05 601.56C484.35 660.52 492 736.25 498 828.75L502.5 828C502.75 751.69 488.33 641.67 482.3 601.37C479.99 601.41 477.57 601.48 475.05 601.56Z" />
				<path id="&lt;Path&gt;" class="shp10" d="M497.44 757.11C469.7 749.56 445.9 698.82 426.05 604.87C430.97 695.99 413.16 750.5 372.61 768.42C332.46 786.17 283.26 790.96 254.44 792.18C256.65 811.52 258.67 828.27 260.5 842.43C263.63 843.2 266.86 843.89 270.18 844.53C270.47 844.58 270.76 844.64 271.04 844.69C274.15 845.28 277.35 845.81 280.62 846.29C280.96 846.34 281.29 846.39 281.64 846.44C285 846.92 288.44 847.34 291.95 847.72C292.13 847.74 292.31 847.76 292.5 847.78C296.17 848.17 299.91 848.5 303.71 848.78C303.93 848.8 304.15 848.81 304.37 848.83C308 849.09 311.69 849.31 315.43 849.48C315.81 849.5 316.19 849.52 316.57 849.53C320.25 849.69 323.99 849.81 327.75 849.9C328.06 849.9 328.36 849.91 328.66 849.91C332.69 850 336.75 850.04 340.84 850.03C340.88 850.03 340.91 850.03 340.95 850.03C345.02 850.03 349.11 849.98 353.22 849.9C353.55 849.9 353.88 849.89 354.21 849.88C358.11 849.8 362.02 849.69 365.94 849.54C366.27 849.53 366.6 849.52 366.94 849.51C371.03 849.36 375.12 849.18 379.21 848.96C379.28 848.96 379.34 848.96 379.41 848.95C383.62 848.73 387.82 848.48 392 848.21C392.15 848.2 392.3 848.19 392.45 848.18C396.49 847.91 400.5 847.62 404.49 847.31C404.74 847.29 404.99 847.27 405.24 847.25C409.26 846.93 413.25 846.6 417.19 846.25C417.28 846.24 417.35 846.23 417.43 846.22C425.6 845.49 433.59 844.69 441.3 843.84C441.4 843.83 441.49 843.82 441.58 843.81C445.4 843.4 449.15 842.96 452.82 842.53C452.83 842.53 452.85 842.53 452.87 842.53C482.6 839.01 508.4 835.21 530.28 831.14C529.7 810.12 528.81 786.42 527.58 760.03C518.45 760.69 508.27 760.05 497.44 757.11Z" />
				<g id="&lt;Group&gt;">
					<path id="&lt;Path&gt;" class="shp11" d="M431.95 818L431.93 818C373.19 818.94 299.33 824.68 229.67 843C227.89 929.67 234.67 1021.33 250 1118C315.24 1113.47 383.92 1109.25 456.02 1105.32C451 1053 439.66 941.48 431.95 818Z" />
					<path id="&lt;Path&gt;" class="shp12" d="M411 949.5C418.21 947.44 427.5 954 430.89 818.02C372.32 819.01 298.92 824.78 229.67 843C229.05 873.13 230.06 910.46 232.7 954.99C265.39 958.46 390 955.5 411 949.5Z" />
					<path id="&lt;Path&gt;" class="shp8" d="M545.27 822C513.91 818.63 476.13 817.3 431.94 818C431.94 818 431.94 818 431.95 818C439.66 941.48 451 1053 456.02 1105.32C454.94 1105.38 453.87 1105.44 452.8 1105.49C485.56 1103.73 520.21 1101.59 554.8 1099C563.27 991 560.09 898.67 545.27 822Z" />
					<path id="&lt;Path&gt;" class="shp6" d="M363 1099C346.63 1102.07 333.7 1107 323.63 1113.16C360.24 1110.83 407.06 1107.98 456.02 1105.32C487.84 1103.59 521.34 1101.5 554.8 1099C563.27 991 560.09 898.67 545.27 822C539.37 821.37 531.28 820.72 521 820.06L487 894.5C468.33 1018.83 427 1087 363 1099Z" />
					<path id="&lt;Path&gt;" class="shp13" d="M361.5 1068.75C357 1068.75 356.5 1080.75 353.5 1081.5C350.5 1082.25 347 1070.5 343 1070C340.02 1069.63 341 1083.75 338 1083C335 1082.25 332.75 1071.5 329 1073C325.25 1074.5 328 1084 325 1085.5C322 1087 315.75 1077 313.5 1077.75C311.89 1078.29 315.26 1097.7 317.59 1113.54C332.49 1112.59 349.27 1111.54 367.34 1110.44C366.17 1087.75 364.09 1068.75 361.5 1068.75Z" />
					<path id="&lt;Path&gt;" class="shp9" d="M229.67 843C214.55 907.24 208.32 942.57 211 949C216 961 397.02 936.79 401 932C408.77 922.67 418.73 884.67 430.89 818C342.64 814.67 275.56 823 229.67 843Z" />
				</g>
				<g id="&lt;Group&gt;">
					<path id="&lt;Path&gt;" class="shp1" d="M583.5 1096.26C520.54 982.43 478.04 933.67 456 950C447 956.67 458.6 987.78 490.81 1043.35C456.72 1000.52 434.74 983.42 424.87 992.06C416.19 999.65 429.21 1024.62 463.95 1066.95C427.83 1035.3 407.2 1024.18 402.08 1033.58C396.65 1043.53 409.4 1066.05 440.34 1101.15L583.5 1096.26Z" />
					<g id="&lt;Group&gt;">
						<path id="&lt;Path&gt;" class="shp14" d="M558 1096.26C530.17 1050.92 483.96 978.27 480 980.25C476.11 982.2 518.08 1051.61 544.1 1096.86L558 1096.26C558.08 1096.08 558.08 1096.08 558 1096.26Z" />
						<path id="&lt;Path&gt;" class="shp14" d="M431.93 1063.16C430.15 1065.56 448.92 1085.6 465.32 1100.07L482.19 1099.34C454.95 1078.85 435 1059 431.93 1063.16Z" />
						<path id="&lt;Path&gt;" class="shp14" d="M450.92 1024.62C448.02 1028.49 478.42 1067.96 508.5 1098.75L526.5 1100.25C496.67 1071.04 453.65 1020.98 450.92 1024.62Z" />
					</g>
				</g>
				<g id="&lt;Group&gt;">
					<path id="&lt;Path&gt;" class="shp1" d="M880.23 1096.26C943.19 982.43 985.69 933.67 1007.73 950C1016.73 956.67 1005.13 987.78 972.92 1043.35C1007.01 1000.52 1028.99 983.42 1038.86 992.06C1047.55 999.65 1034.52 1024.62 999.79 1066.95C1035.91 1035.3 1056.53 1024.18 1061.66 1033.58C1067.08 1043.53 1054.33 1066.05 1023.4 1101.15L880.23 1096.26Z" />
					<g id="&lt;Group&gt;">
						<path id="&lt;Path&gt;" class="shp14" d="M905.73 1096.26C933.56 1050.92 979.78 978.27 983.73 980.25C987.63 982.2 945.66 1051.61 919.63 1096.86L905.73 1096.26C905.65 1096.08 905.65 1096.08 905.73 1096.26Z" />
						<path id="&lt;Path&gt;" class="shp14" d="M1031.81 1063.16C1033.58 1065.56 1014.81 1085.6 998.42 1100.07L981.54 1099.34C1008.78 1078.85 1028.73 1059 1031.81 1063.16Z" />
						<path id="&lt;Path&gt;" class="shp14" d="M1012.81 1024.62C1015.71 1028.49 985.32 1067.96 955.23 1098.75L937.23 1100.25C967.06 1071.04 1010.08 1020.98 1012.81 1024.62Z" />
					</g>
				</g>
				<g id="&lt;Group&gt;">
					<path id="&lt;Path&gt;" class="shp2" d="M920.56 595.69C884.97 615.38 858.39 642.72 857.02 685.61C855.95 719.7 878.63 759.47 859.99 791.08C845.21 816.13 885.85 835.55 900.47 810.77C919.26 778.9 910.2 744.45 904.12 710.49C901.28 694.62 900.58 680.13 907.08 665.13C913.97 649.22 931.72 640.7 946.03 632.79C971.44 618.73 945.74 581.76 920.56 595.69Z" />
					<path id="&lt;Path&gt;" class="shp15" d="M853.89 812.57C853.89 907.75 784.1 910.5 698 910.5C611.91 910.5 542.11 907.75 542.11 812.57C542.11 717.39 611.91 640.24 698 640.24C784.1 640.24 853.89 717.39 853.89 812.57Z" />
					<path id="&lt;Path&gt;" class="shp2" d="M562.64 727.14C578.51 734.96 597.39 740.22 601.02 736.14C604.89 731.78 594.83 709.83 584.34 694.69C576.01 704.5 568.72 715.39 562.64 727.14Z" />
					<path id="&lt;Path&gt;" class="shp2" d="M583.77 758.96C586.27 754.43 574.97 738.79 562.91 726.62C557.47 737.05 552.97 748.16 549.58 759.82C565.31 762.93 581.39 763.27 583.77 758.96Z" />
					<path id="&lt;Path&gt;" class="shp2" d="M570.64 778.63C571.5 774.54 561.66 766.16 549.89 758.81C547.03 768.45 544.92 778.46 543.63 788.77C557.5 786.81 569.75 782.9 570.64 778.63Z" />
					<path id="&lt;Path&gt;" class="shp2" d="M811.97 695.05C801.58 710.18 791.7 731.81 795.54 736.14C799.14 740.18 817.71 735.06 833.48 727.37C827.45 715.67 820.22 704.83 811.97 695.05Z" />
					<path id="&lt;Path&gt;" class="shp2" d="M833.29 726.99C821.36 739.1 810.32 754.48 812.8 758.96C815.15 763.22 830.89 762.93 846.45 759.92C843.1 748.36 838.66 737.35 833.29 726.99Z" />
					<path id="&lt;Path&gt;" class="shp2" d="M846.2 759.1C834.64 766.38 825.07 774.6 825.92 778.63C826.81 782.84 838.73 786.7 852.37 788.69C851.09 778.51 849.01 768.63 846.2 759.1Z" />
					<path id="&lt;Path&gt;" class="shp16" d="M698 745.25C636.76 745.25 587.11 800.13 587.11 867.83C587.11 880.3 588.81 890.53 591.94 898.94C619.77 909.85 657.03 910.5 698 910.5C738.98 910.5 776.24 909.85 804.06 898.94C807.19 890.53 808.89 880.3 808.89 867.83C808.89 800.13 759.24 745.25 698 745.25Z" />
					<path id="&lt;Path&gt;" class="shp17" d="M820.3 705.77C791.75 665.87 747.59 640.24 698 640.24C648.87 640.24 605.07 665.39 576.49 704.66C605.89 732.32 649.85 749.5 699 749.5C747.49 749.5 790.91 732.77 820.3 705.77Z" />
					<path id="&lt;Path&gt;" class="shp15" d="M676.26 492C640.54 446.67 610.04 429.42 584.76 440.25C557.92 451.75 546.17 497.25 549.51 576.75C626.51 531.25 668.76 503 676.26 492Z" />
					<path id="&lt;Path&gt;" class="shp16" d="M651.41 497.97C629.68 470.38 611.12 459.89 595.73 466.48C579.4 473.48 572.25 501.16 574.28 549.54C621.14 521.85 646.85 504.66 651.41 497.97Z" />
					<path id="&lt;Path&gt;" class="shp18" d="M676.17 491.9C675.79 491.44 674.13 489.48 671.44 486.63C671.41 486.59 671.38 486.56 671.35 486.53C630.58 486.89 581.98 507.53 549.67 545.96C549.2 557.9 549.15 568.16 549.51 576.75C626.51 531.25 668.76 503 676.26 492C676.22 491.96 676.19 491.92 676.17 491.9Z" />
					<path id="&lt;Path&gt;" class="shp15" d="M723.31 492C759.03 446.67 789.53 429.42 814.81 440.25C841.65 451.75 853.4 497.25 850.06 576.75C773.06 531.25 730.81 503 723.31 492Z" />
					<path id="&lt;Path&gt;" class="shp16" d="M748.16 497.97C769.89 470.38 788.45 459.89 803.84 466.48C820.17 473.48 827.32 501.16 825.29 549.54C778.43 521.85 752.72 504.66 748.16 497.97Z" />
					<path id="&lt;Path&gt;" class="shp18" d="M723.4 491.9C723.78 491.44 725.44 489.48 728.13 486.63C728.16 486.59 728.19 486.56 728.22 486.53C768.99 486.89 817.59 507.53 849.9 545.96C850.37 557.9 850.42 568.16 850.06 576.75C773.06 531.25 730.81 503 723.31 492C723.35 491.96 723.38 491.92 723.4 491.9Z" />
					<path id="&lt;Path&gt;" class="shp3" d="M859.25 617.5C859.25 689.85 787.51 730.5 699 730.5C610.5 730.5 538.75 689.85 538.75 617.5C538.75 545.15 610.5 483.5 699 483.5C787.51 483.5 859.25 545.15 859.25 617.5Z" />
					<g id="&lt;Group&gt;">
						<g id="&lt;Group&gt;">
							<path id="&lt;Path&gt;" class="shp14" d="M660.08 579.5C660.08 589.72 652.28 598 642.66 598C633.03 598 625.23 589.72 625.23 579.5C625.23 569.28 633.03 561 642.66 561C652.28 561 660.08 569.28 660.08 579.5Z" />
							<path id="&lt;Path&gt;" class="shp19" d="M643.43 574.93C643.43 578.89 640.41 582.1 636.69 582.1C632.96 582.1 629.94 578.89 629.94 574.93C629.94 570.98 632.96 567.77 636.69 567.77C640.41 567.77 643.43 570.98 643.43 574.93Z" />
							<path id="&lt;Path&gt;" class="shp19" d="M654.7 586.27C654.7 588.64 652.89 590.56 650.66 590.56C648.43 590.56 646.62 588.64 646.62 586.27C646.62 583.9 648.43 581.98 650.66 581.98C652.89 581.98 654.7 583.9 654.7 586.27Z" />
						</g>
						<g id="&lt;Group&gt;">
							<path id="&lt;Path&gt;" class="shp14" d="M772.77 579.5C772.77 589.72 764.96 598 755.34 598C745.72 598 737.92 589.72 737.92 579.5C737.92 569.28 745.72 561 755.34 561C764.96 561 772.77 569.28 772.77 579.5Z" />
							<path id="&lt;Path&gt;" class="shp19" d="M756.12 574.93C756.12 578.89 753.1 582.1 749.37 582.1C745.65 582.1 742.62 578.89 742.62 574.93C742.62 570.98 745.65 567.77 749.37 567.77C753.1 567.77 756.12 570.98 756.12 574.93Z" />
							<path id="&lt;Path&gt;" class="shp19" d="M767.38 586.27C767.38 588.64 765.58 590.56 763.35 590.56C761.12 590.56 759.31 588.64 759.31 586.27C759.31 583.9 761.12 581.98 763.35 581.98C765.58 581.98 767.38 583.9 767.38 586.27Z" />
						</g>
					</g>
					<g id="&lt;Group&gt;">
						<path id="&lt;Path&gt;" class="shp16" d="M772.75 664.75C772.75 690.89 739.73 703.08 699 703.08C658.27 703.08 625.25 690.89 625.25 664.75C625.25 638.61 658.27 608.43 699 608.43C739.73 608.43 772.75 638.61 772.75 664.75Z" />
						<g id="&lt;Group&gt;">
							<path id="&lt;Path&gt;" class="shp20" d="M723.17 622.27C723.17 631.03 712.15 635.21 698.55 635.21C684.95 635.21 673.92 631.03 673.92 622.27C673.92 613.51 684.95 606.41 698.55 606.41C712.15 606.41 723.17 613.51 723.17 622.27Z" />
							<path id="&lt;Path&gt;" class="shp20" d="M726.29 657.8C707.63 640.23 687.66 643.49 672.4 655.38C668.54 658.39 672.47 665.02 676.38 661.96C687.79 653.08 702.25 649.46 720.76 662.36C724.79 665.17 729.09 660.43 726.29 657.8Z" />
							<path id="&lt;Path&gt;" class="shp21" d="M684.67 623.5C681.07 623.5 677.96 625.53 676.31 628.5C679.65 632.32 686.22 634.48 694.12 635.05C694.22 634.46 694.3 633.87 694.3 633.25C694.3 627.87 689.99 623.5 684.67 623.5Z" />
							<path id="&lt;Path&gt;" class="shp21" d="M720.94 628.33C719.26 625.45 716.21 623.5 712.67 623.5C707.36 623.5 703.05 627.87 703.05 633.25C703.05 633.86 703.12 634.45 703.22 635.03C711.13 634.43 717.68 632.22 720.94 628.33Z" />
							<path id="&lt;Path&gt;" class="shp20" d="M694.8 629.05L694.8 649.05C694.8 652.92 702.3 652.82 702.3 648.96L702.3 628.95C702.3 625.08 694.8 625.18 694.8 629.05Z" />
						</g>
					</g>
					<path id="&lt;Path&gt;" class="shp2" d="M699 483.5C689.29 483.5 679.8 484.28 670.56 485.7C670.56 498 689 521.5 699.09 521.5C709 521.5 727.62 496.5 727.62 485.73C718.33 484.29 708.78 483.5 699 483.5Z" />
					<path id="&lt;Path&gt;" class="shp2" d="M571.67 605.47C572.45 596.03 547.17 575.3 547.16 575.3C547.16 575.3 547.16 575.3 547.16 575.31C544.61 581.59 542.62 588.06 541.2 594.67C541.09 595.2 540.97 595.72 540.86 596.25C540.64 597.38 540.45 598.51 540.26 599.65C540.1 600.6 539.95 601.54 539.82 602.49C539.69 603.45 539.56 604.41 539.46 605.38C539.32 606.61 539.21 607.85 539.11 609.1C539.05 609.85 538.98 610.6 538.94 611.36C538.82 613.4 538.75 615.44 538.75 617.5C538.75 620.64 538.93 623.69 539.2 626.71C548 623 571 613.5 571.67 605.47Z" />
					<path id="&lt;Path&gt;" class="shp2" d="M859.25 617.5C859.25 601.99 855.93 586.98 849.88 572.96C844.66 577.42 826.09 593.85 826.77 601.97C827.43 609.96 850.17 619.39 859.08 623.14C859.17 621.28 859.25 619.41 859.25 617.5Z" />
					<g id="&lt;Group&gt;">
						<path id="&lt;Path&gt;" class="shp16" d="M616.66 637.67C607.67 632.35 599.01 627.5 594.01 617.92C592.21 614.49 587.31 617.96 589.08 621.34C594.54 631.8 604.26 637.27 614.06 643.08C617.4 645.05 619.96 639.62 616.66 637.67Z" />
						<path id="&lt;Path&gt;" class="shp16" d="M612.81 648.61C602.31 648.71 593.18 645.68 584.07 640.61C580.7 638.74 577.38 643.75 580.77 645.63C590.76 651.18 600.96 654.71 612.49 654.6C616.34 654.57 616.69 648.57 612.81 648.61Z" />
						<path id="&lt;Path&gt;" class="shp16" d="M610.8 661.32C601.23 664.09 591.88 666.08 581.93 664.37C578.11 663.71 577.05 669.61 580.86 670.27C591.86 672.17 602.29 670.01 612.86 666.95C616.58 665.88 614.5 660.25 610.8 661.32Z" />
					</g>
					<g id="&lt;Group&gt;">
						<path id="&lt;Path&gt;" class="shp16" d="M782.02 637.67C791 632.35 799.66 627.5 804.67 617.92C806.46 614.49 811.37 617.96 809.6 621.34C804.13 631.8 794.42 637.27 784.61 643.08C781.28 645.05 778.72 639.62 782.02 637.67Z" />
						<path id="&lt;Path&gt;" class="shp16" d="M785.86 648.61C796.36 648.71 805.5 645.68 814.61 640.61C817.97 638.74 821.29 643.75 817.91 645.63C807.92 651.18 797.72 654.71 786.18 654.6C782.33 654.57 781.99 648.57 785.86 648.61Z" />
						<path id="&lt;Path&gt;" class="shp16" d="M787.88 661.32C797.44 664.09 806.79 666.08 816.75 664.37C820.56 663.71 821.63 669.61 817.82 670.27C806.82 672.17 796.38 670.01 785.82 666.95C782.1 665.88 784.17 660.25 787.88 661.32Z" />
					</g>
					<path id="&lt;Path&gt;" class="shp8" d="M520.52 789.02C649.72 764.48 791.55 766.09 946 793.86C946.31 903.63 938.91 1002.11 923.81 1089.28C725.35 1098.32 600.46 1100.58 549.14 1096.06C528.19 1008.89 518.65 906.54 520.52 789.02Z" />
					<path id="&lt;Path&gt;" class="shp11" d="M849.43 1092.33C860.41 944.43 862.85 803.29 862.92 781.89C860.24 781.59 857.57 781.31 854.9 781.04C854.45 780.99 854 780.94 853.55 780.9C851.05 780.64 848.58 780.39 846.1 780.16C845.46 780.09 844.82 780.03 844.17 779.97C841.75 779.74 839.33 779.52 836.93 779.3C836.3 779.24 835.67 779.19 835.04 779.13C832.6 778.92 830.16 778.71 827.73 778.51C827.23 778.47 826.72 778.43 826.22 778.39C823.64 778.18 821.08 777.98 818.52 777.79C818.5 777.79 818.48 777.79 818.45 777.78C806.99 776.92 795.72 776.23 784.68 775.68C784.53 775.68 784.38 775.66 784.23 775.66C781.73 775.54 779.25 775.42 776.78 775.31C776.36 775.29 775.95 775.28 775.54 775.25C773.16 775.15 770.79 775.06 768.43 774.97C767.96 774.96 767.5 774.94 767.04 774.92C764.67 774.83 762.32 774.76 759.98 774.68C759.62 774.67 759.26 774.66 758.9 774.65C743.12 774.16 727.88 773.97 713.25 774.02C712.97 774.02 712.7 774.02 712.43 774.02C710.21 774.02 708.01 774.04 705.82 774.05C705.46 774.06 705.09 774.06 704.72 774.06C702.55 774.08 700.39 774.11 698.24 774.14C697.95 774.14 697.67 774.15 697.39 774.15C683.15 774.35 669.55 774.77 656.69 775.33C656.51 775.34 656.33 775.35 656.15 775.35C654.15 775.44 652.18 775.54 650.23 775.63C649.97 775.64 649.71 775.66 649.46 775.67C647.54 775.76 645.63 775.86 643.74 775.96C643.49 775.97 643.23 775.99 642.98 776C641.05 776.11 639.14 776.21 637.25 776.33C637.19 776.33 637.13 776.33 637.07 776.33C626.97 776.93 617.42 777.6 608.45 778.32C608.26 778.34 608.07 778.35 607.88 778.37C606.28 778.5 604.71 778.63 603.15 778.76C602.85 778.79 602.56 778.82 602.26 778.84C600.73 778.97 599.21 779.1 597.72 779.24C597.46 779.26 597.21 779.29 596.96 779.3C595.44 779.44 593.93 779.58 592.45 779.72C592.27 779.74 592.1 779.75 591.92 779.77C583.89 780.53 576.45 781.31 569.65 782.08C569.42 782.1 569.18 782.13 568.95 782.16C567.81 782.29 566.69 782.41 565.59 782.54C565.25 782.58 564.91 782.63 564.58 782.67C563.5 782.79 562.44 782.92 561.39 783.05C561.12 783.08 560.85 783.11 560.58 783.15C559.5 783.28 558.44 783.41 557.4 783.54C557.2 783.56 557.01 783.59 556.82 783.62C555.73 783.75 554.65 783.89 553.6 784.02C553.59 784.03 553.58 784.03 553.57 784.03C550.09 784.48 546.88 784.91 543.92 785.33C543.86 785.34 543.8 785.34 543.74 785.35C542.97 785.46 542.24 785.57 541.5 785.67C541.2 785.71 540.89 785.75 540.59 785.8C539.94 785.89 539.31 785.98 538.68 786.08C538.37 786.12 538.06 786.17 537.75 786.22C537.13 786.3 536.52 786.4 535.92 786.49C535.65 786.53 535.39 786.57 535.13 786.61C534.57 786.69 534.02 786.77 533.5 786.86C533.19 786.9 532.9 786.95 532.61 786.99C532.12 787.07 531.62 787.15 531.16 787.22C530.96 787.25 530.78 787.28 530.58 787.31C528.91 787.58 527.43 787.82 526.17 788.03C526.01 788.06 525.83 788.09 525.68 788.11C525.39 788.16 525.13 788.2 524.87 788.25C524.64 788.29 524.4 788.33 524.19 788.36C523.99 788.4 523.81 788.43 523.62 788.46C523.38 788.5 523.14 788.54 522.93 788.58C522.8 788.6 522.67 788.63 522.54 788.65C522.33 788.69 522.14 788.72 521.96 788.75C521.84 788.78 521.73 788.79 521.62 788.81C521.47 788.84 521.33 788.87 521.21 788.89C521.15 788.9 521.08 788.91 521.03 788.92C520.94 788.94 520.88 788.95 520.81 788.96C520.69 788.98 513.55 789 499.38 789.02C497.51 906.54 507.05 1008.89 528 1096.06C580.37 1100.68 755.99 1095.88 849.43 1092.33Z" />
					<path id="&lt;Path&gt;" class="shp10" d="M946 793.86C911.1 787.58 877.08 783.1 844.43 779.99C844.34 779.99 844.26 779.98 844.17 779.97C844.15 779.96 844.13 779.96 844.11 779.96C841.75 779.74 839.41 779.53 837.06 779.31C837.02 779.31 836.97 779.3 836.93 779.3C836.3 779.24 835.67 779.19 835.04 779.13C834.95 779.13 834.86 779.12 834.76 779.11C817.72 777.62 801.09 776.5 784.93 775.69C784.85 775.69 784.76 775.68 784.68 775.68C784.6 775.68 784.52 775.67 784.44 775.66C781.56 775.52 778.69 775.39 775.84 775.27C775.74 775.27 775.64 775.26 775.54 775.25C775.45 775.25 775.37 775.25 775.28 775.24C773 775.15 770.74 775.06 768.48 774.97C768.46 774.97 768.45 774.97 768.43 774.97C768.38 774.97 768.34 774.97 768.3 774.97C746.48 774.15 725.62 773.89 705.92 774.05C705.89 774.05 705.86 774.05 705.82 774.05C705.46 774.06 705.09 774.06 704.72 774.06C704.63 774.06 704.54 774.06 704.46 774.06C702.15 774.09 699.86 774.11 697.59 774.15C697.52 774.15 697.45 774.15 697.39 774.15C697.3 774.15 697.22 774.15 697.14 774.15C686.55 774.3 676.32 774.57 666.48 774.94C666.47 774.94 666.46 774.94 666.46 774.94C663.37 775.05 660.32 775.17 657.3 775.31C657.1 775.31 656.89 775.32 656.69 775.33C656.56 775.34 656.43 775.34 656.3 775.35C652.05 775.54 647.88 775.74 643.79 775.96C643.78 775.96 643.76 775.96 643.74 775.96C643.49 775.97 643.23 775.99 642.98 776C642.88 776.01 642.78 776.02 642.68 776.02C640.85 776.12 639.02 776.22 637.22 776.33C637.17 776.33 637.12 776.33 637.07 776.33C636.76 776.35 636.47 776.37 636.16 776.39C634 776.52 631.86 776.65 629.75 776.78C629.63 776.79 629.51 776.8 629.38 776.81C620.41 777.39 611.89 778.03 603.87 778.71C603.64 778.72 603.39 778.74 603.15 778.76C602.98 778.78 602.82 778.79 602.65 778.8C601.02 778.95 599.42 779.09 597.83 779.23C597.8 779.23 597.76 779.23 597.72 779.24C597.46 779.26 597.21 779.29 596.96 779.3C596.79 779.32 596.63 779.33 596.47 779.35C595.01 779.48 593.56 779.61 592.14 779.75C592.07 779.75 591.99 779.76 591.92 779.77C591.71 779.79 591.51 779.81 591.31 779.82C582.16 780.69 573.78 781.59 566.25 782.47C566.03 782.5 565.81 782.52 565.59 782.54C565.26 782.58 564.92 782.63 564.59 782.67C563.68 782.77 562.77 782.88 561.89 782.99C561.73 783.01 561.56 783.02 561.39 783.05C561.12 783.08 560.85 783.11 560.58 783.15C560.48 783.16 560.38 783.17 560.28 783.18C558.12 783.45 556.02 783.71 554.01 783.97C553.88 783.98 553.74 784 553.6 784.02C553.59 784.03 553.58 784.03 553.57 784.03C553.45 784.04 553.34 784.05 553.22 784.07C551.76 784.26 550.35 784.45 548.98 784.63C548.7 784.67 548.43 784.71 548.17 784.74C546.65 784.95 545.18 785.15 543.78 785.34C543.76 785.35 543.75 785.35 543.74 785.35C543.7 785.36 543.67 785.36 543.63 785.37C540.86 785.75 538.34 786.12 536.04 786.47C536 786.47 535.96 786.48 535.92 786.49C535.69 786.52 535.47 786.56 535.25 786.59C534.57 786.69 533.92 786.79 533.28 786.89C533.06 786.93 532.83 786.96 532.61 786.99C532.3 787.04 531.99 787.09 531.69 787.14C531.58 787.15 531.49 787.17 531.39 787.18C531.31 787.2 531.23 787.21 531.16 787.22C531.13 787.22 531.1 787.23 531.06 787.24C530.08 787.39 529.18 787.54 528.33 787.68C528.24 787.69 528.15 787.71 528.06 787.72C527.52 787.8 527 787.89 526.51 787.97C526.41 787.99 526.28 788.01 526.17 788.03C526.09 788.04 526 788.06 525.92 788.07C525.61 788.12 525.32 788.17 525.04 788.22C524.98 788.23 524.92 788.24 524.87 788.25C524.64 788.29 524.4 788.33 524.19 788.36C524.07 788.38 523.97 788.4 523.86 788.42C523.4 788.5 522.99 788.57 522.62 788.64C522.59 788.64 522.57 788.64 522.54 788.65C522.33 788.69 522.14 788.72 521.96 788.75C521.84 788.78 521.73 788.79 521.62 788.81C521.47 788.84 521.33 788.87 521.21 788.89C521.18 788.89 521.15 788.9 521.12 788.91C521.05 788.92 521.01 788.92 520.95 788.94C520.9 788.95 520.85 788.95 520.81 788.96C520.69 788.98 513.55 789 499.38 789.02C498.76 828.19 499.96 860.76 502 894.5C625.23 917.82 744.9 927.15 861 922.5C850.78 966.38 823.27 1043.28 784.5 1054.5C739.27 1067.59 584.48 1069.35 522.49 1069.52C524.66 1080.95 526.5 1089.8 528 1096.06C544.87 1097.55 574.54 1098.06 610.13 1097.95C679.24 1098.19 778.97 1094.99 847.34 1092.41C848.03 1092.39 848.74 1092.36 849.43 1092.33C878.71 1091.22 903.5 1090.21 923.81 1089.28C925.29 1080.73 926.67 1072.02 927.96 1063.23C916.18 1062.28 902.66 1059.92 892.5 1054.5C877.04 1046.26 864.69 967.3 861 922.5C897 922.5 918 922.5 941.88 920.99C944.73 873.06 946.1 830.69 946 793.86Z" />
					<path id="&lt;Path&gt;" class="shp9" d="M946.5 789C961.5 827 967.5 858.5 964.5 883.5C963.21 894.24 502 911 480.79 888C470.78 877.15 474.52 844.11 492 788.89C651.33 763.63 802.83 763.67 946.5 789Z" />
					<path id="&lt;Path&gt;" class="shp2" d="M773.63 814.88C783.63 817.38 790.25 814.25 793.5 805.5C796 814.5 801.63 818.63 810.38 817.88C819.84 817.07 824.96 812.07 825.75 802.88C828 810.38 833.5 813.75 842.25 813C851.96 812.17 856.47 806.7 855.76 796.58L844.11 776.26C818.76 774.28 793.67 773.1 769.22 772.52C761.14 783.27 758.78 811.17 773.63 814.88Z" />
					<path id="&lt;Path&gt;" class="shp2" d="M639 816.38C648.72 822.14 657.22 820.6 664.5 811.75C675.5 824.58 686 824.88 696 812.63C713 820.63 723 816.08 726 799L672.88 773.15C621.87 774.95 577.73 778.72 545.81 782.12L629.5 791.25C628.67 803.75 631.83 812.13 639 816.38Z" />
					<path id="&lt;Path&gt;" class="shp22" d="M946.5 789C939.1 787.7 931.71 786.5 924.33 785.37C922.64 785.12 920.95 784.87 919.25 784.62C914.19 783.87 909.14 783.18 904.1 782.51C886.39 780.18 868.64 778.31 850.98 776.83C855.75 791.82 866.29 842.37 862.62 893.6C921.92 890.52 964.11 886.74 964.5 883.5C967.5 858.5 961.5 827 946.5 789Z" />
					<g id="&lt;Group&gt;">
						<path id="&lt;Path&gt;" class="shp23" d="M883.03 623.77C893.58 628.19 908.74 633.06 913.5 627C917.98 621.3 914.05 610.75 909.53 602.28C899.6 608.63 890.64 615.73 883.03 623.77Z" />
						<path id="&lt;Path&gt;" class="shp23" d="M880.75 626.2C872.88 635.03 866.62 644.97 862.5 656.29C874.27 657.02 889.29 656.71 893.25 651C897.73 644.53 888.37 633.52 880.75 626.2Z" />
						<path id="&lt;Path&gt;" class="shp23" d="M891 753.75C890.29 761.6 900 767.25 911.42 773.75C911.45 773.7 911.47 773.66 911.5 773.61C912.13 763.68 911.33 753.61 909.9 743.5C903.04 745.03 891.75 745.5 891 753.75Z" />
						<path id="&lt;Path&gt;" class="shp23" d="M860.99 661.05C858.71 668.64 857.31 676.78 857.02 685.61C856.93 688.56 857.02 691.56 857.25 694.58C868.27 689.68 880.83 683.02 881.25 678C881.68 672.85 870.57 665.99 860.99 661.05Z" />
					</g>
				</g>
				<path id="&lt;Path&gt;" class="shp3" d="M545 782C584.33 761.34 621.5 751.67 656.5 753C709 755 729.05 779.71 726 799C723 818 699 815.5 695.5 795C693.2 807.93 687.7 814.1 679 813.5C669.33 812.84 664.5 806 664.5 793C664.17 806.92 659.17 813.59 649.5 813C638.5 812.34 634.17 803.5 636.5 786.5C613.67 781.39 583.17 779.89 545 782Z" />
				<path id="&lt;Path&gt;" class="shp3" d="M811.53 748.13C779.26 749.58 765.5 769.28 766.27 787.45C766.27 787.56 766.13 787.63 766.08 787.73C765.88 795.16 767.16 808.71 779.09 809.58C788.75 810.29 793.84 803.7 794.35 789.79C794.18 802.78 798.92 809.68 808.58 810.47C817.27 811.18 822.85 805.09 825.32 792.19C828.55 812.73 852.52 815.54 855.76 796.58C858.73 779.26 846.42 747.46 811.53 748.13Z" />
				<path id="&lt;Path&gt;" class="shp11" d="M353.25 642.38C355.94 641.99 355.52 621.63 355.36 611.76C338.71 613.71 322.59 615.79 308.04 617.89C308.38 627.32 309.38 644.31 312.25 646.38C313.46 647.25 315.25 644.41 317.63 637.88C319.46 642.71 321.21 645.46 322.88 646.13C324.54 646.79 327.04 643.92 330.38 637.5C332.88 643 335.63 645.5 338.63 645C339.98 644.78 341.52 641.57 343.25 635.38C347.58 640.38 350.92 642.71 353.25 642.38Z" />
				<g id="&lt;Group&gt;">
					<path id="&lt;Path&gt;" class="shp24" d="M1057.27 675.02C1054.02 645.66 1054.29 629.11 1058.08 625.38C1069.43 614.19 1174.46 598.94 1186.89 605.72C1193.59 609.37 1199.22 628.32 1203.78 662.56L1183.71 666.01C1180.32 641.43 1176 627.67 1170.74 624.71C1159.85 618.59 1084.07 632.86 1078.48 639.95C1076.72 642.17 1076.89 653.43 1078.98 673.73" />
					<g id="&lt;Group&gt;" style="opacity: 0.2;mix-blend-mode: multiply">
						<path id="&lt;Path&gt;" class="shp5" d="M1057.27 675.02L1078.98 673.73C1076.89 653.43 1076.72 642.17 1078.48 639.95C1069.53 647.46 1062.22 656.61 1056.54 667.39C1056.8 670.44 1057.04 672.98 1057.27 675.02Z" />
						<path id="&lt;Path&gt;" class="shp5" d="M1201.67 649.23C1192.23 637.96 1179.79 625.4 1170.74 624.71C1176 627.67 1180.32 641.43 1183.71 666.01L1203.78 662.56C1203.28 658.82 1202.58 654.37 1201.67 649.23Z" />
					</g>
					<path id="&lt;Path&gt;" class="shp24" d="M988.44 705.4C1054.59 697.46 1116.57 691.03 1174.38 686.1C1232.19 681.16 1271.53 677.33 1292.4 674.58C1294.21 656.19 1292.13 646.54 1286.18 645.65C1271.77 643.5 1005.82 669.05 989.66 675.27C981.71 678.33 981.31 688.37 988.44 705.4Z" />
					<path id="&lt;Path&gt;" class="shp6" d="M1053.52 666.25C1019.55 670.11 994.3 673.49 989.66 675.27C981.71 678.33 981.31 688.37 988.44 705.4C1002.54 703.71 1020.01 701.71 1040.85 699.41C1044.97 688.32 1049.24 677.28 1053.52 666.25Z" />
					<path id="&lt;Path&gt;" class="shp25" d="M1286.18 645.65C1282.78 645.14 1265.33 646.18 1240.51 648.14C1243.55 658.53 1246.71 668.88 1249.98 679.19C1270.12 677.19 1284.26 675.65 1292.4 674.58C1294.21 656.19 1292.13 646.54 1286.18 645.65Z" />
				</g>
				<g id="&lt;Group&gt;">
					<path id="&lt;Path&gt;" class="shp0" d="M1154.25 673.5C1148.83 674.66 1145.6 682.02 1142.31 688.98C1151.26 688.14 1160.22 687.33 1169.08 686.56C1164.82 680.52 1160.88 672.08 1154.25 673.5Z" />
				</g>
				<path id="&lt;Path&gt;" class="shp3" d="M1312.13 685.13L1322.25 685.5C1326.18 682.93 1328.27 684.11 1332.56 681.94C1337.38 679.5 1339.13 679.69 1346.5 675.25C1352.31 668.95 1356.18 661.22 1358.77 653.7C1356.47 654.45 1354.34 655.31 1353.38 655.83C1343.43 661.22 1333.5 676.13 1332 675.94C1331.25 675 1336.41 667.98 1339.03 662.92C1341.23 658.68 1347.56 648.75 1345.44 648.03C1343.44 647.44 1339.6 652.3 1334.63 658.5C1331.24 662.73 1324.88 674.25 1323.75 673.69C1321.69 673.69 1334.24 654.24 1332.39 652.17C1326.74 654.3 1321.39 664.25 1318.95 669.4C1316.91 673.72 1312.05 681.14 1312.13 685.13Z" />
				<path id="&lt;Path&gt;" class="shp3" d="M1330.81 695.85C1335.84 698.54 1346.07 703.33 1351.88 701.67C1352.12 698.92 1330.45 690.78 1332.11 689.55C1332.68 688.43 1344.66 693.89 1349.89 695.26C1357.59 697.27 1363.56 698.89 1364.82 697.21C1366.09 695.37 1355.09 691.18 1350.8 689.08C1345.67 686.58 1337.35 684.03 1337.39 682.83C1338.48 681.78 1355.34 687.83 1366.55 686.22C1366.7 686.2 1366.89 686.16 1367.08 686.12C1360.48 679.83 1353.62 676.21 1346.5 675.25C1346.56 675.18 1346.62 675.11 1346.68 675.04C1340.52 675.85 1338.96 676.87 1334.26 677.67C1329.52 678.49 1328.55 680.68 1323.86 680.96L1315.96 687.3C1318.27 690.54 1326.6 693.6 1330.81 695.85Z" />
			</g>
		</g>
	</g>
</svg>