<svg version="1.2" baseProfile="tiny-ps" xmlns="http://www.w3.org/2000/svg" viewBox="0 0 4000 4000" width="4000" height="4000">
	<title>4-04-ai</title>
	<style>
		tspan { white-space:pre }
		.shp0 { fill: #000072 } 
		.shp1 { fill: #726789 } 
		.shp2 { fill: #504563 } 
		.shp3 { fill: #ffffff } 
		.shp4 { fill: #d0cfe5 } 
		.shp5 { fill: #ff8dc1 } 
		.shp6 { fill: #ff459a } 
	</style>
	<g id="Layer 1">
		<g id="&lt;Group&gt;">
			<g id="&lt;Group&gt;">
				<g id="&lt;Group&gt;">
					<g id="&lt;Group&gt;">
						<g id="&lt;Group&gt;">
							<path id="&lt;Path&gt;" class="shp0" d="M3457.5 3104.33C3395.52 3113.83 3333.53 3116.11 3271.55 3117.27C3209.56 3118.59 3147.58 3117.89 3085.59 3117.18L2992.61 3116.6L2899.64 3116.56L2713.68 3116.56L1969.86 3116.56L1226.04 3116.56L854.13 3116.56L761.16 3116.6L714.67 3117.04L668.18 3117.8C637.19 3118.2 606.19 3117.58 575.2 3116.04C559.71 3115.17 544.21 3113.95 528.71 3112.03C513.22 3110.15 497.72 3107.92 482.22 3104.33C478.85 3103.55 476.74 3100.18 477.52 3096.8C478.08 3094.39 479.97 3092.62 482.22 3092.1C497.72 3088.51 513.22 3086.28 528.71 3084.4C544.21 3082.48 559.71 3081.26 575.2 3080.38C606.19 3078.85 637.19 3078.23 668.18 3078.63L714.67 3079.39L761.16 3079.83L854.13 3079.86L1226.04 3079.86L1969.86 3079.86L2713.68 3079.86L2899.64 3079.86L2992.61 3079.83L3085.59 3079.25C3147.58 3078.54 3209.56 3077.84 3271.55 3079.16C3333.53 3080.32 3395.52 3082.6 3457.5 3092.1C3460.88 3092.61 3463.2 3095.77 3462.68 3099.15C3462.26 3101.89 3460.1 3103.93 3457.5 3104.33Z" />
						</g>
					</g>
					<g id="&lt;Group&gt;" style="opacity: 0.302">
						<g id="&lt;Group&gt;">
							<path id="&lt;Path&gt;" class="shp0" d="M3345 3122.2C3345 3159.65 2734.99 3190 1982.5 3190C1230.01 3190 620 3159.65 620 3122.2C620 3084.76 1230.01 3054.41 1982.5 3054.41C2734.99 3054.41 3345 3084.76 3345 3122.2Z" />
						</g>
					</g>
					<g id="&lt;Group&gt;">
						<g id="&lt;Group&gt;">
							<path id="&lt;Path&gt;" class="shp1" d="M3648.84 2100.16C3637.73 2177.35 3613.21 2261.89 3572.61 2346.56C3550.15 2393.47 3522.81 2440.38 3490.06 2486.12C3448.69 2544.08 3398.68 2600.16 3339.2 2651.89C3327.13 2662.39 3314.7 2672.67 3301.87 2682.79C3256.5 2718.54 3189.64 2703.21 3163.67 2651.58C3155.7 2635.74 3152.68 2618.43 3154.33 2601.61C3156.22 2581.8 3164.52 2562.69 3178.83 2547.47C3209 2515.5 3249.6 2464.28 3287.41 2390.28C3311.52 2343.14 3334.48 2286.78 3352.85 2220.21C3370.59 2156.13 3384.11 2082.64 3390.24 1998.83C3392.36 1971 3393.61 1942.02 3393.92 1911.85C3392.71 1807.37 3441.9 1760.38 3541.49 1770.89C3627.83 1779.99 3674.82 1920.05 3648.84 2100.16Z" />
						</g>
					</g>
					<g id="&lt;Group&gt;">
						<g id="&lt;Group&gt;">
							<path id="&lt;Path&gt;" class="shp2" d="M3648.84 2100.16C3637.73 2177.35 3613.21 2261.89 3572.61 2346.56C3531.69 2280.83 3475.1 2241.36 3400.36 2226.19C3383.64 2222.77 3367.6 2221.01 3352.85 2220.21C3370.59 2156.13 3384.11 2082.64 3390.24 1998.83C3404.06 2000.19 3418.46 2002.14 3433.21 2004.79C3515.09 2019.52 3587.63 2051.79 3648.84 2100.16Z" />
						</g>
					</g>
					<g id="&lt;Group&gt;">
						<g id="&lt;Group&gt;">
							<path id="&lt;Path&gt;" class="shp2" d="M3490.06 2486.12C3448.69 2544.08 3398.68 2600.16 3339.2 2651.89C3285.41 2608.33 3206.85 2600.89 3154.33 2601.61C3156.22 2581.8 3164.52 2562.69 3178.83 2547.47C3209 2515.5 3249.6 2464.28 3287.41 2390.28C3367.57 2406.61 3436.14 2439.31 3490.06 2486.12Z" />
						</g>
					</g>
					<g id="&lt;Group&gt;" style="opacity: 0.302">
						<g id="&lt;Group&gt;">
							<path id="&lt;Path&gt;" class="shp0" d="M3541.49 1770.89C3528.26 1769.49 3516.28 1769.51 3505.32 1770.59C3559.49 1817.91 3584.65 1935.28 3564.09 2077.81C3552.98 2155 3528.47 2239.54 3487.87 2324.21C3465.4 2371.12 3438.06 2418.03 3405.31 2463.77C3363.94 2521.73 3313.94 2577.81 3254.46 2629.54C3242.39 2640.03 3229.96 2650.32 3217.13 2660.44C3206.58 2668.75 3194.87 2674.26 3182.78 2677.24C3214.6 2707.21 3265.23 2711.66 3301.87 2682.79C3314.7 2672.67 3327.13 2662.39 3339.2 2651.89C3398.68 2600.16 3448.69 2544.08 3490.06 2486.12C3522.81 2440.38 3550.15 2393.47 3572.61 2346.56C3613.21 2261.89 3637.73 2177.35 3648.84 2100.16C3674.82 1920.05 3627.83 1779.99 3541.49 1770.89Z" />
						</g>
					</g>
					<g id="&lt;Group&gt;" style="opacity: 0.6">
						<g id="&lt;Group&gt;">
							<path id="&lt;Path&gt;" class="shp3" d="M3212.13 2647.63C3204.15 2631.79 3201.13 2614.48 3202.78 2597.66C3204.68 2577.85 3212.97 2558.73 3227.29 2543.52C3257.46 2511.54 3298.06 2460.33 3335.87 2386.32C3359.97 2339.19 3382.93 2282.83 3401.3 2216.26C3419.05 2152.18 3432.56 2078.69 3438.7 1994.88C3440.82 1967.05 3442.06 1938.07 3442.38 1907.9C3441.55 1832.12 3471.79 1786.24 3533.1 1770.28C3439.22 1764.25 3392.83 1811.44 3393.92 1911.85C3393.61 1942.02 3392.36 1971 3390.24 1998.83C3384.11 2082.64 3370.59 2156.13 3352.85 2220.21C3334.48 2286.78 3311.52 2343.14 3287.41 2390.28C3249.6 2464.28 3209 2515.5 3178.83 2547.47C3164.52 2562.69 3156.22 2581.8 3154.33 2601.61C3152.68 2618.43 3155.7 2635.74 3163.67 2651.58C3185.23 2694.43 3234.93 2712.24 3277.15 2696.64C3250.26 2691.52 3225.65 2674.51 3212.13 2647.63Z" />
						</g>
					</g>
					<g id="&lt;Group&gt;">
						<g id="&lt;Group&gt;">
							<path id="&lt;Compound Path&gt;" fill-rule="evenodd" class="shp0" d="M3245.87 2716.44C3238.2 2716.44 3230.48 2715.61 3222.81 2713.9C3191.54 2706.95 3165.37 2686.56 3150.98 2657.97C3150.98 2657.97 3150.98 2657.97 3150.98 2657.97C3131.04 2618.34 3138.08 2570.03 3168.5 2537.76C3245.69 2455.85 3375.79 2265.59 3379.73 1911.69C3379.69 1908.83 3379.4 1833.51 3429.14 1788.2C3457.5 1762.38 3495.83 1751.82 3542.97 1756.78C3593.66 1762.12 3633.15 1805.14 3654.16 1877.93C3707.44 2062.47 3636.09 2437.66 3310.65 2693.96C3291.96 2708.68 3269.2 2716.44 3245.87 2716.44ZM3176.33 2645.22C3186.87 2666.16 3206.06 2681.1 3228.97 2686.19C3251.61 2691.24 3274.98 2685.93 3293.09 2671.67C3470.59 2531.87 3555.9 2366.76 3596.2 2252.88C3643.33 2119.7 3654.8 1982.48 3626.89 1885.8C3609.29 1824.85 3578.44 1789.05 3540 1785C3501.29 1780.92 3470.47 1789.02 3448.38 1809.08C3408.05 1845.67 3408.1 1911.05 3408.11 1911.7C3404.06 2275.55 3269.19 2472.3 3189.15 2557.22C3166.89 2580.85 3161.74 2616.21 3176.33 2645.22L3176.33 2645.22Z" />
						</g>
					</g>
					<g id="&lt;Group&gt;">
						<g id="&lt;Group&gt;">
							<path id="&lt;Path&gt;" class="shp1" d="M3327.25 2890.14C3323.78 2994.37 3284.22 3062.12 3208.55 3093.39C2997.45 3093.39 2782.45 3093.39 2563.55 3093.39L2330.55 3093.39C2069.12 3093.39 1939.28 3057.67 1941.05 2986.24L1665.7 2986.24C1575.05 2926.24 1557.55 2840.94 1569.85 2759.34C1572.1 2744.49 1575.3 2729.79 1579.2 2715.39C1594.15 2660.64 1619.5 2610.14 1641.05 2573.59C1642.8 2570.59 1644.75 2567.69 1646.9 2564.94C1665.65 2539.94 1696.25 2526.44 1727.3 2529.14C1731.95 2529.54 1736.65 2530.34 1741.3 2531.49C2333.1 2678.59 2636.95 2409.64 2755.3 2259.19C2755.3 2259.15 2755.32 2259.12 2755.35 2259.09C2759.6 2253.69 2763.6 2248.44 2767.4 2243.34C2791.1 2211.44 2838.6 2209.14 2864.15 2239.59C2865.8 2241.59 2867.5 2243.54 2869.15 2245.44C2870.55 2247.04 2871.95 2248.59 2873.35 2250.14C2889.95 2268.59 2907.45 2284.69 2925.55 2299.39C2961 2328.19 2998.9 2351.89 3037.35 2378.24C3055.45 2390.64 3073.65 2403.59 3091.8 2417.99C3130.1 2448.29 3168.05 2484.79 3203.85 2535.04C3214.85 2550.49 3225.65 2567.24 3236.15 2585.49C3251.5 2612.09 3266.3 2641.84 3280.35 2675.54C3283.2 2682.34 3285.9 2689.09 3288.45 2695.69C3301.95 2730.59 3311.45 2762.64 3317.65 2791.99C3321.05 2807.84 3323.45 2822.94 3325.05 2837.24C3327.15 2856.14 3327.8 2873.74 3327.25 2890.14Z" />
						</g>
					</g>
					<g id="&lt;Group&gt;">
						<g id="&lt;Group&gt;">
							<path id="&lt;Path&gt;" class="shp3" d="M3327.25 2890.14C3323.78 2994.37 3284.22 3062.12 3208.55 3093.39C2997.45 3093.39 2782.45 3093.39 2563.55 3093.39L2330.55 3093.39C2069.12 3093.39 1939.28 3057.67 1941.05 2986.24L1665.7 2986.24C1575.05 2926.24 1557.55 2840.94 1569.85 2759.34C1687.85 2912.9 1804.1 2933.52 1918.6 2821.19C1869.86 2780.4 1820.74 2751.69 1771.22 2735.04C1764.43 2732.76 1764.87 2723.05 1771.79 2721.2C1789.14 2716.59 1806.25 2708.32 1803.4 2693.84C1798.2 2667.39 1695.95 2655.74 1646.9 2564.94C1665.65 2539.94 1696.25 2526.44 1727.3 2529.14C1823.83 2555.07 1960.12 2609.97 2136.15 2693.84C1994.19 2775.85 1974.64 2831.65 2077.5 2861.24C2168.59 2887.44 2240.54 2877.25 2271.88 2867.24C2283.25 2863.61 2295.37 2863.15 2307.03 2865.7C2378.62 2881.31 2633.75 2925.74 2743.3 2794.94C2964.07 2946.9 3155.52 2945.92 3317.65 2791.99C3321.05 2807.84 3323.45 2822.94 3325.05 2837.24C3327.15 2856.14 3327.8 2873.74 3327.25 2890.14Z" />
						</g>
					</g>
					<g id="&lt;Group&gt;">
						<g id="&lt;Group&gt;">
							<path id="&lt;Path&gt;" class="shp2" d="M1902.01 2811.09C1861.33 2803.91 1821.77 2805.78 1783.32 2816.71C1779.43 2817.81 1776.99 2812.7 1780.32 2810.39C1798.18 2798.01 1830.57 2781.41 1872.96 2784.48L1902.01 2811.09Z" />
						</g>
					</g>
					<g id="&lt;Group&gt;">
						<g id="&lt;Group&gt;">
							<path id="&lt;Path&gt;" class="shp2" d="M1828.48 2763.3C1792.15 2756.88 1757.1 2758.73 1723.34 2768.83C1720.49 2769.68 1718.62 2765.84 1721.02 2764.1C1736.01 2753.28 1764.93 2737.46 1803.3 2740.24L1828.48 2763.3Z" />
						</g>
					</g>
					<g id="&lt;Group&gt;">
						<g id="&lt;Group&gt;">
							<path id="&lt;Path&gt;" class="shp2" d="M2020.52 2757.31C2075.58 2762.63 2121.7 2780.8 2158.85 2811.82C2161.19 2813.77 2164.53 2811.16 2163.08 2808.48C2151.79 2787.58 2123.46 2746.12 2068.39 2725.4L2020.52 2757.31Z" />
						</g>
					</g>
					<g id="&lt;Group&gt;">
						<g id="&lt;Group&gt;">
							<path id="&lt;Path&gt;" class="shp2" d="M2925.55 2299.39C2923.2 2302.79 2920.85 2306.14 2918.4 2309.49C2901.15 2333.24 2882.45 2355.89 2861.15 2376.14C2840.25 2396.69 2816.95 2414.94 2791.5 2429.99C2790.15 2430.79 2788.4 2430.39 2787.6 2429.04C2787.15 2428.24 2787.1 2427.34 2787.4 2426.59L2787.45 2426.44C2790.1 2419.44 2793.05 2412.79 2796 2406.19C2799 2399.64 2802.15 2393.34 2804.9 2386.69L2822.55 2348.49C2834.4 2323.34 2845.65 2298.44 2856.75 2273.79C2861 2264.34 2865.15 2254.89 2869.15 2245.44C2887 2265.89 2905.9 2283.44 2925.55 2299.39Z" />
						</g>
					</g>
					<g id="&lt;Group&gt;">
						<g id="&lt;Group&gt;">
							<path id="&lt;Path&gt;" class="shp2" d="M3091.8 2417.99C3078.3 2435.29 3063.85 2451.74 3047.95 2466.84C3027.05 2487.34 3003.75 2505.64 2978.3 2520.69C2976.95 2521.49 2975.2 2521.04 2974.4 2519.69C2973.95 2518.94 2973.9 2518.04 2974.2 2517.24L2974.25 2517.09C2976.9 2510.09 2979.85 2503.49 2982.8 2496.89C2985.8 2490.34 2988.95 2483.99 2991.7 2477.39L3009.4 2439.14C3019 2418.69 3028.25 2398.39 3037.35 2378.24C3055.45 2390.64 3073.65 2403.59 3091.8 2417.99Z" />
						</g>
					</g>
					<g id="&lt;Group&gt;">
						<g id="&lt;Group&gt;">
							<path id="&lt;Path&gt;" class="shp2" d="M3236.15 2585.49C3233.55 2588.09 3230.95 2590.69 3228.25 2593.24C3207.35 2613.74 3184.1 2631.99 3158.6 2647.09C3157.25 2647.89 3155.5 2647.44 3154.7 2646.09C3154.25 2645.34 3154.2 2644.44 3154.5 2643.64L3154.55 2643.49C3157.25 2636.49 3160.2 2629.89 3163.1 2623.29C3166.1 2616.74 3169.3 2610.39 3172.05 2603.79L3189.7 2565.54C3194.5 2555.34 3199.2 2545.19 3203.85 2535.04C3214.85 2550.49 3225.65 2567.24 3236.15 2585.49Z" />
						</g>
					</g>
					<g id="&lt;Group&gt;">
						<g id="&lt;Group&gt;">
							<path id="&lt;Path&gt;" class="shp2" d="M2109.54 2694.63C2164.6 2699.96 2210.72 2718.13 2247.87 2749.14C2250.21 2751.09 2253.55 2748.48 2252.1 2745.8C2240.81 2724.91 2212.48 2683.45 2157.41 2662.73L2109.54 2694.63Z" />
						</g>
					</g>
					<g id="&lt;Group&gt;" style="opacity: 0.302">
						<g id="&lt;Group&gt;">
							<path id="&lt;Path&gt;" class="shp0" d="M1641.55 2544.82C1642.38 2588.59 1690.09 2631.87 1784.67 2674.65C1803.84 2683.32 1800.9 2711.31 1780.34 2715.8C1779.73 2715.93 1779.13 2716.07 1778.52 2716.2C1768.72 2718.38 1768.24 2732.19 1777.86 2735.07C1823.91 2748.88 1900 2784.6 1947.5 2875.14C1972.62 2787.87 2035.5 2727.43 2136.16 2693.81C1938.52 2702.34 1773.65 2652.68 1641.55 2544.82Z" />
						</g>
					</g>
					<g id="&lt;Group&gt;" style="opacity: 0.302">
						<g id="&lt;Group&gt;">
							<path id="&lt;Path&gt;" class="shp0" d="M2889.69 2383.31C2841.4 2499.91 2722.34 2579.82 2532.5 2623.04C2403.93 2702.34 2261.25 2730.09 2104.45 2706.29C2567.7 2569.59 2713.6 2349.09 2755.3 2259.19C2755.3 2259.15 2755.32 2259.12 2755.35 2259.09C2759.6 2253.69 2763.6 2248.44 2767.4 2243.34C2791.1 2211.44 2838.6 2209.14 2864.15 2239.59C2865.8 2241.59 2867.5 2243.54 2869.15 2245.44C2870.55 2247.04 2871.95 2248.59 2873.35 2250.14C2866.83 2294.28 2881.68 2338.94 2889.8 2359.1C2892.93 2366.87 2892.9 2375.56 2889.69 2383.31Z" />
						</g>
					</g>
					<g id="&lt;Group&gt;" style="opacity: 0.302">
						<g id="&lt;Group&gt;">
							<path id="&lt;Path&gt;" class="shp0" d="M3327.25 2890.14C3323.78 2994.37 3284.22 3062.12 3208.55 3093.39C2997.45 3093.39 2782.45 3093.39 2563.55 3093.39L2330.55 3093.39C2069.12 3093.39 1939.28 3057.67 1941.05 2986.24L1665.7 2986.24C1575.05 2926.24 1557.55 2840.94 1569.85 2759.34C1572.1 2744.49 1575.3 2729.79 1579.2 2715.39L1581.05 2715.19C1598.22 2910.89 1720.37 2974.1 1947.5 2904.84C2004.9 2945.37 2113.87 2947.72 2274.4 2911.89C2283.8 2909.79 2293.4 2909.39 2302.95 2910.54C2351.55 2916.29 2515.45 2928.64 2643 2854.19C2667.95 2839.64 2685.05 2814.89 2691.6 2786.79C2708.9 2712.49 2776.4 2556.44 3037.5 2577.94C3023.35 2577.54 2796.7 2574.49 2733.1 2829.84C2772.2 2826.27 2826.02 2846.25 2894.55 2889.79C2890.65 2888.99 2763.05 2862.54 2667.25 2918.99C2650.45 2928.89 2650.25 2953.39 2666.85 2963.64C2702.3 2985.54 2767.9 3014.94 2859.3 3009.84C2986.85 3002.64 3296.43 2983.04 3288.45 2695.69C3309.2 2749.39 3320.55 2796.34 3325.05 2837.24C3327.15 2856.14 3327.8 2873.74 3327.25 2890.14Z" />
						</g>
					</g>
					<g id="&lt;Group&gt;" style="opacity: 0.502">
						<g id="&lt;Group&gt;">
							<path id="&lt;Path&gt;" class="shp3" d="M2764.43 2886.64C2763.86 2728.63 2854.88 2625.73 3037.5 2577.94C2916.48 2574.85 2830.81 2621.06 2780.49 2716.56C2730.16 2812.07 2712.69 2870.95 2728.06 2893.2L2764.43 2886.64Z" />
						</g>
					</g>
					<g id="&lt;Group&gt;">
						<g id="&lt;Group&gt;">
							<g id="&lt;Group&gt;">
								<path id="&lt;Path&gt;" class="shp0" d="M1899.63 2969.38C1899.55 2969.34 1899.42 2969.3 1899.24 2969.25L1899.45 2969.26C1899.59 2969.27 1899.69 2969.33 1899.94 2969.33C1900.4 2969.34 1900.78 2969.49 1901.29 2969.44C1902.26 2969.53 1903.24 2969.49 1904.25 2969.4C1905.26 2969.39 1906.19 2969 1907.2 2968.94C1908.12 2968.52 1909.09 2968.31 1910.04 2967.91C1913.78 2966.36 1917.36 2963.07 1920.47 2958.43C1926.86 2949.22 1930.66 2935.5 1932.57 2921.53C1932.97 2917.97 1933.65 2914.49 1933.85 2910.85L1934.44 2899.89C1934.51 2898.1 1934.72 2896.15 1934.68 2894.49L1934.54 2889.58C1934.65 2886.27 1933.85 2883.06 1933.55 2879.78C1931.46 2866.76 1925.93 2854.11 1918.32 2842.35C1902.66 2818.96 1879.66 2798.98 1854.43 2782.62C1829.19 2766 1802.26 2751.32 1774.65 2736.67L1774.62 2736.65C1774.03 2736.34 1773.81 2735.61 1774.12 2735.03C1774.36 2734.57 1774.86 2734.33 1775.35 2734.4C1791.07 2736.62 1806.31 2740.84 1821.24 2746.07C1828.74 2748.6 1836.03 2751.69 1843.36 2754.78C1850.56 2758.1 1857.78 2761.48 1864.78 2765.32C1878.79 2772.98 1892.4 2781.65 1905.25 2791.72C1918.06 2801.79 1930.29 2813.2 1940.25 2827.05C1950.21 2840.77 1958.45 2856.69 1962.15 2874.24C1962.82 2878.65 1963.94 2883.03 1964.07 2887.52L1964.52 2894.23C1964.63 2896.44 1964.51 2898.37 1964.51 2900.46L1964.33 2912.77C1964.26 2916.87 1963.68 2921.09 1963.36 2925.25C1961.52 2941.87 1958.57 2959.35 1948.22 2976.48C1945.9 2980.77 1942.25 2984.79 1938.73 2988.69C1936.68 2990.52 1934.59 2992.31 1932.46 2994.06C1930.19 2995.68 1927.68 2997.1 1925.25 2998.54C1922.71 2999.82 1919.98 3000.84 1917.31 3001.88C1914.53 3002.59 1911.75 3003.48 1908.89 3003.82C1906.04 3004.26 1903.16 3004.49 1900.24 3004.43C1898.81 3004.47 1897.27 3004.25 1895.79 3004.14C1895.08 3004.09 1894.22 3003.95 1893.41 3003.81L1892.18 3003.57L1890.37 3003.13C1881.05 3000.57 1875.57 2990.94 1878.12 2981.62C1880.68 2972.3 1890.31 2966.82 1899.63 2969.38Z" />
							</g>
						</g>
						<g id="&lt;Group&gt;">
							<g id="&lt;Group&gt;">
								<g id="&lt;Group&gt;">
									<path id="&lt;Path&gt;" class="shp0" d="M2056.52 3013.66C1942.6 3013.66 1921.48 2985.08 1917.69 2972.8L1951.13 2962.48C1950.52 2960.49 1949.86 2959.63 1949.86 2959.62C1950 2959.81 1965.6 2978.66 2056.52 2978.66C2166.97 2978.66 2287.3 2958.49 2288.5 2958.28C2289.99 2958.03 2291.51 2957.97 2293.02 2958.11C2295.78 2958.36 2570.42 2981.52 2715.46 2844.11L2739.54 2869.52C2588.53 3012.58 2321.74 2995.54 2292.14 2993.16C2274.57 2996.05 2162.96 3013.66 2056.52 3013.66Z" />
								</g>
							</g>
							<g id="&lt;Group&gt;">
								<g id="&lt;Group&gt;">
									<path id="&lt;Path&gt;" class="shp0" d="M1933.67 2872.6C1934.08 2870.41 1934.48 2868.96 1934.88 2867.27C1935.26 2865.57 1935.75 2864.08 1936.2 2862.5C1937.07 2859.32 1938.12 2856.3 1939.19 2853.29C1940.19 2850.23 1941.36 2847.27 1942.6 2844.36C1943.86 2841.45 1944.92 2838.42 1946.36 2835.62C1949.11 2829.93 1951.78 2824.19 1955.02 2818.79L1959.7 2810.59L1964.9 2802.72C1978.84 2781.79 1995.9 2763.17 2014.7 2746.7C2024.47 2738.96 2034.03 2730.86 2044.62 2724.31L2052.39 2719.13C2054.95 2717.35 2057.58 2715.69 2060.33 2714.27L2076.62 2705.27C2081.98 2702.09 2087.67 2699.7 2093.3 2697.16L2110.23 2689.57C2121.72 2685.14 2133.39 2681.23 2144.99 2677.05L2155.04 2710.58C2144.3 2714.19 2133.42 2717.53 2122.75 2721.34L2107.12 2727.91C2101.91 2730.11 2096.62 2732.15 2091.73 2734.93L2076.75 2742.73C2074.2 2743.96 2071.8 2745.4 2069.46 2746.95L2062.36 2751.45C2052.61 2757.11 2043.97 2764.19 2034.99 2770.89C2017.87 2785.21 2002.32 2801.38 1989.57 2819.55L1984.8 2826.37L1980.52 2833.48C1977.53 2838.16 1975.12 2843.11 1972.59 2848.01C1971.24 2850.43 1970.31 2853 1969.15 2855.49C1968.01 2857.99 1966.93 2860.51 1966.04 2863.06C1965.07 2865.6 1964.11 2868.14 1963.36 2870.66C1962.97 2871.92 1962.5 2873.22 1962.21 2874.41L1961.35 2877.71L1933.67 2872.6Z" />
								</g>
							</g>
							<g id="&lt;Group&gt;">
								<g id="&lt;Group&gt;">
									<path id="&lt;Path&gt;" class="shp0" d="M3038.21 2578.03C3017.48 2580.68 2997.32 2585.04 2977.68 2590.6C2958.05 2596.18 2938.94 2602.98 2920.73 2611.37C2884.28 2627.96 2850.99 2650.56 2824.84 2679.75C2811.62 2694.14 2799.76 2709.8 2790.17 2726.86L2786.4 2733.14L2783.05 2739.68C2780.87 2744.06 2778.46 2748.31 2776.45 2752.78C2772.66 2761.85 2768.45 2770.7 2765.42 2780.1C2763.8 2784.75 2761.98 2789.32 2760.51 2794.03L2756.44 2808.28L2754.39 2815.41L2752.73 2822.66L2749.38 2837.17C2747.31 2846.89 2745.99 2856.81 2744.23 2866.63L2740.67 2896.48L2740.53 2897.61C2739.75 2904.14 2735.33 2909.35 2729.56 2911.49L2729.56 2911.49C2725.37 2913.18 2720.21 2915.56 2715.56 2917.83C2710.8 2920.16 2706.09 2922.66 2701.41 2925.22C2692.08 2930.4 2682.99 2936.03 2674.22 2942.05C2656.64 2954.07 2640.49 2967.91 2626.45 2983.32C2612.57 2998.82 2600.89 3016.01 2593.08 3034.66C2585.08 3053.24 2581.27 3073.22 2581.07 3093.39L2581.07 3093.68C2580.97 3103.34 2573.06 3111.1 2563.4 3111.01C2553.74 3110.92 2545.98 3103.06 2546.07 3093.39C2546.24 3068.68 2551.06 3043.73 2560.85 3021.02C2570.42 2998.2 2584.41 2977.78 2600.47 2959.87C2616.67 2942.07 2634.9 2926.55 2654.38 2913.21C2664.12 2906.53 2674.14 2900.32 2684.45 2894.61C2689.62 2891.77 2694.83 2889.01 2700.16 2886.41C2705.6 2883.77 2710.62 2881.39 2716.85 2878.88L2716.87 2878.87L2705.76 2893.87C2708.2 2851.22 2716.27 2808.28 2731.77 2767.53C2747.07 2726.82 2770.95 2688.6 2802.29 2657.9C2817.96 2642.59 2835.31 2629.07 2853.86 2617.72C2872.44 2606.41 2892.27 2597.42 2912.64 2590.63C2933.02 2583.84 2954.03 2579.47 2975.12 2577.23C2985.66 2576.09 2996.24 2575.52 3006.79 2575.63C3017.32 2575.69 3027.87 2576.33 3038.21 2578.03Z" />
								</g>
							</g>
							<g id="&lt;Group&gt;">
								<g id="&lt;Group&gt;">
									<path id="&lt;Path&gt;" class="shp0" d="M2715.71 2879.37C2718.43 2878.16 2720.07 2877.56 2722.13 2876.81C2724.11 2876.05 2726.03 2875.54 2727.97 2874.91C2731.83 2873.8 2735.66 2872.7 2739.49 2871.87C2743.31 2870.92 2747.16 2870.23 2750.99 2869.61C2754.82 2868.88 2758.66 2868.46 2762.49 2868.01C2777.83 2866.28 2793.13 2866.12 2808.24 2867.02C2815.78 2867.62 2823.3 2868.17 2830.73 2869.42C2838.19 2870.3 2845.52 2871.97 2852.83 2873.49C2860.13 2875.04 2867.27 2877.3 2874.4 2879.32C2881.45 2881.7 2888.43 2884.25 2895.29 2886.97C2896.81 2887.57 2897.55 2889.29 2896.95 2890.81C2896.49 2891.98 2895.36 2892.69 2894.17 2892.67L2893.99 2892.67C2886.64 2892.58 2879.44 2892.04 2872.23 2891.84C2865 2891.87 2857.89 2891.34 2850.75 2891.55C2836.52 2891.44 2822.43 2892.17 2808.54 2893.29C2794.66 2894.71 2780.98 2896.67 2767.69 2899.63C2761.06 2901.14 2754.48 2902.75 2748.15 2904.72C2744.93 2905.61 2741.85 2906.71 2738.8 2907.78L2734.38 2909.48C2733.03 2909.98 2731.3 2910.71 2730.72 2910.99L2730.28 2911.19C2721.54 2915.31 2711.11 2911.55 2707 2902.81C2702.88 2894.06 2706.64 2883.64 2715.38 2879.52C2715.46 2879.48 2715.63 2879.41 2715.71 2879.37Z" />
								</g>
							</g>
							<g id="&lt;Group&gt;">
								<g id="&lt;Group&gt;">
									<path id="&lt;Path&gt;" class="shp0" d="M2625.75 3095.52C2625.13 3091.1 2625.19 3088.01 2625.34 3084.31C2625.53 3080.75 2625.93 3077.22 2626.64 3073.7C2628.04 3066.68 2630.14 3059.67 2633.75 3053.04C2637.14 3046.39 2641.95 3040.13 2648.14 3035.55C2654.52 3031.1 2662.07 3028.75 2669.11 3029.64C2664.96 3035.63 2662.52 3040.72 2661.14 3045.83C2659.82 3050.98 2659.38 3055.97 2659.02 3060.96C2658.83 3066.01 2659.06 3071.19 2659.41 3076.37L2660 3084.13C2660.05 3085.42 2660.26 3086.68 2660.29 3087.95C2660.4 3089.12 2660.5 3090.64 2660.5 3091.27L2625.75 3095.52Z" />
								</g>
							</g>
							<g id="&lt;Group&gt;">
								<g id="&lt;Group&gt;">
									<path id="&lt;Path&gt;" class="shp0" d="M2712.65 3097.59C2711.54 3094.91 2711.19 3093.3 2710.81 3091.2C2710.56 3089.24 2710.4 3087.25 2710.52 3085.28C2710.68 3081.32 2711.48 3077.4 2712.32 3073.54C2714.09 3065.82 2716.94 3058.23 2721.07 3051.37C2725.16 3044.49 2731.15 3038.73 2737.52 3034.69C2743.87 3030.44 2751.14 3028.71 2757.8 3027.69L2759.34 3031.59C2754.47 3035.88 2750.09 3039.99 2747.55 3045.06C2744.81 3049.88 2743.3 3054.86 2743.01 3060C2742.53 3065.05 2742.95 3070.15 2744.06 3075.17C2744.56 3077.68 2745.41 3080.16 2746.09 3082.56C2746.38 3083.78 2746.66 3084.96 2746.79 3086.16C2746.88 3087.22 2747.04 3088.76 2746.63 3089.19L2712.65 3097.59Z" />
								</g>
							</g>
							<g id="&lt;Group&gt;">
								<g id="&lt;Group&gt;">
									<path id="&lt;Path&gt;" class="shp0" d="M2079.74 2998.12C2078.76 2992.84 2078.63 2988.86 2078.58 2984.29C2078.61 2979.86 2078.83 2975.45 2079.48 2971.05C2080.6 2962.26 2082.89 2953.54 2086.28 2945.18C2089.81 2936.83 2094.65 2928.91 2100.82 2922.28C2107.12 2915.7 2114.99 2910.8 2123.21 2908.57C2119.11 2916.25 2116.35 2923.24 2114.6 2930.3C2113.05 2937.46 2112.27 2944.4 2111.97 2951.38C2111.71 2958.39 2112.1 2965.41 2112.54 2972.39L2114.3 2992.6L2079.74 2998.12Z" />
								</g>
							</g>
							<g id="&lt;Group&gt;">
								<g id="&lt;Group&gt;">
									<path id="&lt;Path&gt;" class="shp0" d="M1998.49 2997.05C1997.52 2991.19 1997.3 2986.48 1997.25 2981.25C1997.17 2978.69 1997.29 2976.14 1997.43 2973.59C1997.52 2971.05 1997.7 2968.5 1998.03 2965.96C1998.54 2960.89 1999.34 2955.82 2000.49 2950.8C2001.08 2948.29 2001.59 2945.79 2002.27 2943.29L2004.62 2935.89C2007.92 2926.06 2012.74 2916.59 2019 2908.21C2025.63 2900.01 2033.79 2892.98 2043.26 2889.28C2039.31 2898.77 2036.61 2907.23 2034.85 2915.84C2033.19 2924.49 2032.39 2933 2031.73 2941.51C2031.38 2950.1 2031.45 2958.69 2031.79 2967.27C2031.96 2971.56 2032.16 2975.86 2032.45 2980.12L2033.18 2992.38L1998.49 2997.05Z" />
								</g>
							</g>
							<g id="&lt;Group&gt;">
								<g id="&lt;Group&gt;">
									<path id="&lt;Path&gt;" class="shp0" d="M1746.2 2982.87C1746.21 2983.07 1746.33 2982.69 1746.43 2982.48C1746.52 2982.27 1746.62 2981.95 1746.72 2981.66L1747.33 2979.79C1747.76 2978.52 1748.09 2977.11 1748.46 2975.74C1749.05 2972.92 1749.78 2970.03 1750.22 2967.05C1750.74 2964.07 1751.01 2961.04 1751.27 2957.95C1751.57 2954.86 1751.72 2951.73 1751.72 2948.56C1751.64 2942.24 1751.14 2935.77 1750.16 2929.18C1749.33 2922.52 1747.92 2915.82 1746.61 2908.57C1752.32 2913.04 1757.59 2918.3 1761.82 2924.35C1766.29 2930.3 1769.59 2937.02 1772.59 2944C1775.64 2950.99 1777.79 2958.42 1779.17 2966.12C1779.89 2969.97 1780.43 2973.91 1780.64 2977.92C1780.71 2979.95 1780.82 2981.95 1780.77 2984.06C1780.77 2985.09 1780.75 2986.16 1780.66 2987.27L1780.51 2988.97C1780.44 2989.59 1780.41 2990.06 1780.22 2991.09L1746.2 2982.87Z" />
								</g>
							</g>
							<g id="&lt;Group&gt;">
								<g id="&lt;Group&gt;">
									<path id="&lt;Path&gt;" class="shp0" d="M1840.35 2982.78C1841.18 2980.36 1842.24 2977 1843.08 2974C1843.93 2970.9 1844.87 2967.77 1845.67 2964.61C1846.52 2961.45 1847.23 2958.26 1847.89 2955.06C1848.66 2951.85 1849.28 2948.64 1849.88 2945.38C1850.96 2938.9 1851.59 2932.36 1851.98 2925.68C1852.25 2919.02 1852.3 2912.23 1851.61 2904.82C1857.06 2909.82 1861.28 2916.29 1864.44 2923.13C1867.55 2930.01 1869.52 2937.26 1871.23 2944.58C1872.93 2951.9 1873.97 2959.32 1874.53 2966.78C1874.84 2970.51 1875.09 2974.26 1875.07 2978.02C1875.07 2981.87 1875.11 2985.35 1874.65 2989.72L1840.35 2982.78Z" />
								</g>
							</g>
						</g>
					</g>
					<g id="&lt;Group&gt;">
						<g id="&lt;Group&gt;">
							<path id="&lt;Compound Path&gt;" fill-rule="evenodd" class="shp0" d="M3208.57 3110.74L2330.54 3110.74C2077.9 3110.74 1981.54 3066.31 1945.2 3029.05C1936.01 3019.63 1930.74 3010.82 1927.72 3003.59L1665.71 3003.59C1662.31 3003.59 1658.98 3002.59 1656.14 3000.71C1576.19 2947.78 1540.68 2871.25 1550.6 2773.22C1558.68 2693.35 1596.11 2615.79 1626.08 2564.79C1650.18 2523.79 1699.27 2503.17 1745.49 2514.67C2353.72 2665.86 2653.02 2368.03 2753.48 2232.97C2768.19 2213.19 2790.74 2201.44 2815.34 2200.71C2839.37 2200.14 2862.03 2210.1 2877.42 2228.42C2918.88 2277.81 2967.09 2310.12 3018.12 2344.32C3111.03 2406.59 3216.34 2477.17 3296.36 2668.86C3349.97 2797.26 3359.24 2905.72 3323.93 2991.22C3287.85 3078.57 3218.15 3108.2 3215.19 3109.42C3213.09 3110.29 3210.84 3110.74 3208.57 3110.74ZM1958.47 2986.2C1959.77 2992.89 1983.31 3076.05 2330.54 3076.05L3204.82 3076.05C3229.32 3064.2 3386.49 2974.78 3264.35 2682.22C3188.35 2500.17 3092 2435.59 2998.81 2373.14C2945.67 2337.53 2895.48 2303.88 2850.85 2250.73C2842.33 2240.58 2829.8 2235.06 2816.36 2235.38C2802.43 2235.8 2789.65 2242.46 2781.31 2253.67C2722.56 2332.67 2617.47 2442.19 2450.49 2515.32C2247.19 2604.35 2007.18 2615.46 1737.12 2548.34C1705.72 2540.53 1672.35 2554.52 1655.99 2582.37C1597.02 2682.69 1521.26 2865.45 1671.03 2968.91L1941.07 2968.91C1946.07 2968.91 1950.9 2970.13 1954.2 2973.9C1957.38 2977.53 1958.97 2981.46 1958.47 2986.2Z" />
						</g>
					</g>
					<g id="&lt;Group&gt;">
						<g id="&lt;Group&gt;">
							<path id="&lt;Path&gt;" class="shp4" d="M1651.8 2994.74L696.8 2994.74L556.6 2684.19L439.5 2424.84C417.95 2377.09 452.9 2323.04 505.25 2323.04L1267.15 2323.04C1316.7 2323.04 1361.7 2352.09 1382.05 2397.24L1572.05 2818.04L1651.8 2994.74Z" />
						</g>
					</g>
					<g id="&lt;Group&gt;" style="opacity: 0.302">
						<g id="&lt;Group&gt;">
							<path id="&lt;Path&gt;" class="shp0" d="M1651.8 2994.74L696.8 2994.74L556.6 2684.19C731.43 2856.82 1151.55 2955.54 1572.05 2818.04L1651.8 2994.74Z" />
						</g>
					</g>
					<g id="&lt;Group&gt;" style="opacity: 0.502">
						<g id="&lt;Group&gt;">
							<path id="&lt;Path&gt;" class="shp3" d="M470.25 2373.04L1232.15 2373.04C1281.7 2373.04 1326.7 2402.09 1347.05 2447.24L1537.05 2868.04L1594.23 2994.74L1651.8 2994.74L1572.05 2818.04L1382.05 2397.24C1361.7 2352.09 1316.7 2323.04 1267.15 2323.04L505.25 2323.04C468.29 2323.04 440.03 2349.99 434.18 2382.64C444.64 2376.58 456.87 2373.04 470.25 2373.04Z" />
						</g>
					</g>
					<g id="&lt;Group&gt;">
						<g id="&lt;Group&gt;">
							<g id="&lt;Group&gt;">
								<path id="&lt;Path&gt;" class="shp0" d="M998.2 2701.17C947.74 2697.45 863.15 2812.82 1004.12 2806.34C1145.09 2799.87 1064.57 2706.07 998.2 2701.17Z" />
							</g>
						</g>
						<g id="&lt;Group&gt;">
							<g id="&lt;Group&gt;">
								<path id="&lt;Path&gt;" class="shp0" d="M942.42 2685.3C942.42 2702.99 928.07 2717.33 910.38 2717.33C892.69 2717.33 878.35 2702.99 878.35 2685.3C878.35 2667.61 892.69 2653.26 910.38 2653.26C928.07 2653.26 942.42 2667.61 942.42 2685.3Z" />
							</g>
						</g>
						<g id="&lt;Group&gt;">
							<g id="&lt;Group&gt;">
								<path id="&lt;Path&gt;" class="shp0" d="M1109.96 2680.81C1109.96 2698.51 1095.62 2712.85 1077.93 2712.85C1060.24 2712.85 1045.9 2698.51 1045.9 2680.81C1045.9 2663.12 1060.24 2648.78 1077.93 2648.78C1095.62 2648.78 1109.96 2663.12 1109.96 2680.81Z" />
							</g>
						</g>
						<g id="&lt;Group&gt;">
							<g id="&lt;Group&gt;">
								<path id="&lt;Path&gt;" class="shp0" d="M1027.63 2634.04C1027.63 2656.69 1009.27 2675.05 986.62 2675.05C963.98 2675.05 945.62 2656.69 945.62 2634.04C945.62 2611.4 963.98 2593.04 986.62 2593.04C1009.27 2593.04 1027.63 2611.4 1027.63 2634.04Z" />
							</g>
						</g>
					</g>
					<g id="&lt;Group&gt;">
						<g id="&lt;Group&gt;">
							<path id="&lt;Compound Path&gt;" fill-rule="evenodd" class="shp0" d="M1651.79 3013.07L696.79 3013.07C689.57 3013.07 683.03 3008.84 680.06 3002.27L422.79 2432.37C410.1 2404.25 412.51 2371.99 429.25 2346.08C445.99 2320.16 474.4 2304.69 505.25 2304.69L1267.15 2304.69C1323.81 2304.69 1375.49 2338.05 1398.8 2389.69L1668.51 2987.17C1671.08 2992.85 1670.58 2999.44 1667.2 3004.67C1663.82 3009.91 1658.02 3013.07 1651.79 3013.07ZM708.64 2976.37L1623.37 2976.37L1365.34 2404.79C1347.96 2366.28 1309.42 2341.39 1267.15 2341.39L505.25 2341.39C486.64 2341.39 470.17 2350.35 460.08 2365.99C449.99 2381.62 448.59 2400.31 456.25 2417.27L708.64 2976.37Z" />
						</g>
					</g>
					<g id="&lt;Group&gt;">
						<g id="&lt;Group&gt;">
							<path id="&lt;Path&gt;" class="shp4" d="M2261.57 3087.64L703.96 3087.64C678.3 3087.64 657.5 3066.84 657.5 3041.18L657.5 3041.18C657.5 3015.52 678.3 2994.72 703.96 2994.72L2261.57 2994.72C2287.23 2994.72 2308.04 3015.52 2308.04 3041.18L2308.04 3041.18C2308.04 3066.84 2287.23 3087.64 2261.57 3087.64Z" />
						</g>
					</g>
					<g id="&lt;Group&gt;" style="opacity: 0.302">
						<g id="&lt;Group&gt;">
							<path id="&lt;Path&gt;" class="shp0" d="M2261.57 3047.64L703.96 3047.64C685.47 3047.64 669.55 3036.81 662.07 3021.18C659.17 3027.24 657.5 3034.01 657.5 3041.18C657.5 3066.84 678.3 3087.64 703.96 3087.64L2261.57 3087.64C2287.23 3087.64 2308.04 3066.84 2308.04 3041.18C2308.04 3034.01 2306.36 3027.24 2303.46 3021.18C2295.98 3036.81 2280.06 3047.64 2261.57 3047.64Z" />
						</g>
					</g>
					<g id="&lt;Group&gt;">
						<g id="&lt;Group&gt;">
							<path id="&lt;Compound Path&gt;" fill-rule="evenodd" class="shp0" d="M2261.57 3105.99L703.96 3105.99C668.22 3105.99 639.15 3076.91 639.15 3041.18C639.15 3005.44 668.22 2976.37 703.96 2976.37L2261.57 2976.37C2297.31 2976.37 2326.39 3005.44 2326.39 3041.18C2326.39 3076.91 2297.31 3105.99 2261.57 3105.99ZM703.96 3013.07C688.46 3013.07 675.85 3025.68 675.85 3041.18C675.85 3056.68 688.46 3069.29 703.96 3069.29L2261.57 3069.29C2277.07 3069.29 2289.69 3056.68 2289.69 3041.18C2289.69 3025.68 2277.07 3013.07 2261.57 3013.07L703.96 3013.07Z" />
						</g>
					</g>
					<g id="&lt;Group&gt;">
						<g id="&lt;Group&gt;">
							<path id="&lt;Path&gt;" class="shp0" d="M1638.76 3100.56C1592.18 3053.59 1618.39 3002.33 1638.76 2981.8L1664.9 3007.56C1659.4 3013.24 1633.57 3043.21 1664.82 3074.72L1638.76 3100.56Z" />
						</g>
					</g>
					<g id="&lt;Group&gt;">
						<g id="&lt;Group&gt;">
							<g id="&lt;Group&gt;">
								<path id="&lt;Path&gt;" class="shp1" d="M2813.24 1327.8L2605.85 1733.61C2582.23 1704.53 2557.85 1679.4 2533.31 1657.72C2428.46 1564.94 2321.82 1518.65 2213.39 1518.87C2277.67 1452.24 2357.58 1392.3 2453.1 1339.04C2697.09 1213.97 2775.84 1256.67 2801.24 1294.78C2808.74 1306.09 2812.74 1317.1 2813.24 1327.8Z" />
							</g>
						</g>
						<g id="&lt;Group&gt;" style="opacity: 0.302">
							<g id="&lt;Group&gt;">
								<path id="&lt;Path&gt;" class="shp0" d="M2411.11 1426.15C2376.26 1452.07 2380.04 1504.68 2417.63 1526.42C2473.86 1558.93 2512.41 1602.41 2533.26 1656.86L2533.31 1657.72C2428.46 1564.94 2321.82 1518.65 2213.39 1518.87C2277.67 1452.24 2357.58 1392.3 2453.1 1339.04C2697.09 1213.97 2775.84 1256.67 2801.24 1294.78C2669.9 1257.01 2507.54 1354.41 2411.11 1426.15Z" />
							</g>
						</g>
						<g id="&lt;Group&gt;">
							<g id="&lt;Group&gt;">
								<path id="&lt;Compound Path&gt;" fill-rule="evenodd" class="shp0" d="M2605.83 1750.62C2600.74 1750.62 2595.88 1748.33 2592.63 1744.33C2425.45 1538.54 2215.48 1535.87 2213.38 1535.87C2206.56 1535.86 2200.39 1531.77 2197.73 1525.49C2195.06 1519.2 2196.4 1511.94 2201.14 1507.03C2298.19 1406.48 2438.9 1327.49 2444.85 1324.17C2445.02 1324.08 2445.19 1323.99 2445.37 1323.89C2605.85 1241.61 2719.71 1218.72 2783.75 1255.89C2827.66 1281.36 2830.14 1325.15 2830.22 1327C2830.36 1329.95 2829.72 1332.89 2828.38 1335.52L2620.98 1741.34C2618.37 1746.47 2613.33 1749.92 2607.61 1750.52C2607.02 1750.58 2606.42 1750.62 2605.83 1750.62ZM2251.83 1505.04C2320.92 1514.58 2470.46 1552.54 2602.33 1703.06L2795.66 1324.75C2794.04 1316.51 2787.99 1297.39 2766.02 1284.95C2735.84 1267.87 2656.11 1254.13 2461.18 1354.03C2455.16 1357.42 2341.35 1422.04 2251.83 1505.04Z" />
							</g>
						</g>
					</g>
					<g id="&lt;Group&gt;">
						<g id="&lt;Group&gt;">
							<path id="&lt;Path&gt;" class="shp5" d="M2783.57 1942.35C2772.05 1967.38 2759.08 1992.84 2744.54 2018.78L2533.26 1656.86C2562.23 1498.17 2634.01 1383.35 2748.6 1312.4C2773.24 1297.1 2805.84 1308.07 2816.97 1334.88C2821.62 1346.07 2826.59 1359.2 2831.51 1374.12C2831.55 1374.16 2831.56 1374.18 2831.56 1374.18C2867.51 1482.76 2901.07 1687.07 2783.57 1942.35Z" />
						</g>
					</g>
					<g id="&lt;Group&gt;" style="opacity: 0.302">
						<g id="&lt;Group&gt;">
							<path id="&lt;Path&gt;" class="shp0" d="M2831.51 1374.12C2829.73 1371.96 2782.05 1316.18 2722.44 1389.42C2691.85 1427 2675.76 1448.53 2667.32 1460.65C2663.53 1466.09 2668.34 1473.37 2674.85 1472.07L2703.93 1466.27C2719.28 1463.21 2734.17 1473 2737.58 1488.27C2744.09 1517.47 2748.88 1569.27 2728.43 1638.44C2724.35 1652.22 2725.36 1667.14 2731.92 1679.92C2743.87 1703.2 2758.16 1747.85 2735.52 1805.32C2730.91 1817.02 2730.51 1829.97 2734.28 1841.97C2741.77 1865.8 2757.1 1906.19 2783.57 1942.35C2772.05 1967.38 2759.08 1992.84 2744.54 2018.78L2533.26 1656.86C2562.23 1498.17 2634.01 1383.35 2748.6 1312.4C2773.24 1297.1 2805.84 1308.07 2816.97 1334.88C2821.62 1346.07 2826.59 1359.2 2831.51 1374.12Z" />
						</g>
					</g>
					<g id="&lt;Group&gt;">
						<g id="&lt;Group&gt;">
							<path id="&lt;Compound Path&gt;" fill-rule="evenodd" class="shp0" d="M2744.57 2035.81C2738.52 2035.81 2732.93 2032.6 2729.87 2027.37L2518.56 1665.42C2516.51 1661.91 2515.79 1657.78 2516.52 1653.78C2518.35 1643.76 2563.36 1407.06 2739.62 1297.93C2755.49 1288.11 2774.84 1285.78 2792.71 1291.53C2810.84 1297.37 2825.41 1310.8 2832.69 1328.37C2873.42 1426.55 2947.79 1691.2 2759.41 2027.12C2756.42 2032.44 2750.82 2035.76 2744.72 2035.81C2744.67 2035.81 2744.62 2035.81 2744.57 2035.81ZM2551.24 1653.9L2744.03 1984.13C2906.98 1673.86 2839.02 1432.44 2801.26 1341.4C2797.81 1333.07 2790.89 1326.7 2782.28 1323.93C2773.8 1321.19 2765.01 1322.23 2757.54 1326.87C2609.14 1418.74 2559.38 1616.89 2551.24 1653.9Z" />
						</g>
					</g>
					<g id="&lt;Group&gt;">
						<g id="&lt;Group&gt;">
							<g id="&lt;Group&gt;">
								<path id="&lt;Path&gt;" class="shp1" d="M2568.47 1543.29L2683.33 1520.3C2695.49 1577.24 2687.67 1622.51 2659.87 1656.1C2725.15 1735.24 2718.16 1795.81 2638.9 1837.79L2533.26 1656.83C2543.38 1610.69 2555.12 1572.85 2568.47 1543.29Z" />
							</g>
						</g>
						<g id="&lt;Group&gt;">
							<g id="&lt;Group&gt;">
								<path id="&lt;Compound Path&gt;" fill-rule="evenodd" class="shp0" d="M2638.91 1854.81C2633.05 1854.81 2627.36 1851.77 2624.21 1846.37L2518.56 1665.42C2516.41 1661.72 2515.72 1657.36 2516.64 1653.19C2517.27 1650.29 2532.44 1581.71 2552.97 1536.29C2555.22 1531.29 2559.75 1527.69 2565.13 1526.61L2679.99 1503.61C2689.13 1501.81 2698.02 1507.64 2699.97 1516.74C2700.73 1520.32 2717.13 1599.89 2680.95 1656.04C2695.18 1676.83 2722.45 1724.51 2712.75 1773.1C2706.11 1806.36 2683.94 1833.18 2646.87 1852.83C2644.33 1854.17 2641.6 1854.81 2638.91 1854.81ZM2551.35 1654.08L2644.9 1814.33C2664.09 1801.1 2675.67 1785.04 2679.38 1766.44C2687.28 1726.84 2658.5 1681.18 2646.74 1666.92C2641.55 1660.63 2641.56 1651.54 2646.76 1645.25C2672.42 1614.25 2671.64 1565.82 2669.06 1540.51L2580.56 1558.22C2566.53 1592.24 2555.26 1637.53 2551.35 1654.08Z" />
							</g>
						</g>
					</g>
					<g id="&lt;Group&gt;">
						<g id="&lt;Group&gt;">
							<g id="&lt;Group&gt;">
								<path id="&lt;Path&gt;" class="shp1" d="M2039.03 1566.5C1930.64 1563.18 1822.71 1606.4 1715.23 1696.16C1704.05 1705.47 1692.9 1715.43 1681.84 1726.19C1667.97 1739.59 1654.15 1754.13 1640.58 1769.96L1444.87 1358.37C1444.89 1358 1444.95 1357.47 1445.04 1356.79C1445.67 1352.33 1448.27 1339.23 1457.8 1325.7C1484.3 1288.35 1564.23 1247.94 1804.52 1379.89C1898.5 1435.87 1976.67 1498.07 2039.03 1566.5Z" />
							</g>
						</g>
						<g id="&lt;Group&gt;" style="opacity: 0.302">
							<g id="&lt;Group&gt;">
								<path id="&lt;Path&gt;" class="shp0" d="M2039.03 1566.5C1930.64 1563.18 1822.71 1606.4 1715.23 1696.16C1704.05 1705.47 1692.9 1715.43 1681.84 1726.19C1675.84 1716.96 1672.53 1706.32 1672.53 1694.11C1672.53 1613.14 1748.34 1553.33 1801.68 1521.28C1825.63 1506.89 1827.72 1473.1 1805.71 1455.9C1626.8 1316.12 1506.52 1283.61 1444.87 1358.37C1444.89 1358 1444.95 1357.47 1445.04 1356.79C1445.67 1352.33 1448.27 1339.23 1457.8 1325.7C1484.3 1288.35 1564.23 1247.94 1804.52 1379.89C1898.5 1435.87 1976.67 1498.07 2039.03 1566.5Z" />
							</g>
						</g>
						<g id="&lt;Group&gt;">
							<g id="&lt;Group&gt;">
								<path id="&lt;Compound Path&gt;" fill-rule="evenodd" class="shp0" d="M1640.59 1786.96C1639.84 1786.96 1639.08 1786.91 1638.32 1786.81C1632.62 1786.04 1627.69 1782.45 1625.22 1777.25L1429.51 1365.66C1428.24 1363 1427.69 1360.05 1427.91 1357.1C1428.05 1355.25 1431.78 1311.56 1476.39 1287.34C1541.47 1252.03 1654.62 1278.15 1812.7 1364.99C1812.87 1365.08 1813.04 1365.18 1813.21 1365.28C1819.06 1368.77 1957.45 1451.74 2051.6 1555.04C2056.2 1560.08 2057.33 1567.4 2054.48 1573.6C2051.62 1579.82 2045.27 1583.68 2038.5 1583.5C2036.37 1583.44 1826.49 1580.1 1653.48 1781.05C1650.23 1784.83 1645.51 1786.96 1640.59 1786.96ZM1462.52 1355.85L1644.96 1739.52C1781.08 1592.82 1931.65 1559.16 2000.98 1551.59C1913.82 1466 1801.98 1398.24 1796.03 1394.66C1603.14 1288.75 1523.14 1300.68 1492.62 1317.26C1470.9 1329.05 1464.37 1347.87 1462.52 1355.85Z" />
							</g>
						</g>
					</g>
					<g id="&lt;Group&gt;">
						<g id="&lt;Group&gt;">
							<path id="&lt;Path&gt;" class="shp5" d="M1456.96 1973.53C1467.76 1998.88 1480 2024.7 1493.79 2051.04L1715.33 1695.31C1690.9 1535.85 1622.43 1419.03 1509.92 1344.83C1485.72 1328.84 1452.83 1338.88 1440.93 1365.36C1435.96 1376.41 1430.62 1389.39 1425.28 1404.16C1425.24 1404.2 1425.22 1404.22 1425.22 1404.22C1386.19 1511.73 1346.8 1715 1456.96 1973.53Z" />
						</g>
					</g>
					<g id="&lt;Group&gt;" style="opacity: 0.302">
						<g id="&lt;Group&gt;">
							<path id="&lt;Path&gt;" class="shp0" d="M1425.28 1404.16C1427.12 1402.05 1476.37 1347.66 1533.87 1422.57C1563.37 1461.01 1578.84 1482.99 1586.93 1495.35C1590.56 1500.9 1585.54 1508.04 1579.08 1506.55L1550.17 1499.92C1534.91 1496.42 1519.75 1505.78 1515.91 1520.95C1508.57 1549.95 1502.29 1601.59 1520.76 1671.32C1524.44 1685.21 1523.01 1700.1 1516.09 1712.68C1503.48 1735.61 1483.93 1767.4 1504.92 1825.49C1509.19 1837.32 1499.33 1857.27 1495.22 1869.16C1487.05 1892.76 1478.59 1932.33 1456.96 1973.53C1467.76 1998.88 1480 2024.7 1493.79 2051.04L1715.33 1695.31C1690.9 1535.85 1622.43 1419.03 1509.92 1344.83C1485.72 1328.84 1452.83 1338.88 1440.93 1365.36C1435.96 1376.41 1430.62 1389.39 1425.28 1404.16Z" />
						</g>
					</g>
					<g id="&lt;Group&gt;">
						<g id="&lt;Group&gt;">
							<path id="&lt;Compound Path&gt;" fill-rule="evenodd" class="shp0" d="M1493.77 2068.07C1493.55 2068.07 1493.34 2068.07 1493.13 2068.06C1487.03 2067.83 1481.52 2064.36 1478.69 2058.95C1299.98 1717.79 1381.89 1455.38 1425.4 1358.39C1433.18 1341.04 1448.13 1328.04 1466.42 1322.72C1484.45 1317.5 1503.72 1320.36 1519.3 1330.64C1692.37 1444.75 1730.61 1682.64 1732.15 1692.71C1732.77 1696.72 1731.92 1700.83 1729.77 1704.28L1508.21 2060.05C1505.09 2065.05 1499.63 2068.07 1493.77 2068.07ZM1484.45 1354.16C1481.63 1354.16 1478.76 1354.57 1475.92 1355.4C1467.24 1357.93 1460.14 1364.09 1456.45 1372.32C1416.11 1462.25 1341.27 1701.62 1495.29 2016.42L1697.44 1691.83C1690.36 1654.61 1646.28 1455.12 1500.57 1359.04C1495.67 1355.81 1490.14 1354.16 1484.45 1354.16Z" />
						</g>
					</g>
					<g id="&lt;Group&gt;">
						<g id="&lt;Group&gt;">
							<g id="&lt;Group&gt;">
								<path id="&lt;Path&gt;" class="shp1" d="M1683.37 1580.78L1569.22 1554.51C1555.44 1611.09 1561.96 1656.56 1588.79 1690.93C1521.28 1768.18 1526.54 1828.92 1604.56 1873.15L1715.33 1695.28C1706.53 1648.87 1695.88 1610.7 1683.37 1580.78Z" />
							</g>
						</g>
						<g id="&lt;Group&gt;">
							<g id="&lt;Group&gt;">
								<path id="&lt;Compound Path&gt;" fill-rule="evenodd" class="shp0" d="M1604.55 1890.17C1601.7 1890.17 1598.82 1889.45 1596.17 1887.95C1559.66 1867.26 1538.27 1839.81 1532.59 1806.37C1524.28 1757.53 1552.9 1710.64 1567.72 1690.27C1533.16 1633.12 1551.82 1554.04 1552.69 1550.48C1554.89 1541.43 1563.95 1535.86 1573.04 1537.93L1687.19 1564.2C1692.54 1565.43 1696.96 1569.16 1699.08 1574.22C1718.3 1620.22 1731.5 1689.2 1732.05 1692.12C1732.84 1696.31 1732.03 1700.66 1729.77 1704.28L1619 1882.14C1615.79 1887.31 1610.24 1890.17 1604.55 1890.17ZM1582.9 1575.12C1579.61 1600.34 1577.44 1648.74 1602.2 1680.46C1607.22 1686.89 1606.97 1695.98 1601.6 1702.12C1601.18 1702.61 1557.96 1753.08 1566.16 1800.78C1569.36 1819.43 1580.46 1835.78 1599.23 1849.53L1697.32 1692.01C1693.89 1675.35 1683.92 1629.76 1670.87 1595.36L1582.9 1575.12Z" />
							</g>
						</g>
					</g>
					<g id="&lt;Group&gt;">
						<g id="&lt;Group&gt;">
							<path id="&lt;Path&gt;" class="shp1" d="M2770.41 2279.34C2784.76 2298.6 2804.03 2315.91 2828.22 2331.28C2847.53 2343.57 2851.45 2370.16 2836.13 2387.13C2781.47 2447.79 2660.88 2563.37 2526.46 2574.81C2525.31 2574.94 2524.12 2575.02 2522.93 2575.11C2202.99 2782.04 1907.67 2771.1 1636.96 2542.31C1551.83 2527.25 1482.07 2471.68 1427.68 2375.61C1422.24 2365.95 1422.45 2354.68 1427.21 2345.49C1429.89 2340.17 1434.1 2335.58 1439.63 2332.43C1449.29 2326.9 1461.75 2321.46 1476.98 2318.1C1453.84 2305.11 1433.13 2279.03 1414.83 2239.87C1408.28 2225.83 1413.01 2208.99 1425.85 2200.35C1440.02 2190.87 1457.75 2175.94 1468.47 2155.6C1473.24 2146.58 1476.6 2136.46 1477.66 2125.27C1478.43 2117.32 1479.66 2100.81 1482.72 2077.97C1483.87 2069.38 1485.28 2059.94 1487.02 2049.68C1490.21 2030.84 1494.46 2009.36 1500.29 1986.09C1532.41 1856.95 1611.23 1671.95 1809.07 1563.87C1814 1561.14 1819.02 1558.51 1824.09 1555.91C1875.3 1529.71 1929.45 1510.91 1984.92 1499.59C1989.26 1498.7 1993.64 1497.85 1997.98 1497.04C2065.19 1484.83 2134.06 1483.51 2201.86 1493.25C2209.99 1494.4 2218.11 1495.76 2226.19 1497.25C2261.92 1503.8 2297.27 1513.5 2331.77 1526.3C2342.23 1530.18 2352.83 1534.39 2363.46 1539.02C2400.94 1555.15 2439.52 1575.73 2477.42 1602.15C2576.1 1670.8 2670.32 1778.55 2729.62 1947.34C2736.43 1966.65 2742.72 1986.77 2748.55 2007.7C2748.75 2010.88 2749.27 2015.12 2750.12 2020.42C2751.02 2026.12 2752.38 2033.44 2754.46 2041.82C2761.65 2070.57 2777.18 2111.7 2810.44 2141.99L2810.48 2142.03C2817.33 2148.33 2824.9 2154.07 2833.37 2159.18C2849.02 2168.66 2855.53 2188.31 2848.17 2205.12C2835.41 2234.38 2811.08 2273.22 2770.41 2279.34Z" />
						</g>
					</g>
					<g id="&lt;Group&gt;">
						<g id="&lt;Group&gt;">
							<path id="&lt;Path&gt;" class="shp3" d="M2554.92 2546.86L2526.46 2574.81C2525.31 2574.94 2524.12 2575.02 2522.93 2575.11C2202.99 2782.04 1907.67 2771.1 1636.96 2542.31C1667.76 2415.9 1738.35 2338.42 1848.73 2309.86C1857.11 2307.7 1865.08 2304.19 1872.15 2299.2C1901.4 2278.58 1996.06 2227.07 2138.2 2297.79C2149.04 2303.19 2161 2305.89 2173.11 2305.39C2237.96 2302.68 2461.23 2311.33 2554.92 2546.86Z" />
						</g>
					</g>
					<g id="&lt;Group&gt;" style="opacity: 0.302">
						<g id="&lt;Group&gt;">
							<path id="&lt;Path&gt;" class="shp0" d="M1956.22 2293.01C1954.55 2358.66 1917.25 2375.37 1844.33 2343.16C1829.25 2368.08 1839.08 2392.84 1873.81 2417.44C1951.38 2503.42 2035.14 2509.04 2125.07 2434.3C2162.75 2414.55 2179.61 2385.23 2175.66 2346.33C2159.7 2349.8 2135.1 2352.59 2101.85 2354.7C2069.06 2356.77 2038.24 2338.82 2023.77 2309.31C2019.44 2300.47 2015.03 2289.98 2010.68 2277.51L1956.22 2293.01Z" />
						</g>
					</g>
					<g id="&lt;Group&gt;">
						<g id="&lt;Group&gt;">
							<path id="&lt;Path&gt;" class="shp3" d="M1830.03 2004.64C1835.08 2024.39 1811.75 2038.79 1796.07 2025.75C1783.5 2015.29 1767.99 2005.86 1749.7 2001C1702.37 1988.43 1804.84 1906.08 1830.03 2004.64Z" />
						</g>
					</g>
					<g id="&lt;Group&gt;">
						<g id="&lt;Group&gt;">
							<path id="&lt;Path&gt;" class="shp3" d="M2223.71 2010.01C2218.02 2026.05 2236.5 2039.57 2250.39 2029.72C2269.77 2015.98 2296.32 2004.13 2330.95 2002.81C2408.67 1999.83 2278.48 1855.47 2223.71 2010.01Z" />
						</g>
					</g>
					<g id="&lt;Group&gt;">
						<g id="&lt;Group&gt;">
							<g id="&lt;Group&gt;">
								<path id="&lt;Path&gt;" class="shp2" d="M2201.86 1493.25C2200.63 1494.66 2199.39 1496.02 2198.07 1497.55C2196.03 1500.36 2193.82 1502.99 2191.44 1505.5C2182.46 1517.07 2171.66 1529.16 2161.24 1544C2158.6 1547.66 2155.83 1551.27 2152.98 1554.93C2151.45 1556.63 2150.22 1558.68 2148.94 1560.72L2145.12 1566.84C2140.1 1575.1 2134.31 1582.92 2129.93 1592.15C2125.25 1601.13 2120.32 1610.1 2115.64 1619.42L2102.92 1648.6L2099.64 1656C2098.45 1658.47 2097.47 1660.98 2096.62 1663.57L2091.05 1679.01L2079.61 1710.41C2076.5 1721.17 2073.23 1732.02 2069.91 1742.95L2064.85 1759.37L2062.3 1767.66L2060.21 1776.04L2051.66 1809.94L2047.07 1827.04L2044.77 1835.68L2042.94 1844.31C2041.2 1852.57 2039.41 1860.82 2037.58 1869.11C2034.52 1882.68 2015.5 1883.66 2011.12 1870.47C2008.36 1862.22 2005.68 1853.93 2003.08 1845.59C1996.06 1822.15 1990.79 1798.25 1985.26 1774.13L1983.26 1765.02L1981.77 1755.88L1979.01 1737.46C1977.14 1725.17 1975.35 1712.75 1973.73 1700.28C1972.67 1687.73 1971.9 1675.06 1971.18 1662.34C1970.54 1649.62 1969.44 1636.77 1970.24 1623.8L1971.48 1584.54C1972.71 1571.31 1974.5 1558 1976.16 1544.55L1977.43 1534.43C1977.86 1531.07 1978.79 1527.71 1979.43 1524.31L1982.84 1509.03L1983.94 1503.93L1984.92 1499.59C1989.26 1498.7 1993.64 1497.85 1997.98 1497.04C2065.19 1484.83 2134.06 1483.51 2201.86 1493.25Z" />
							</g>
						</g>
						<g id="&lt;Group&gt;">
							<g id="&lt;Group&gt;">
								<path id="&lt;Path&gt;" class="shp2" d="M1982.84 1509.03C1980.75 1510.18 1978.58 1511.29 1976.37 1512.27C1977.39 1512.01 1978.37 1511.67 1979.35 1511.29L1979.69 1511.54C1979.9 1511.71 1980.11 1511.76 1980.24 1511.88C1979.99 1512.57 1979.77 1513.2 1979.43 1513.71L1978.75 1514.78L1977.94 1515.93C1977.65 1516.27 1977.39 1516.65 1977.09 1516.99C1976.8 1517.29 1976.45 1517.67 1976.11 1518.18C1974.84 1520.09 1973.35 1521.54 1971.82 1523.37C1970.29 1525.41 1968.67 1527.33 1966.93 1529.16C1960.42 1537.62 1952.51 1546.43 1944.93 1557.27C1942.98 1559.91 1940.98 1562.59 1938.89 1565.23C1937.79 1566.5 1936.85 1567.99 1935.96 1569.48L1933.15 1573.9C1929.49 1579.94 1925.28 1585.64 1922.05 1592.41C1918.65 1598.96 1915.03 1605.51 1911.63 1612.32L1902.31 1633.63L1899.97 1639.03C1899.08 1640.82 1898.4 1642.64 1897.76 1644.52L1893.68 1655.83L1885.34 1678.72C1883.09 1686.59 1880.66 1694.5 1878.24 1702.45L1874.58 1714.45L1872.66 1720.53L1871.17 1726.66L1864.92 1751.37L1861.6 1763.88L1859.9 1770.13L1858.58 1776.47C1857.31 1782.46 1855.99 1788.51 1854.63 1794.55C1852.42 1804.46 1838.55 1805.18 1835.36 1795.57C1833.36 1789.53 1831.4 1783.44 1829.45 1777.36C1824.34 1760.3 1820.51 1742.86 1816.47 1725.21L1815.03 1718.62L1813.92 1711.9L1811.88 1698.5C1810.56 1689.48 1809.24 1680.42 1808.05 1671.31C1807.28 1662.17 1806.73 1652.94 1806.22 1643.62C1805.75 1634.35 1804.94 1624.99 1805.5 1615.51L1806.39 1586.84C1807.11 1579.26 1808.09 1571.56 1809.07 1563.87C1814 1561.14 1819.02 1558.51 1824.09 1555.91C1875.3 1529.71 1929.45 1510.91 1984.92 1499.59C1989.26 1498.7 1993.64 1497.85 1997.98 1497.04C1993.64 1501.68 1988.54 1505.72 1982.84 1509.03Z" />
							</g>
						</g>
						<g id="&lt;Group&gt;">
							<g id="&lt;Group&gt;">
								<path id="&lt;Path&gt;" class="shp2" d="M2363.46 1539.02C2357.89 1543.75 2351.93 1548.85 2345.98 1554.72C2343.59 1557.02 2341.13 1559.27 2338.58 1561.48C2337.26 1562.55 2336.11 1563.82 2334.92 1565.14L2331.39 1569.01C2326.71 1574.29 2321.52 1579.14 2317.14 1585.18C2312.63 1591 2307.86 1596.83 2303.31 1602.87L2290.34 1622.18L2287.02 1627.08C2285.87 1628.65 2284.81 1630.35 2283.83 1632.1L2277.83 1642.47L2265.5 1663.49C2261.84 1670.8 2258.05 1678.16 2254.22 1685.56L2248.48 1696.71L2245.55 1702.32L2242.95 1708.07L2232.36 1731.29L2226.83 1742.95L2224.02 1748.86L2221.6 1754.82C2219.26 1760.52 2216.88 1766.22 2214.45 1771.92C2210.5 1781.23 2196.71 1779.44 2195.31 1769.41C2194.42 1763.11 2193.57 1756.81 2192.8 1750.48C2190.84 1732.78 2190.2 1714.92 2189.4 1696.84L2189.14 1690.07L2189.27 1683.31L2189.69 1669.7C2189.99 1660.64 2190.33 1651.49 2190.8 1642.3C2191.69 1633.16 2192.8 1623.97 2193.95 1614.74C2195.18 1605.51 2196.08 1596.15 2198.33 1586.92L2204.37 1558.89C2207.01 1549.62 2210.07 1540.26 2213 1530.81L2215.22 1523.75C2215.98 1521.37 2217.09 1519.07 2218.02 1516.73L2223.89 1502.7L2226.19 1497.25C2261.92 1503.8 2297.27 1513.5 2331.77 1526.3C2342.23 1530.18 2352.83 1534.39 2363.46 1539.02Z" />
							</g>
						</g>
						<g id="&lt;Group&gt;">
							<g id="&lt;Group&gt;">
								<path id="&lt;Path&gt;" class="shp2" d="M2810.44 2141.99L2792.83 2135.82C2783.47 2132.63 2773.99 2129.48 2764.42 2126.38C2745.27 2120.17 2725.67 2114.6 2705.72 2109.7C2695.72 2106.98 2685.59 2105.24 2675.34 2102.77C2665.13 2100.98 2654.71 2098.47 2644.21 2096.82C2622.98 2092.39 2601.41 2090.01 2577.85 2085.37C2582.61 2081.89 2587.59 2078.78 2592.65 2075.63C2597.76 2072.65 2602.9 2069.55 2608.26 2067.25C2613.58 2064.79 2618.98 2062.4 2624.47 2060.11C2630 2057.94 2635.57 2056.28 2641.23 2054.41L2649.74 2051.81C2652.59 2051 2655.44 2050.45 2658.33 2049.73C2664.07 2048.41 2669.86 2047.26 2675.68 2046.03C2687.34 2044.45 2699.16 2042.67 2710.95 2042.11C2725.41 2041.13 2739.96 2041.05 2754.46 2041.82C2761.65 2070.57 2777.18 2111.7 2810.44 2141.99Z" />
							</g>
						</g>
						<g id="&lt;Group&gt;">
							<g id="&lt;Group&gt;">
								<path id="&lt;Path&gt;" class="shp2" d="M2750.12 2020.42C2742.85 2018.38 2735.49 2016.51 2728.09 2014.68C2718.09 2011.95 2708.01 2010.21 2697.76 2007.79C2687.55 2006 2677.13 2003.45 2666.62 2001.79C2645.4 1997.41 2623.83 1995.02 2600.22 1990.34C2605.03 1986.86 2610.01 1983.75 2615.07 1980.6C2620.13 1977.63 2625.28 1974.52 2630.64 1972.22C2636 1969.76 2641.4 1967.37 2646.89 1965.12C2652.37 1962.91 2657.99 1961.25 2663.6 1959.42L2672.11 1956.78C2674.96 1955.97 2677.85 1955.42 2680.7 1954.7C2686.45 1953.38 2692.27 1952.23 2698.1 1951.04C2708.48 1949.59 2719.03 1948.06 2729.62 1947.34C2736.43 1966.65 2742.72 1986.77 2748.55 2007.7C2748.75 2010.88 2749.27 2015.12 2750.12 2020.42Z" />
							</g>
						</g>
						<g id="&lt;Group&gt;">
							<g id="&lt;Group&gt;">
								<path id="&lt;Path&gt;" class="shp2" d="M1631.22 2121.91C1607.66 2126.55 1586.09 2128.93 1564.86 2133.36C1554.36 2135.01 1543.94 2137.52 1533.73 2139.31C1523.47 2141.78 1513.35 2143.52 1503.35 2146.24C1491.57 2149.14 1479.96 2152.24 1468.47 2155.6C1473.24 2146.58 1476.6 2136.46 1477.66 2125.27C1478.43 2117.32 1479.66 2100.81 1482.72 2077.97C1487.87 2078.06 1493.02 2078.31 1498.12 2078.65C1509.91 2079.21 1521.73 2080.95 1533.39 2082.57C1539.21 2083.8 1545 2084.91 1550.74 2086.27C1553.63 2086.95 1556.48 2087.5 1559.33 2088.35L1567.84 2090.95C1573.5 2092.78 1579.07 2094.48 1584.56 2096.65C1590.09 2098.9 1595.49 2101.28 1600.81 2103.79C1606.17 2106.05 1611.31 2109.19 1616.42 2112.17C1621.48 2115.28 1626.46 2118.42 1631.22 2121.91Z" />
							</g>
						</g>
						<g id="&lt;Group&gt;">
							<g id="&lt;Group&gt;">
								<path id="&lt;Path&gt;" class="shp2" d="M1608.85 2026.88C1585.24 2031.56 1563.67 2033.9 1542.45 2038.33C1531.94 2039.99 1521.52 2042.54 1511.31 2044.28C1503.1 2046.24 1495.02 2047.77 1487.02 2049.68C1490.21 2030.84 1494.46 2009.36 1500.29 1986.09C1503.86 1986.56 1507.44 1987.07 1510.97 1987.58C1516.8 1988.77 1522.62 1989.92 1528.37 1991.24C1531.22 1991.96 1534.11 1992.51 1536.96 1993.32L1545.47 1995.92C1551.08 1997.79 1556.7 1999.45 1562.18 2001.62C1567.67 2003.91 1573.07 2006.3 1578.39 2008.76C1583.75 2011.06 1588.94 2014.17 1594 2017.14C1599.06 2020.29 1604.04 2023.4 1608.85 2026.88Z" />
							</g>
						</g>
					</g>
					<g id="&lt;Group&gt;" style="opacity: 0.302">
						<g id="&lt;Group&gt;">
							<path id="&lt;Path&gt;" class="shp0" d="M2777.57 2277.89C2774.3 2278.73 2772.97 2282.62 2775.16 2285.18C2783.37 2294.79 2801.92 2314.57 2828.22 2331.28C2847.53 2343.57 2851.45 2370.16 2836.13 2387.13C2781.47 2447.79 2660.88 2563.37 2526.46 2574.81C2525.31 2574.94 2524.12 2575.02 2522.93 2575.11C2203.46 2781.73 1908.43 2771.05 1637.85 2543.06C1637.29 2542.58 1636.61 2542.25 1635.89 2542.1C1623.41 2539.54 1504.9 2512 1427.68 2375.61C1423.81 2368.75 1422.8 2361.07 1424.25 2353.9C1425 2350.17 1429.91 2349.2 1432.24 2352.22C1453.37 2379.64 1491.85 2419.34 1551.21 2444.75C1554.46 2446.14 1558.02 2443.53 1557.53 2440.03C1556.49 2432.53 1555.6 2420 1557.51 2403.65C1557.97 2399.69 1562.89 2398.14 1565.46 2401.18C1600.86 2443.12 1782.02 2636.43 2095.94 2612.03C2447.77 2584.68 2893.73 2037.31 2509.41 1637.63C2509.28 1637.5 2509.16 1637.37 2509.04 1637.24C2505.1 1633.14 2510.8 1627.04 2515.21 1630.63C2599.76 1699.53 2677.95 1800.26 2729.62 1947.34C2736.38 1966.51 2742.63 1986.48 2748.42 2007.25C2748.51 2007.54 2748.56 2007.82 2748.58 2008.13C2748.68 2009.46 2749.07 2013.85 2750.12 2020.42C2751.02 2026.12 2752.38 2033.44 2754.46 2041.82C2761.65 2070.57 2777.18 2111.7 2810.44 2141.99L2810.48 2142.03C2817.33 2148.33 2824.9 2154.07 2833.37 2159.18C2849.02 2168.66 2855.53 2188.31 2848.17 2205.12C2836.18 2232.62 2813.96 2268.59 2777.57 2277.89Z" />
						</g>
					</g>
					<g id="&lt;Group&gt;" style="opacity: 0.502">
						<g id="&lt;Group&gt;">
							<path id="&lt;Path&gt;" class="shp3" d="M2363.46 1539.02C2352.83 1534.39 2342.23 1530.18 2331.77 1526.3C2297.27 1513.5 2261.92 1503.8 2226.19 1497.25C2218.11 1495.76 2209.99 1494.4 2201.86 1493.25C2134.06 1483.51 2065.19 1484.83 1997.98 1497.04C1993.64 1497.85 1989.26 1498.7 1984.92 1499.59C1929.45 1510.91 1875.3 1529.71 1824.09 1555.91C1819.02 1558.51 1814 1561.14 1809.07 1563.87C1611.23 1671.95 1532.41 1856.95 1500.29 1986.09C1494.46 2009.36 1490.21 2030.84 1487.02 2049.68C1485.28 2059.94 1483.87 2069.38 1482.72 2077.97C1479.66 2100.81 1478.43 2117.32 1477.66 2125.27C1476.6 2136.46 1473.24 2146.58 1468.47 2155.6C1457.75 2175.94 1440.02 2190.87 1425.85 2200.35C1413.01 2208.99 1408.28 2225.83 1414.83 2239.87C1433.13 2279.03 1453.84 2305.11 1476.98 2318.1C1482.06 2319.68 1475.45 2300.9 1457.16 2261.73C1450.61 2247.7 1447.04 2238.76 1459.88 2230.13C1474.05 2220.64 1491.78 2205.71 1502.5 2185.38C1507.27 2176.36 1510.63 2166.24 1511.69 2155.05C1512.46 2147.09 1513.69 2130.59 1516.75 2107.75C1517.9 2099.16 1519.31 2089.71 1521.05 2079.46C1524.24 2060.62 1528.49 2039.14 1534.32 2015.87C1543.44 1979.18 1556.34 1937.99 1574.66 1895.33C1580.25 1882.32 1592.25 1873.6 1606.17 1871.01C1633.49 1865.94 1673.91 1834.26 1708.77 1787.93C1741.58 1744.3 1760.55 1699.54 1760.4 1671.38C1760.32 1656.94 1766.59 1643.21 1778.25 1634.71C1798.31 1620.1 1819.87 1606.33 1843.1 1593.64C1848.03 1590.92 1853.05 1588.28 1858.12 1585.69C1909.33 1559.48 1963.48 1540.68 2018.95 1529.37C2023.29 1528.47 2027.67 1527.62 2032.01 1526.82C2099.22 1514.61 2168.09 1513.29 2235.89 1523.03C2244.01 1524.18 2252.14 1525.54 2260.22 1527.03C2295.95 1533.58 2331.3 1543.28 2365.8 1556.08C2376.26 1559.95 2386.86 1564.16 2397.49 1568.8C2447.22 1590.15 2498.86 1619.5 2548.33 1659.7C2488.86 1603.81 2424.76 1565.35 2363.46 1539.02Z" />
						</g>
					</g>
					<g id="&lt;Group&gt;">
						<g id="&lt;Group&gt;">
							<path id="&lt;Compound Path&gt;" fill-rule="evenodd" class="shp0" d="M2075.26 2720.58C1938.64 2720.58 1779.18 2683.35 1629.28 2558.08C1604.33 2552.36 1489.53 2519.38 1412.89 2383.98C1399.73 2360.72 1407.95 2330.97 1431.2 2317.67C1434.99 2315.5 1438.89 2313.49 1442.88 2311.66C1429.72 2298.13 1413.55 2277.33 1399.42 2247.07C1389.38 2225.59 1396.68 2199.43 1416.38 2186.23C1435.11 2173.68 1458.01 2152.65 1460.73 2123.7L1461.14 2119.15C1464.13 2085.62 1473.21 1983.6 1521.28 1867.64C1582.73 1719.41 1682 1609.42 1816.32 1540.74C1977.62 1458.27 2167.66 1447.19 2337.72 1510.36C2485.36 1565.2 2679.32 1695.22 2764.95 2003.15C2765.26 2004.28 2765.46 2005.44 2765.53 2006.61C2765.59 2007.53 2772.86 2102.64 2842.17 2144.62C2865.16 2158.55 2874.45 2187.49 2863.78 2211.94C2851.9 2239.16 2831.95 2271.45 2800.5 2287.36C2809.56 2296.3 2822.08 2307.22 2837.36 2316.94C2850.9 2325.56 2859.9 2339.58 2862.06 2355.43C2864.19 2371.08 2859.35 2386.8 2848.78 2398.54C2788.15 2465.83 2666.43 2579.72 2528.47 2591.75C2506.47 2605.35 2392.93 2672.12 2235.62 2704.08C2188.07 2713.75 2133.75 2720.58 2075.26 2720.58ZM2111.69 1503.85C2015.24 1503.85 1919.09 1526.41 1831.82 1571.04C1569.55 1705.14 1508.24 1973.9 1495.04 2122.16L1494.61 2126.89C1490.64 2169.14 1460.18 2197.85 1435.32 2214.5C1429.44 2218.45 1427.25 2226.26 1430.25 2232.67C1454.66 2284.93 1485.12 2303.13 1485.43 2303.31C1491.48 2306.83 1494.81 2313.74 1493.73 2320.66C1492.66 2327.58 1487.51 2333.17 1480.68 2334.69C1469.07 2337.27 1458.1 2341.48 1448.1 2347.2C1441.05 2351.24 1438.55 2360.22 1442.51 2367.22C1518.83 2502.06 1638.76 2525.34 1639.96 2525.56C1642.89 2526.1 1645.67 2527.4 1647.94 2529.31C1772.2 2634.33 1914.36 2687.12 2072.03 2687.13C2122.38 2687.13 2174.29 2681.75 2227.73 2670.96C2393.62 2637.48 2512.54 2561.59 2513.72 2560.83C2516.12 2559.28 2518.88 2558.36 2521.74 2558.15C2649.57 2548.99 2765.67 2439.95 2823.49 2375.76C2827.41 2371.41 2829.13 2365.82 2828.34 2360.02C2827.54 2354.12 2824.16 2348.88 2819.09 2345.65C2780.62 2321.17 2757.74 2290.79 2756.78 2289.51C2753.21 2284.71 2752.42 2278.39 2754.69 2272.86C2756.97 2267.33 2761.98 2263.4 2767.89 2262.51C2800.35 2257.62 2820.99 2224.91 2832.59 2198.33C2836.47 2189.44 2833.01 2178.86 2824.54 2173.73C2744.89 2125.48 2733.09 2026.15 2731.72 2010.69C2649.73 1717.72 2465.83 1594.25 2325.87 1542.26C2256.74 1516.58 2184.13 1503.85 2111.69 1503.85Z" />
						</g>
					</g>
					<g id="&lt;Group&gt;">
						<g id="&lt;Group&gt;">
							<path id="&lt;Path&gt;" class="shp0" d="M1624.38 2553.76C1619.98 2548.06 1616.29 2542.41 1612.75 2536.37C1609.2 2530.41 1605.98 2524.21 1602.97 2517.88C1600.03 2511.52 1597.26 2505.03 1595.13 2498.23C1593 2491.47 1591.08 2484.49 1590.93 2477.36C1592.13 2478.69 1593.28 2479.99 1594.37 2481.27L1597.97 2484.91C1600.35 2487.3 1602.71 2489.63 1605.24 2491.85C1610.2 2496.32 1615.13 2500.73 1620.18 2505.02L1635.12 2517.93C1640.07 2522.16 1645.02 2526.66 1649.54 2530.85L1624.38 2553.76Z" />
						</g>
					</g>
					<g id="&lt;Group&gt;">
						<g id="&lt;Group&gt;">
							<path id="&lt;Path&gt;" class="shp0" d="M2512.09 2562.02L2545.88 2534.31C2557.19 2524.97 2568.43 2515.52 2579.62 2505.97C2590.78 2496.38 2601.78 2486.62 2612.7 2476.69C2623.73 2466.85 2634.76 2457.04 2647.37 2447.97C2641.89 2462.46 2634 2475.56 2625.26 2487.89C2616.32 2500.04 2607.01 2511.98 2597.17 2523.41C2587.4 2534.9 2577.25 2546.07 2566.74 2556.89C2561.5 2562.31 2556.15 2567.63 2550.66 2572.8C2545.17 2578.04 2539.77 2583.14 2533.81 2588.23L2512.09 2562.02Z" />
						</g>
					</g>
					<g id="&lt;Group&gt;">
						<g id="&lt;Group&gt;">
							<path id="&lt;Path&gt;" class="shp0" d="M2759 2291.95C2756.02 2289 2753.48 2285.67 2751.01 2282.22C2748.58 2278.74 2746.27 2275.12 2744.16 2271.31C2742 2267.54 2739.98 2263.62 2738.28 2259.37C2736.6 2255.13 2735.16 2250.52 2734.54 2245.44C2739.53 2246.37 2744.03 2247.47 2748.27 2248.94C2752.52 2250.38 2756.5 2252.1 2760.35 2253.95C2764.26 2255.74 2767.99 2257.72 2771.62 2259.8C2775.21 2261.92 2778.75 2264.14 2781.85 2266.73L2759 2291.95Z" />
						</g>
					</g>
					<g id="&lt;Group&gt;">
						<g id="&lt;Group&gt;">
							<path id="&lt;Path&gt;" class="shp0" d="M2128.06 2426.27C2119.89 2465.36 2094.33 2518.36 2016.35 2527.25C1977.22 2531.72 1948.64 2519.76 1927.83 2501.13C1897.12 2473.63 1879.12 2435.26 1873.81 2386.03C1943.57 2412.06 1981.9 2385.62 1988.79 2306.7C1996.7 2391.09 2044.29 2416.71 2131.55 2383.56C2132.57 2396.04 2131.4 2410.27 2128.06 2426.27Z" />
						</g>
					</g>
					<g id="&lt;Group&gt;">
						<g id="&lt;Group&gt;">
							<path id="&lt;Path&gt;" class="shp6" d="M2128.06 2426.27C2119.89 2465.36 2094.33 2518.36 2016.35 2527.25C1977.22 2531.72 1948.64 2519.76 1927.83 2501.13C1952.21 2462.17 2015.12 2388.66 2128.06 2426.27Z" />
						</g>
					</g>
					<g id="&lt;Group&gt;">
						<g id="&lt;Group&gt;">
							<path id="&lt;Compound Path&gt;" fill-rule="evenodd" class="shp0" d="M2000.26 2545.23C1970.5 2545.23 1944.24 2536.26 1921.98 2518.45C1866.78 2474.28 1857.25 2391.38 1856.88 2387.87C1856.24 2382.01 1858.69 2376.23 1863.35 2372.61C1868.01 2368.99 1874.21 2368.05 1879.74 2370.1C1904.2 2379.23 1924.08 2379.16 1938.82 2369.9C1967.21 2352.08 1971.81 2305.63 1971.86 2305.16C1972.67 2296.41 1980 2289.7 1988.79 2289.69C1988.8 2289.69 1988.8 2289.69 1988.8 2289.69C1997.58 2289.69 2004.93 2296.35 2005.74 2305.1C2008.52 2334.78 2018.74 2355.31 2036.11 2366.13C2070.52 2387.58 2124.96 2367.86 2125.51 2367.65C2130.5 2365.76 2136.11 2366.31 2140.63 2369.17C2145.15 2372.03 2148.07 2376.84 2148.5 2382.17C2152.64 2432.59 2130.76 2531.34 2018.31 2544.18C2012.16 2544.88 2006.14 2545.23 2000.26 2545.23ZM1895.83 2409.58C1902.23 2433.9 1915.87 2470.04 1943.35 2491.96C1962.92 2507.57 1986.17 2513.59 2014.45 2510.37C2094.04 2501.28 2110.87 2439.47 2114.09 2406.07C2089.41 2411.3 2049.91 2414.83 2018.12 2395.02C2005.8 2387.34 1995.87 2377.07 1988.35 2364.25C1981.18 2377.19 1971.13 2389.74 1957.09 2398.61C1939.6 2409.66 1919.09 2413.33 1895.83 2409.58Z" />
						</g>
					</g>
					<g id="&lt;Group&gt;">
						<g id="&lt;Group&gt;">
							<path id="&lt;Path&gt;" class="shp0" d="M2004.44 2293.56L2005.15 2300.28C2005.45 2302.7 2005.86 2305.12 2006.24 2307.54C2007.04 2312.38 2008.15 2317.15 2009.43 2321.78C2011.87 2331.09 2015.62 2339.67 2020.09 2347.15C2029.36 2361.98 2042.6 2371.26 2060.5 2374.05C2062.7 2374.44 2064.93 2374.79 2067.26 2374.91L2070.72 2375.21L2074.55 2375.28C2079.64 2375.33 2084.81 2375.66 2089.8 2375.2L2097.37 2374.85L2104.77 2373.92L2108.49 2373.46L2112.09 2372.7C2114.47 2372.16 2116.95 2371.81 2119.3 2371.18C2128.88 2368.91 2137.38 2364.72 2146.2 2360.81C2148.48 2359.89 2150.5 2358.64 2152.89 2357.69C2155 2356.5 2157.46 2355.5 2159.7 2354.24C2164.39 2351.84 2169.24 2349.2 2174.55 2345.89L2174.74 2345.77C2175.37 2345.38 2176.19 2345.57 2176.58 2346.2C2176.69 2346.38 2176.76 2346.58 2176.78 2346.77C2177.43 2353.61 2175.68 2360.14 2172.91 2366.01C2171.59 2369.04 2169.81 2371.71 2167.97 2374.44C2166 2376.95 2163.99 2379.62 2161.63 2381.8C2152.4 2390.99 2140.59 2396.66 2128.93 2401.18C2125.99 2402.3 2123 2403.15 2120.02 2404.11L2115.53 2405.47L2111.01 2406.47L2101.93 2408.45L2092.85 2409.69C2086.76 2410.65 2080.76 2410.75 2074.7 2411.11L2070.16 2411.34L2065.27 2411.22C2062.02 2411.2 2058.71 2410.9 2055.39 2410.5C2042.12 2409.16 2028.46 2404.57 2016.4 2396.98C2004.26 2389.45 1994.5 2378.6 1987.51 2367C1980.44 2355.38 1976.14 2342.88 1973.38 2330.52C1972.04 2324.31 1971.18 2318.08 1970.63 2311.85C1970.33 2308.74 1970.23 2305.61 1970.17 2302.46C1970.12 2299.19 1970.15 2296.42 1970.43 2292.46C1971.09 2283.11 1979.2 2276.05 1988.56 2276.71C1996.91 2277.29 2003.42 2283.82 2004.26 2291.86L2004.44 2293.56Z" />
						</g>
					</g>
					<g id="&lt;Group&gt;">
						<g id="&lt;Group&gt;">
							<path id="&lt;Path&gt;" class="shp0" d="M2004.49 2297.28C2004.83 2300.76 2004.92 2303.08 2004.96 2305.88C2005 2308.57 2004.99 2311.24 2004.82 2313.9C2004.51 2319.22 2003.97 2324.54 2003.01 2329.85C2001.03 2340.44 1997.8 2351.17 1992.29 2361.32C1986.9 2371.45 1979.23 2381.09 1969.42 2388.24C1959.77 2395.55 1948.39 2400.19 1937.24 2402.34C1931.65 2403.45 1926.11 2403.95 1920.65 2404.16C1915.39 2404.14 1910.27 2404.02 1905.09 2403.83C1894.59 2402.55 1883.96 2401.25 1873.52 2396.7C1870.9 2395.85 1868.37 2394.34 1865.84 2393.05C1864.58 2392.36 1863.31 2391.75 1862.09 2390.98L1858.51 2388.45C1857.35 2387.57 1856.17 2386.73 1855.05 2385.8C1853.96 2384.8 1852.96 2383.7 1851.93 2382.64C1849.8 2380.64 1848.15 2378.13 1846.54 2375.68C1844.86 2373.3 1843.86 2370.43 1842.72 2367.84C1841.92 2365.03 1841.07 2362.33 1840.87 2359.48C1840.29 2353.87 1840.88 2348.23 1843.42 2343.16C1843.67 2342.66 1844.27 2342.46 1844.77 2342.71C1844.93 2342.78 1845.05 2342.9 1845.15 2343.03L1845.24 2343.16C1848.23 2347.44 1851.14 2351.01 1854.15 2354.03C1855.5 2355.6 1857.2 2356.87 1858.53 2358.22L1860.81 2359.99C1861.49 2360.61 1862.21 2361.18 1863.04 2361.64C1869.02 2365.74 1875.13 2369.02 1882.47 2370.9C1889.64 2372.95 1897.93 2373.1 1906.03 2373.13L1918.52 2372.27C1922.39 2371.74 1926.15 2371.05 1929.67 2370C1936.64 2367.79 1942.93 2364.95 1947.95 2360.58C1953 2356.3 1957.19 2350.93 1960.5 2344.53C1963.71 2338.1 1966.28 2330.83 1967.83 2323.06C1968.63 2319.18 1969.32 2315.21 1969.73 2311.21C1969.93 2309.2 1970.15 2307.19 1970.28 2305.21L1970.55 2299.79L1970.63 2298.13C1971.1 2288.76 1979.07 2281.55 1988.43 2282.01C1996.94 2282.43 2003.67 2289.05 2004.49 2297.28Z" />
						</g>
					</g>
					<g id="&lt;Group&gt;">
						<g id="&lt;Group&gt;">
							<g id="&lt;Group&gt;">
								<path id="&lt;Path&gt;" class="shp0" d="M1700.89 2171.95C1697.42 2230.71 1730.88 2280.49 1775.63 2283.14C1820.37 2285.79 1859.47 2240.29 1862.94 2181.53C1866.42 2122.76 1832.96 2072.98 1788.21 2070.33C1743.46 2067.69 1704.37 2113.18 1700.89 2171.95Z" />
							</g>
						</g>
						<g id="&lt;Group&gt;">
							<g id="&lt;Group&gt;">
								<path id="&lt;Path&gt;" class="shp3" d="M1779.24 2156.91C1778.22 2174.08 1787.99 2188.62 1801.07 2189.39C1814.14 2190.17 1825.55 2176.88 1826.57 2159.71C1827.58 2142.55 1817.81 2128.01 1804.74 2127.24C1791.67 2126.46 1780.25 2139.75 1779.24 2156.91Z" />
							</g>
						</g>
					</g>
					<g id="&lt;Group&gt;">
						<g id="&lt;Group&gt;">
							<g id="&lt;Group&gt;">
								<path id="&lt;Path&gt;" class="shp0" d="M2317.94 2171.95C2321.42 2230.71 2287.96 2280.49 2243.21 2283.14C2198.46 2285.79 2159.37 2240.29 2155.89 2181.53C2152.42 2122.76 2185.88 2072.98 2230.63 2070.33C2275.37 2067.69 2314.47 2113.18 2317.94 2171.95Z" />
							</g>
						</g>
						<g id="&lt;Group&gt;">
							<g id="&lt;Group&gt;">
								<path id="&lt;Path&gt;" class="shp3" d="M2239.6 2156.91C2240.61 2174.08 2230.84 2188.62 2217.77 2189.39C2204.7 2190.17 2193.28 2176.88 2192.27 2159.71C2191.25 2142.55 2201.02 2128.01 2214.09 2127.24C2227.16 2126.46 2238.58 2139.75 2239.6 2156.91Z" />
							</g>
						</g>
					</g>
					<g id="&lt;Group&gt;">
						<g id="&lt;Group&gt;">
							<g id="&lt;Group&gt;">
								<path id="&lt;Path&gt;" class="shp0" d="M1998.16 2324.46C2055.71 2326.18 2096.53 2265.02 2077.56 2246.86C2069.97 2239.59 2056.23 2234.46 2042.47 2230.93C2015.38 2223.97 1986.96 2223.12 1959.5 2228.45C1945.56 2231.16 1931.54 2235.45 1923.53 2242.26C1903.5 2259.26 1940.6 2322.74 1998.16 2324.46Z" />
							</g>
						</g>
						<g id="&lt;Group&gt;" style="opacity: 0.302">
							<g id="&lt;Group&gt;">
								<path id="&lt;Path&gt;" class="shp3" d="M2003.51 2250.69C2003.69 2256.68 1991.2 2261.94 1975.61 2262.43C1960.01 2262.91 1947.22 2258.45 1947.03 2252.45C1946.84 2246.45 1959.33 2241.19 1974.93 2240.71C1990.52 2240.22 2003.32 2244.69 2003.51 2250.69Z" />
							</g>
						</g>
					</g>
				</g>
			</g>
		</g>
	</g>
</svg>