<svg version="1.2" baseProfile="tiny-ps" xmlns="http://www.w3.org/2000/svg" viewBox="0 0 4000 2000" width="4000" height="2000">
	<title>Layer 2</title>
	<defs>
		<clipPath clipPathUnits="userSpaceOnUse" id="cp1">
			<path d="M2818.85 1422.47C2794.97 1412.32 2778.23 1388.65 2778.23 1361.06C2778.23 1325.67 2805.8 1296.73 2840.63 1294.52C2837.22 1286.46 2835.33 1277.59 2835.33 1268.29C2835.33 1231.12 2865.46 1200.99 2902.63 1200.99C2925.87 1200.99 2946.36 1212.77 2958.45 1230.68C2971.45 1211.89 2993.13 1199.58 3017.7 1199.58C3057.47 1199.58 3089.71 1231.82 3089.71 1271.59C3089.71 1282.59 3087.24 1293.01 3082.83 1302.33C3114.46 1305.63 3139.12 1332.37 3139.12 1364.87C3139.12 1391.68 3122.34 1414.56 3098.71 1423.61C3094.99 1426.59 3092.12 1429.32 3089.95 1432.2C3067.11 1458.67 3076.77 1486.33 3080.77 1472.33C3090.11 1497 3077.77 1554 3091.44 1522.67C3094.63 1532.31 3099.38 1558.8 3096.11 1589.67C3092.11 1627.33 3099.77 1630.67 3104.77 1617.67C3119.77 1656 3109.77 1675.33 3113.94 1695.5C3116.11 1693.27 3117.78 1690.24 3118.94 1686.42C3121.93 1709.87 3112.77 1746.67 3115.94 1771C3120.16 1769.89 3122.58 1764.97 3123.19 1756.25C3134.69 1800.75 3120.19 1828.5 3126.44 1846C3129.27 1845.44 3131.19 1840.94 3132.19 1832.5C3142.19 1860 3126.82 1878.57 3131.44 1917C3133.8 1915.59 3136.34 1909.34 3139.06 1898.27C3141.77 1934 3130.11 1952.33 3131.11 2000C2987.38 2000 2882.91 2000 2817.71 2000C2807.23 1976.68 2804.84 1952.22 2810.54 1926.6C2810 1935.75 2811.81 1942.65 2815.97 1947.31C2816.63 1935.5 2816.38 1924.27 2815.22 1913.62C2813.47 1897.65 2805.49 1873.2 2815.47 1847.99C2815.3 1856.81 2816.47 1863.38 2818.96 1867.71C2820.79 1861.38 2821.37 1853.32 2820.71 1843.5C2819.71 1828.78 2814.47 1808.32 2820.46 1792.59C2821.46 1799.75 2822.95 1803.82 2824.95 1804.82C2826.95 1800.83 2827.61 1793.67 2826.93 1783.34C2825.91 1767.85 2821.15 1749.17 2824.51 1738.51C2826.14 1743.12 2828.06 1744.62 2830.29 1743C2833.62 1740.57 2823.77 1711.74 2830.32 1694.71C2829.94 1698.64 2833.12 1706.88 2835.37 1706.69C2836.49 1706.13 2837.43 1685.73 2835.93 1674.13C2834.43 1662.52 2832.75 1646.05 2837.24 1629.58C2837.49 1638.07 2839.11 1641.25 2842.11 1639.13C2845.1 1626.59 2836.68 1592.21 2842.29 1576.12C2844.12 1582.19 2846.08 1585.14 2848.16 1584.98C2848.16 1582.86 2843.67 1560.02 2848.16 1542.06C2853.15 1553.04 2861.19 1533.75 2853.15 1506.12C2863.31 1509 2856.65 1491.94 2849.77 1462.7C2865.94 1456 2845.2 1435.63 2818.85 1422.47Z" />
		</clipPath>
	</defs>
	<style>
		tspan { white-space:pre }
		.shp0 { fill: #279191 } 
		.shp1 { fill: #d9ccc5 } 
		.shp2 { fill: #cfb897 } 
		.shp3 { fill: #f4e9e3 } 
		.shp4 { fill: #eba3a3 } 
		.shp5 { fill: #e6debe } 
		.shp6 { fill: #ffffff } 
		.shp7 { fill: #593524 } 
		.shp8 { fill: #fcd228 } 
		.shp9 { fill: #ccc5a9 } 
		.shp10 { fill: #c26e40 } 
		.shp11 { fill: #a6562a } 
		.shp12 { fill: #d9cfca } 
		.shp13 { fill: #b5bdcc } 
		.shp14 { fill: #b7c4de } 
		.shp15 { fill: #ded6b8 } 
		.shp16 { fill: #fff2bf } 
		.shp17 { fill: #262521 } 
		.shp18 { fill: #d3d4d6 } 
		.shp19 { fill: #d18925 } 
	</style>
	<g id="Layer 2">
		<g id="&lt;Group&gt;">
			<path id="&lt;Path&gt;" class="shp0" d="M4000 0L4000 2000L0 2000L0 0L4000 0Z" />
			<g id="&lt;Group&gt;">
				<g id="&lt;Group&gt;">
					<g id="&lt;Group&gt;">
						<path id="&lt;Path&gt;" class="shp1" d="M368.49 780.47C364.19 784.59 356.7 810.04 357.82 819.77C371.05 814.66 381.45 806.01 389.02 793.83C382.32 786.55 375.48 782.09 368.49 780.47Z" />
					</g>
					<g id="&lt;Group&gt;">
						<path id="&lt;Path&gt;" class="shp1" d="M553.89 791.91C556.14 797.43 577.09 813.71 586.56 816.22C586.64 802.04 582.4 789.2 573.83 777.7C564.6 781.27 557.96 786 553.89 791.91Z" />
					</g>
					<g id="&lt;Group&gt;">
						<path id="&lt;Path&gt;" class="shp1" d="M642.12 667.81C647.16 670.99 673.66 672.09 682.84 668.64C674.67 657.05 663.76 649.05 650.11 644.66C644.66 652.92 642 660.64 642.12 667.81Z" />
					</g>
					<g id="&lt;Group&gt;">
						<path id="&lt;Path&gt;" class="shp1" d="M297.03 649.76C289.32 654.94 280.57 665.47 270.77 681.36C287.15 680.39 301.08 676.22 312.56 668.86C306.49 654.95 301.31 648.58 297.03 649.76Z" />
					</g>
					<g id="&lt;Group&gt;">
						<path id="&lt;Path&gt;" class="shp2" d="M613.15 577.53C637.03 587.68 653.78 611.35 653.78 638.94C653.78 674.33 626.2 703.27 591.37 705.48C594.78 713.54 596.67 722.41 596.67 731.71C596.67 768.88 566.54 799.01 529.37 799.01C506.13 799.01 485.64 787.23 473.55 769.32C460.55 788.11 438.87 800.42 414.3 800.42C374.53 800.42 342.29 768.18 342.29 728.41C342.29 717.41 344.77 706.99 349.18 697.67C317.54 694.37 292.88 667.63 292.88 635.13C292.88 608.32 309.67 585.44 333.3 576.39C352.77 560.75 349.23 552.21 340.79 490.38C326.6 386.36 297.87 146.02 292.88 0C436.61 0 543.74 0 614.29 0C603.06 285.21 563.22 539.28 565.63 558.01C567.46 571.94 586.81 564.37 613.15 577.53Z" />
					</g>
					<g id="&lt;Group&gt;">
						<path id="&lt;Path&gt;" class="shp3" d="M613.15 577.53C637.03 587.68 653.78 611.35 653.78 638.94C653.78 674.33 626.2 703.27 591.37 705.48C594.78 713.54 596.67 722.41 596.67 731.71C596.67 768.88 566.54 799.01 529.37 799.01C506.13 799.01 485.64 787.23 473.55 769.32C460.55 788.11 438.87 800.42 414.3 800.42C374.53 800.42 342.29 768.18 342.29 728.41C342.29 717.41 344.77 706.99 349.18 697.67C317.54 694.37 292.88 667.63 292.88 635.13C292.88 608.32 309.67 585.44 333.3 576.39C352.77 560.75 349.23 552.21 340.79 490.38C336.89 461.78 331.89 422.85 326.58 378.42C417.99 335.35 529.28 355.78 585.69 371.08C574.27 476.91 564.39 548.4 565.63 558.01C567.46 571.94 586.81 564.37 613.15 577.53Z" />
					</g>
					<g id="&lt;Group&gt;">
						<path id="&lt;Path&gt;" class="shp4" d="M461.07 674.04C500 674.04 533.44 613.66 517.96 599.18C494.96 577.66 486.02 600.68 464.06 600.68C442.1 600.68 426.35 579.35 406.67 595.19C386.21 611.66 424.14 674.04 461.07 674.04Z" />
					</g>
					<g id="&lt;Group&gt;">
						<path id="&lt;Path&gt;" class="shp4" d="M364.25 640.61C364.25 633.44 358.44 627.63 351.27 627.63C344.11 627.63 338.3 633.44 338.3 640.61C338.3 647.77 344.11 653.58 351.27 653.58C358.44 653.58 364.25 647.77 364.25 640.61Z" />
					</g>
					<g id="&lt;Group&gt;">
						<path id="&lt;Path&gt;" class="shp4" d="M432.32 720.27C432.32 713.1 426.51 707.29 419.34 707.29C412.17 707.29 406.37 713.1 406.37 720.27C406.37 727.44 412.17 733.25 419.34 733.25C426.51 733.25 432.32 727.44 432.32 720.27Z" />
					</g>
					<g id="&lt;Group&gt;">
						<path id="&lt;Path&gt;" class="shp4" d="M540.27 717.83C540.27 710.67 534.46 704.86 527.3 704.86C520.13 704.86 514.32 710.67 514.32 717.83C514.32 725 520.13 730.81 527.3 730.81C534.46 730.81 540.27 725 540.27 717.83Z" />
					</g>
					<g id="&lt;Group&gt;">
						<path id="&lt;Path&gt;" class="shp4" d="M598.17 631.69C598.17 624.52 592.36 618.71 585.19 618.71C578.02 618.71 572.22 624.52 572.22 631.69C572.22 638.86 578.02 644.67 585.19 644.67C592.36 644.67 598.17 638.86 598.17 631.69Z" />
					</g>
					<g id="&lt;Group&gt;" style="mix-blend-mode: multiply">
						<path id="&lt;Path&gt;" class="shp5" d="M458.64 523.42C447.01 523.42 435.45 525.13 425.21 528.54C422.86 529.33 421.59 531.87 422.37 534.22C423.16 536.58 425.7 537.85 428.05 537.06C446.51 530.91 470.68 530.92 489.63 537.08C491.98 537.84 494.52 536.55 495.29 534.19C496.05 531.83 494.76 529.3 492.4 528.53C481.92 525.13 470.25 523.42 458.64 523.42Z" />
					</g>
				</g>
				<g id="&lt;Group&gt;">
					<g id="&lt;Group&gt;">
						<path id="&lt;Path&gt;" class="shp3" d="M2131.1 2000C2110.91 1974.47 2127.84 1956.77 2136.96 1907.2C2146.08 1857.64 2122.63 1847.96 2142.82 1806.18C2168.28 1753.51 2131.1 1727.35 2150.64 1694.78C2171.99 1659.19 2141.52 1666.45 2159.76 1628.22C2177.99 1589.98 2146.17 1578.13 2153.24 1546.08C2160.32 1514.03 2128.88 1494.26 2141.06 1469.9C2153.24 1445.53 2112.22 1427.41 2123.28 1394.08C2134.35 1360.74 2108.21 1323.82 2126.32 1314.3C2156.09 1298.65 2139.78 1264.26 2152.59 1265.67C2173.49 1267.99 2192.97 1277.71 2191.67 1262.13C2190.37 1246.56 2188.41 1247.26 2205.35 1239.48C2222.28 1231.69 2196.67 1207.61 2219.9 1213.28C2243.12 1218.94 2237.91 1195.94 2251.59 1209.56C2265.27 1223.19 2252.97 1196.61 2271.48 1215.4C2303.02 1247.41 2289.53 1202.18 2306.07 1202.62C2325.93 1203.15 2324.79 1182.62 2337.05 1194.3C2347.47 1204.24 2359.89 1185.81 2364.69 1199.97C2369.48 1214.13 2377.4 1202.09 2380.97 1223.33C2384.54 1244.58 2387.81 1229.35 2388.37 1250.1C2388.81 1266.56 2403.46 1230.98 2420.01 1249.39C2436.57 1267.8 2459.1 1246.32 2457.23 1271.33C2455.36 1296.33 2492.27 1312.44 2480.55 1337.22C2468.83 1362 2495.83 1372.97 2482.57 1391.49C2469.3 1410 2498.44 1425.7 2478.25 1444.11C2458.06 1462.52 2489.97 1471.75 2470.53 1491.69C2451.09 1511.62 2474.61 1530.99 2457.41 1546.79C2440.21 1562.58 2463.27 1589.27 2446.99 1601.31C2430.7 1613.35 2465.6 1625.39 2448.94 1649.46C2432.29 1673.53 2457.02 1705.39 2445.3 1716.72C2433.57 1728.05 2459.24 1751.51 2447.64 1771.25C2436.03 1791 2465.6 1809.35 2452.2 1823.65C2438.8 1837.95 2465.22 1851.27 2456.1 1866.14C2446.99 1881 2467.58 1901.01 2459.89 1915.79C2452.2 1930.57 2455.45 1944.03 2462.62 1951.11C2469.78 1958.19 2454.8 1970.22 2461.97 1982.97C2466.74 1991.47 2465.01 1997.14 2456.76 2000C2376.43 2000 2267.87 2000 2131.1 2000Z" />
					</g>
					<g id="&lt;Group&gt;">
						<path id="&lt;Path&gt;" class="shp4" d="M2302.49 1387.29C2277.29 1387.29 2279.23 1405.4 2258.55 1421.72C2238.97 1437.19 2242.4 1456.75 2255.97 1464.47C2275.28 1475.45 2291.72 1458.24 2303.02 1458.24C2314.33 1458.24 2334.48 1479.61 2353.22 1462.1C2371.96 1444.58 2353.34 1426.37 2342.56 1416.97C2329.96 1405.99 2326.73 1387.29 2302.49 1387.29Z" />
					</g>
					<g id="&lt;Group&gt;">
						<path id="&lt;Path&gt;" class="shp4" d="M2177.78 1327.18C2159.61 1334.23 2181.25 1385.24 2196.01 1379.58C2210.78 1373.91 2208.17 1315.37 2177.78 1327.18Z" />
					</g>
					<g id="&lt;Group&gt;">
						<path id="&lt;Path&gt;" class="shp4" d="M2256.63 1278.75C2233.67 1282.47 2248.25 1336.41 2266.05 1334.31C2283.85 1332.22 2282.59 1274.54 2256.63 1278.75Z" />
					</g>
					<g id="&lt;Group&gt;">
						<path id="&lt;Path&gt;" class="shp4" d="M2347.4 1272.88C2328.44 1270.13 2324.82 1323.39 2341.32 1328.11C2357.82 1332.83 2366.94 1275.71 2347.4 1272.88Z" />
					</g>
					<g id="&lt;Group&gt;">
						<path id="&lt;Path&gt;" class="shp4" d="M2425.09 1321.9C2406.9 1311.47 2391.37 1351.61 2402.75 1361.46C2412.91 1370.14 2440.37 1330.66 2425.09 1321.9Z" />
					</g>
				</g>
				<g id="&lt;Group&gt;">
					<g id="&lt;Group&gt;">
						<path id="&lt;Path&gt;" class="shp6" d="M3063.51 1219.53C3067.82 1215.41 3075.3 1189.96 3074.18 1180.23C3060.95 1185.34 3050.56 1193.99 3042.99 1206.17C3049.68 1213.45 3056.52 1217.91 3063.51 1219.53Z" />
					</g>
					<g id="&lt;Group&gt;">
						<path id="&lt;Path&gt;" class="shp6" d="M2878.11 1208.09C2875.86 1202.57 2854.91 1186.29 2845.44 1183.78C2845.36 1197.96 2849.61 1210.8 2858.17 1222.3C2867.4 1218.73 2874.05 1214 2878.11 1208.09Z" />
					</g>
					<g id="&lt;Group&gt;">
						<path id="&lt;Path&gt;" class="shp6" d="M2789.88 1332.19C2784.85 1329.01 2758.34 1327.91 2749.17 1331.36C2757.33 1342.95 2768.24 1350.95 2781.89 1355.34C2787.34 1347.08 2790 1339.36 2789.88 1332.19Z" />
					</g>
					<g id="&lt;Group&gt;">
						<path id="&lt;Path&gt;" class="shp6" d="M3134.97 1350.24C3142.68 1345.06 3151.43 1334.53 3161.23 1318.64C3144.85 1319.61 3130.93 1323.78 3119.45 1331.14C3125.51 1345.05 3130.69 1351.42 3134.97 1350.24Z" />
					</g>
					<g id="&lt;Clip Group&gt;" clip-path="url(#cp1)">
						<g id="&lt;Group&gt;">
							<g id="&lt;Group&gt;">
								<g id="&lt;Group&gt;">
									<path id="&lt;Path&gt;" class="shp7" d="M3054.64 1675.58C3055.46 1676.85 3056.34 1678.05 3057.25 1679.22C3059.24 1676.99 3062.06 1675.48 3065.5 1675.5C3068.73 1670.68 3075.29 1667.47 3080.62 1671.43C3091.38 1679.43 3093.24 1692.77 3084.56 1703.15C3082.86 1705.18 3080.46 1706.21 3077.95 1706.41C3075.4 1712.07 3069.26 1714.74 3063.45 1712.54C3062.89 1713.05 3062.29 1713.51 3061.65 1713.88C3056.06 1717.16 3049.78 1714.87 3046.29 1709.86C3040.84 1702.02 3036.84 1693.37 3034.12 1684.23C3030.38 1671.66 3047.92 1665.09 3054.64 1675.58Z" />
								</g>
								<g id="&lt;Group&gt;">
									<path id="&lt;Path&gt;" class="shp7" d="M3035.91 1545.04C3038.03 1546.48 3040.01 1548.03 3041.87 1549.69C3046.08 1550.46 3050.13 1553.33 3050.74 1557.66C3051.01 1559.55 3051.27 1560.81 3051.9 1562.22C3052.21 1562.78 3052.53 1563.34 3052.82 1563.93C3056.33 1571.12 3052.26 1577.7 3046.65 1579.95C3049.08 1588.19 3045.73 1596.71 3040.49 1602.97C3031.19 1614.09 3015.39 1598.12 3024.61 1587.09C3025.04 1586.57 3025.06 1584.81 3024.41 1584.32C3020.45 1581.33 3016.86 1578.92 3014.75 1574.24C3010.16 1564.07 3015.76 1554.51 3022.3 1546.79C3025.37 1543.17 3032.01 1542.39 3035.91 1545.04Z" />
								</g>
								<g id="&lt;Group&gt;">
									<path id="&lt;Path&gt;" class="shp7" d="M2958.6 1628.44C2958.51 1628.6 2958.4 1628.79 2958.27 1629.04C2957.56 1630.36 2957.02 1631.78 2956.37 1633.14C2954.27 1637.53 2950.49 1640.5 2945.94 1642.01C2933.35 1646.21 2926.11 1631.77 2920.72 1623.31C2912.92 1611.06 2932.36 1599.8 2940.11 1611.98C2940.58 1612.71 2941.05 1613.45 2941.52 1614.18C2942.7 1612.59 2944.15 1611.13 2946.19 1609.83C2951.35 1606.53 2958.55 1608.73 2961.55 1613.85C2964.5 1618.89 2962.94 1624.96 2958.6 1628.44Z" />
								</g>
								<g id="&lt;Group&gt;">
									<path id="&lt;Path&gt;" class="shp7" d="M2910.41 1736.12C2910.67 1736.6 2910.92 1737.08 2911.18 1737.55C2915.86 1739.97 2919.95 1743.44 2923.03 1748.2C2925.88 1752.61 2928.03 1757.22 2927.07 1762.56C2926.02 1768.39 2920.67 1773.1 2914.65 1773.2C2906.94 1773.33 2902.4 1768.37 2898.88 1762.41C2894.71 1768.29 2884.98 1770.21 2880 1762.1C2877.21 1757.57 2874.31 1753.13 2871.27 1748.76C2869.87 1746.74 2865.81 1739.44 2862.78 1736.82C2858.59 1737.52 2854.05 1737.45 2851.26 1733.9C2847.41 1729 2845.82 1723.34 2845.49 1717.11C2845.09 1709.69 2846.32 1705.26 2852.57 1700.92C2852.62 1700.88 2852.68 1700.86 2852.72 1700.82C2853.34 1698.33 2853.95 1695.83 2854.57 1693.33C2855.93 1687.78 2862.06 1684.08 2867.6 1685.3C2872.31 1679.86 2879.14 1676.17 2886.54 1675.85C2888.4 1675.77 2890.16 1676.23 2891.71 1677.08C2893.72 1676.02 2895.89 1675.25 2898.21 1674.89C2902.84 1674.16 2908.69 1675.17 2910.89 1680.05C2916.07 1691.49 2921.45 1702.87 2926.3 1714.46C2930.89 1725.45 2921.52 1737.41 2910.41 1736.12Z" />
								</g>
								<g id="&lt;Group&gt;">
									<path id="&lt;Path&gt;" class="shp7" d="M3115.51 1820.08C3109.58 1825.36 3102.11 1822.95 3098.37 1818.11C3094.5 1819.98 3089.86 1819.72 3086.49 1815.62C3084.7 1813.44 3082.91 1811.26 3081.12 1809.08C3076.69 1808.98 3072.22 1806.69 3070.24 1801.5C3068.54 1797.05 3066.84 1792.61 3065.14 1788.16C3061.59 1778.87 3073.92 1770.54 3081.55 1775.18C3081.44 1774.55 3081.3 1773.94 3081.21 1773.31C3080.3 1767.27 3082.63 1761.27 3089.05 1759.5C3094.42 1758.03 3101.95 1761.28 3102.86 1767.34C3103 1768.23 3103.18 1769.09 3103.34 1769.97C3105.4 1770.24 3107.47 1771.12 3109.39 1772.8C3111.31 1774.49 3114.78 1774.7 3117.16 1775.28C3121.47 1776.32 3125.6 1778 3129.26 1780.49C3134.22 1783.87 3137.85 1788.54 3140.84 1793.63C3148.92 1795.13 3154.14 1806.37 3146.97 1812.68C3145.8 1813.71 3144.64 1814.73 3143.48 1815.75C3143.36 1815.86 3143.22 1815.95 3143.09 1816.06C3142.62 1816.69 3142.17 1817.35 3141.67 1817.96C3138.97 1820.71 3135.34 1823.14 3131.31 1823.05C3126.22 1822.94 3121.45 1821.06 3116.82 1818.81C3116.39 1819.24 3115.97 1819.67 3115.51 1820.08Z" />
								</g>
								<g id="&lt;Group&gt;">
									<path id="&lt;Path&gt;" class="shp7" d="M3079.38 1952.46C3081.51 1951.45 3083.94 1950.46 3086.49 1949.7C3086.78 1948.2 3087.14 1946.71 3087.58 1945.21C3090.08 1936.72 3100.02 1934.74 3106.35 1940.26C3113.35 1946.35 3118.09 1954.36 3120.29 1963.36C3121.98 1970.24 3117.66 1975.17 3112.41 1976.78C3112.41 1976.8 3112.41 1976.82 3112.41 1976.84C3112.38 1977.6 3112.27 1978.33 3112.1 1979.04C3112.49 1979.23 3112.86 1979.43 3113.24 1979.64C3114.31 1979.3 3115.5 1979.12 3116.8 1979.12C3128.08 1979.12 3130.57 1992.71 3124.3 1998.75C3122.1 2003.34 3116.98 2006.61 3111.91 2005.58C3111.68 2006.77 3111.28 2007.95 3110.67 2009.06C3104.02 2021.21 3090.84 2026.33 3077.59 2024.36C3073.86 2023.8 3070.69 2019.94 3069.75 2016.51C3068.3 2011.26 3070.79 2006.87 3074.91 2003.83C3073.77 2004.67 3074.99 2003.48 3075.67 2002.84C3075.54 2002.87 3075.98 2002.13 3076.35 2001.54C3072.28 2003.04 3067.86 2003.73 3063.67 2004.03C3057.83 2004.43 3052.07 1998.61 3052.44 1992.8C3053.53 1975.44 3063.53 1959.97 3079.38 1952.46Z" />
								</g>
								<g id="&lt;Group&gt;">
									<path id="&lt;Path&gt;" class="shp7" d="M2868.36 1976.09C2869.62 1974.83 2871.23 1973.85 2873.22 1973.28C2874.98 1972.78 2876.75 1972.34 2878.52 1971.95C2879.46 1967.21 2883.1 1963.26 2889.11 1963.45C2889.39 1963.46 2889.67 1963.47 2889.95 1963.48C2892.5 1960.16 2895.06 1956.85 2897.61 1953.53C2906.38 1942.15 2922.29 1951.22 2917.19 1964.38C2922.72 1964.77 2927.48 1968.96 2927.92 1974.58C2929.26 1975.17 2930.51 1976.05 2931.59 1977.14C2938.01 1977.55 2943.8 1979.48 2947.12 1985.55C2952.62 1995.58 2946.67 2006.64 2938.46 2012.7C2933.73 2016.19 2926.65 2016.63 2921.03 2016.83C2917.35 2016.96 2911.08 2015.54 2908.03 2018.25C2899.93 2025.46 2888.92 2018.31 2888.54 2010.23C2887.13 2010.02 2885.79 2009.59 2884.65 2008.92C2884.36 2008.75 2884.09 2008.57 2883.83 2008.38C2882.76 2008.2 2881.69 2007.86 2880.63 2007.32C2873.03 2003.49 2865.42 1999.66 2857.82 1995.83C2845.15 1989.45 2855.8 1970.75 2868.36 1976.09Z" />
								</g>
								<g id="&lt;Group&gt;">
									<path id="&lt;Path&gt;" class="shp7" d="M3058.33 1850.47C3060.96 1847.99 3064.5 1846.76 3068.57 1847.94C3077.5 1850.53 3092.64 1851.95 3095.57 1862.62C3097.47 1869.52 3093.29 1875.66 3087.07 1878.19C3080.73 1880.78 3075.88 1876.37 3071.41 1872.62C3068.05 1877.1 3062.75 1878.45 3056.88 1875.83C3052.65 1873.95 3049.83 1870.86 3047.13 1867.22C3043.48 1862.29 3046.31 1854.69 3051.16 1851.85C3053.56 1850.44 3056.02 1850.07 3058.33 1850.47Z" />
								</g>
								<g id="&lt;Group&gt;">
									<path id="&lt;Path&gt;" class="shp7" d="M2995.8 1765.09C2995.73 1765.35 2995.65 1765.61 2995.59 1765.87C2995.58 1765.96 2995.59 1766.04 2995.58 1766.15C2995.59 1766.25 2995.59 1766.32 2995.59 1766.4C2995.64 1766.58 2995.67 1766.76 2995.72 1766.94C2997.28 1772.85 2993.82 1779.11 2987.87 1780.75C2982.02 1782.36 2975.62 1778.82 2974.06 1772.91C2972.22 1765.93 2973.19 1757.83 2977.6 1751.97C2981.28 1747.09 2987.22 1744.57 2992.97 1747.94C2997.79 1750.76 3000.69 1758.4 2996.99 1763.3C2996.56 1763.88 2996.17 1764.47 2995.8 1765.09Z" />
								</g>
								<g id="&lt;Group&gt;">
									<path id="&lt;Path&gt;" class="shp7" d="M2891.73 1556.2C2885.61 1556.2 2880.5 1551.09 2880.5 1544.97C2880.5 1543.97 2880.5 1542.97 2880.5 1541.97C2880.5 1535.85 2885.61 1530.74 2891.73 1530.74C2897.85 1530.74 2902.96 1535.85 2902.96 1541.97C2902.96 1542.97 2902.96 1543.97 2902.96 1544.97C2902.96 1551.09 2897.85 1556.2 2891.73 1556.2Z" />
								</g>
								<g id="&lt;Group&gt;">
									<path id="&lt;Path&gt;" class="shp7" d="M2861.9 1820.77C2854.31 1825.16 2846.07 1822.81 2839.86 1817.3C2837.15 1814.9 2835.69 1811.24 2834.32 1807.96C2831.65 1808.71 2828.74 1808.46 2825.97 1806.84C2821.02 1803.94 2818.43 1796.5 2821.95 1791.48C2824.08 1788.43 2826.7 1786.33 2829.6 1785.13C2829.31 1782.08 2830.25 1778.98 2832.75 1776.48C2836.81 1772.42 2844.66 1771.82 2848.63 1776.48C2854.08 1782.89 2860.3 1789.11 2865.04 1796.06C2870.21 1803.65 2870.96 1815.52 2861.9 1820.77Z" />
								</g>
								<g id="&lt;Group&gt;">
									<path id="&lt;Path&gt;" class="shp7" d="M2942.55 1924.77C2941.19 1921.19 2939.83 1917.6 2938.48 1914.01C2938.07 1912.94 2937.85 1911.91 2937.79 1910.93C2934.62 1910 2932.04 1907.64 2931.4 1903.47C2930.04 1894.65 2929.49 1886.66 2934.03 1878.62C2934.79 1877.28 2935.76 1876.03 2936.87 1874.9C2935.95 1869.04 2935.56 1863.11 2935.74 1857.17C2936.09 1845.59 2950.57 1843.27 2956.09 1850.26C2958.48 1848.99 2961.32 1848.56 2964.2 1849.35C2969.93 1850.93 2973.89 1857.33 2972.04 1863.17C2971.61 1864.54 2971.05 1865.88 2970.41 1867.17C2978.98 1865.8 2988.13 1870.35 2991.48 1880.1C2992.06 1881.79 2992.1 1883.45 2991.77 1885.02C2997.8 1890.24 3002.03 1897.31 3003.6 1905.31C3004.53 1910.04 3002.39 1914.56 2999.02 1917.25C3001.27 1925.74 3001.72 1934.89 2993.78 1940.29C2984.96 1946.28 2972.08 1943.34 2962.85 1939.91C2959.1 1938.51 2956.72 1935.76 2955.64 1932.66C2950.51 1933.41 2944.72 1930.53 2942.55 1924.77Z" />
								</g>
								<g id="&lt;Group&gt;">
									<path id="&lt;Path&gt;" class="shp7" d="M2798.39 1937.01C2798.37 1933.64 2800.04 1930.34 2804.12 1928.33C2807.48 1926.67 2806.52 1921.29 2806.57 1918.04C2806.6 1916.04 2806.74 1914.09 2807 1912.16C2804.96 1902.57 2803.68 1892.85 2803.13 1883.05C2802.74 1875.96 2807.92 1872.37 2813.41 1872.23C2814.66 1859.62 2835.19 1860.28 2835.8 1874.06C2836.13 1881.41 2838.41 1887.75 2842.34 1893.92C2843.96 1896.45 2844.25 1899.28 2843.61 1901.89C2847.87 1899.8 2852.81 1899.99 2856.57 1903.75C2860.56 1907.74 2861.34 1915.78 2856.57 1919.63C2855.7 1920.34 2854.76 1921.07 2853.83 1921.82C2854.6 1928.75 2854.22 1935.32 2851.83 1942.09C2849.84 1947.74 2845.11 1950.41 2840.37 1950.05C2840.25 1950.2 2840.14 1950.34 2840.02 1950.48C2830.05 1962.12 2814.91 1960.8 2801.49 1957.2C2791.14 1954.42 2791.72 1941.84 2798.39 1937.01Z" />
								</g>
							</g>
						</g>
						<g id="&lt;Group&gt;">
							<path id="&lt;Path&gt;" class="shp8" d="M2818.85 1422.47C2794.97 1412.32 2778.23 1388.65 2778.23 1361.06C2778.23 1325.67 2805.8 1296.73 2840.63 1294.52C2837.22 1286.46 2835.33 1277.59 2835.33 1268.29C2835.33 1231.12 2865.46 1200.99 2902.63 1200.99C2925.87 1200.99 2946.36 1212.77 2958.45 1230.68C2971.45 1211.89 2993.13 1199.58 3017.7 1199.58C3057.47 1199.58 3089.71 1231.82 3089.71 1271.59C3089.71 1282.59 3087.24 1293.01 3082.83 1302.33C3114.46 1305.63 3139.12 1332.37 3139.12 1364.87C3139.12 1391.68 3122.34 1414.56 3098.71 1423.61C3094.99 1426.59 3092.12 1429.32 3089.95 1432.2C3067.11 1458.67 3076.77 1486.33 3080.77 1472.33C3090.11 1497 3077.77 1554 3091.44 1522.67C3094.63 1532.31 3099.38 1558.8 3096.11 1589.67C3092.11 1627.33 3099.77 1630.67 3104.77 1617.67C3119.77 1656 3109.77 1675.33 3113.94 1695.5C3116.11 1693.27 3117.78 1690.24 3118.94 1686.42C3121.93 1709.87 3112.77 1746.67 3115.94 1771C3120.16 1769.89 3122.58 1764.97 3123.19 1756.25C3134.69 1800.75 3120.19 1828.5 3126.44 1846C3129.27 1845.44 3131.19 1840.94 3132.19 1832.5C3142.19 1860 3126.82 1878.57 3131.44 1917C3133.8 1915.59 3136.34 1909.34 3139.06 1898.27C3141.77 1934 3130.11 1952.33 3131.11 2000C2987.38 2000 2882.91 2000 2817.71 2000C2807.23 1976.68 2804.84 1952.22 2810.54 1926.6C2810 1935.75 2811.81 1942.65 2815.97 1947.31C2816.63 1935.5 2816.38 1924.27 2815.22 1913.62C2813.47 1897.65 2805.49 1873.2 2815.47 1847.99C2815.3 1856.81 2816.47 1863.38 2818.96 1867.71C2820.79 1861.38 2821.37 1853.32 2820.71 1843.5C2819.71 1828.78 2814.47 1808.32 2820.46 1792.59C2821.46 1799.75 2822.95 1803.82 2824.95 1804.82C2826.95 1800.83 2827.61 1793.67 2826.93 1783.34C2825.91 1767.85 2821.15 1749.17 2824.51 1738.51C2826.14 1743.12 2828.06 1744.62 2830.29 1743C2833.62 1740.57 2823.77 1711.74 2830.32 1694.71C2829.94 1698.64 2833.12 1706.88 2835.37 1706.69C2836.49 1706.13 2837.43 1685.73 2835.93 1674.13C2834.43 1662.52 2832.75 1646.05 2837.24 1629.58C2837.49 1638.07 2839.11 1641.25 2842.11 1639.13C2845.1 1626.59 2836.68 1592.21 2842.29 1576.12C2844.12 1582.19 2846.08 1585.14 2848.16 1584.98C2848.16 1582.86 2843.67 1560.02 2848.16 1542.06C2853.15 1553.04 2861.19 1533.75 2853.15 1506.12C2863.31 1509 2856.65 1491.94 2849.77 1462.7C2865.94 1456 2845.2 1435.63 2818.85 1422.47Z" />
						</g>
					</g>
					<g id="&lt;Group&gt;">
						<path id="&lt;Path&gt;" class="shp7" d="M2970.93 1325.96C2932 1325.96 2898.57 1386.34 2914.04 1400.82C2937.04 1422.34 2945.98 1399.32 2967.94 1399.32C2989.9 1399.32 3005.66 1420.65 3025.33 1404.81C3045.79 1388.34 3007.86 1325.96 2970.93 1325.96Z" />
					</g>
					<g id="&lt;Group&gt;">
						<path id="&lt;Path&gt;" class="shp7" d="M3067.75 1359.39C3067.75 1366.56 3073.56 1372.37 3080.73 1372.37C3087.9 1372.37 3093.7 1366.56 3093.7 1359.39C3093.7 1352.23 3087.9 1346.42 3080.73 1346.42C3073.56 1346.42 3067.75 1352.23 3067.75 1359.39Z" />
					</g>
					<g id="&lt;Group&gt;">
						<path id="&lt;Path&gt;" class="shp7" d="M2999.68 1279.73C2999.68 1286.9 3005.49 1292.71 3012.66 1292.71C3019.83 1292.71 3025.64 1286.9 3025.64 1279.73C3025.64 1272.56 3019.83 1266.75 3012.66 1266.75C3005.49 1266.75 2999.68 1272.56 2999.68 1279.73Z" />
					</g>
					<g id="&lt;Group&gt;">
						<path id="&lt;Path&gt;" class="shp7" d="M2891.73 1282.17C2891.73 1289.33 2897.54 1295.14 2904.7 1295.14C2911.87 1295.14 2917.68 1289.33 2917.68 1282.17C2917.68 1275 2911.87 1269.19 2904.7 1269.19C2897.54 1269.19 2891.73 1275 2891.73 1282.17Z" />
					</g>
					<g id="&lt;Group&gt;">
						<path id="&lt;Path&gt;" class="shp7" d="M2833.83 1368.31C2833.83 1375.48 2839.64 1381.29 2846.81 1381.29C2853.98 1381.29 2859.79 1375.48 2859.79 1368.31C2859.79 1361.14 2853.98 1355.33 2846.81 1355.33C2839.64 1355.33 2833.83 1361.14 2833.83 1368.31Z" />
					</g>
					<g id="&lt;Group&gt;" style="mix-blend-mode: multiply">
						<path id="&lt;Path&gt;" class="shp9" d="M2973.37 1476.58C2984.99 1476.58 2996.55 1474.87 3006.79 1471.46C3009.14 1470.67 3010.41 1468.13 3009.63 1465.77C3008.85 1463.42 3006.31 1462.14 3003.95 1462.93C2985.49 1469.08 2961.32 1469.08 2942.38 1462.92C2940.01 1462.16 2937.48 1463.45 2936.71 1465.81C2935.95 1468.17 2937.24 1470.7 2939.6 1471.47C2950.08 1474.87 2961.75 1476.58 2973.37 1476.58Z" />
					</g>
				</g>
				<g id="&lt;Group&gt;">
					<g id="&lt;Group&gt;">
						<path id="&lt;Path&gt;" class="shp6" d="M2198.19 780.47C2193.88 784.59 2186.4 810.04 2187.52 819.77C2200.74 814.66 2211.14 806.01 2218.71 793.83C2212.02 786.55 2205.17 782.09 2198.19 780.47Z" />
					</g>
					<g id="&lt;Group&gt;">
						<path id="&lt;Path&gt;" class="shp6" d="M2383.59 791.91C2385.84 797.43 2406.79 813.71 2416.26 816.22C2416.34 802.04 2412.09 789.2 2403.53 777.7C2394.3 781.27 2387.65 786 2383.59 791.91Z" />
					</g>
					<g id="&lt;Group&gt;">
						<path id="&lt;Path&gt;" class="shp6" d="M2471.82 667.81C2476.85 670.99 2503.36 672.09 2512.53 668.64C2504.37 657.05 2493.46 649.05 2479.8 644.66C2474.36 652.92 2471.7 660.64 2471.82 667.81Z" />
					</g>
					<g id="&lt;Group&gt;">
						<path id="&lt;Path&gt;" class="shp6" d="M2126.73 649.76C2119.02 654.94 2110.27 665.47 2100.47 681.36C2116.84 680.39 2130.77 676.22 2142.25 668.86C2136.19 654.95 2131.01 648.58 2126.73 649.76Z" />
					</g>
					<g id="&lt;Group&gt;">
						<path id="&lt;Path&gt;" class="shp10" d="M2442.84 577.53C2466.72 587.68 2483.47 611.35 2483.47 638.94C2483.47 674.33 2455.9 703.27 2421.07 705.48C2424.48 713.54 2426.37 722.41 2426.37 731.71C2426.37 768.88 2396.24 799.01 2359.07 799.01C2335.83 799.01 2315.34 787.23 2303.25 769.32C2290.25 788.11 2268.57 800.42 2244 800.42C2204.23 800.42 2171.99 768.18 2171.99 728.41C2171.99 717.41 2174.46 706.99 2178.87 697.67C2144.61 694.38 2122.39 671.17 2122.58 635.13C2122.71 608.57 2142.25 583.96 2162.99 576.39C2197.76 560 2203.93 565.49 2193.95 491.13C2179.98 387.08 2147.24 146.02 2142.25 0C2285.98 0 2386.56 0 2443.98 0C2432.75 285.21 2392.91 539.28 2395.32 558.01C2397.16 571.94 2416.5 564.37 2442.84 577.53Z" />
					</g>
					<path id="&lt;Path&gt;" class="shp11" d="M2193.95 491.13C2194.13 492.51 2194.31 493.85 2194.48 495.17C2194.52 495.5 2194.57 495.82 2194.61 496.15C2194.74 497.18 2194.87 498.19 2195 499.19C2195.04 499.49 2195.08 499.8 2195.12 500.1C2195.45 502.7 2195.75 505.2 2196.03 507.59C2196.03 507.59 2196.03 507.59 2196.03 507.59C2202.96 443.7 2215.26 411.97 2204.62 369C2196.48 336.08 2199.62 317.6 2203.06 299.6C2203.06 299.6 2203.06 299.6 2203.06 299.6C2235.91 198.68 2253.62 264.68 2263.51 182.18C2273.41 99.69 2302 65.19 2325.21 110.19C2348.4 155.18 2320.59 173.18 2353.99 194.18C2385.28 213.84 2392.41 248.71 2387.7 289.67C2383.39 303.18 2380.54 315.45 2384.4 329.17C2400.96 388 2368.02 424.48 2382.9 453.67C2398.06 483.4 2396.06 506.62 2398.04 523.25C2398.04 523.25 2398.04 523.25 2398.04 523.24C2407.02 441.61 2434.89 231.03 2443.98 0C2442.69 0 2440.7 0 2438.03 0C2415.27 0 2325.56 0 2142.25 0C2147.24 146.02 2179.98 387.08 2193.95 491.13Z" />
					<g id="&lt;Group&gt;">
						<path id="&lt;Path&gt;" class="shp4" d="M2290.77 674.04C2329.7 674.04 2363.13 613.66 2347.66 599.18C2324.65 577.66 2315.72 600.68 2293.76 600.68C2271.8 600.68 2256.04 579.35 2236.37 595.19C2215.9 611.66 2253.83 674.04 2290.77 674.04Z" />
					</g>
					<g id="&lt;Group&gt;">
						<path id="&lt;Path&gt;" class="shp4" d="M2193.95 640.61C2193.95 633.44 2188.14 627.63 2180.97 627.63C2173.8 627.63 2167.99 633.44 2167.99 640.61C2167.99 647.77 2173.8 653.58 2180.97 653.58C2188.14 653.58 2193.95 647.77 2193.95 640.61Z" />
					</g>
					<g id="&lt;Group&gt;">
						<path id="&lt;Path&gt;" class="shp4" d="M2262.01 720.27C2262.01 713.1 2256.21 707.29 2249.04 707.29C2241.87 707.29 2236.06 713.1 2236.06 720.27C2236.06 727.44 2241.87 733.25 2249.04 733.25C2256.21 733.25 2262.01 727.44 2262.01 720.27Z" />
					</g>
					<g id="&lt;Group&gt;">
						<path id="&lt;Path&gt;" class="shp4" d="M2369.97 717.83C2369.97 710.67 2364.16 704.86 2356.99 704.86C2349.83 704.86 2344.02 710.67 2344.02 717.83C2344.02 725 2349.83 730.81 2356.99 730.81C2364.16 730.81 2369.97 725 2369.97 717.83Z" />
					</g>
					<g id="&lt;Group&gt;">
						<path id="&lt;Path&gt;" class="shp4" d="M2427.86 631.69C2427.86 624.52 2422.05 618.71 2414.89 618.71C2407.72 618.71 2401.91 624.52 2401.91 631.69C2401.91 638.86 2407.72 644.67 2414.89 644.67C2422.05 644.67 2427.86 638.86 2427.86 631.69Z" />
					</g>
					<g id="&lt;Group&gt;" style="mix-blend-mode: multiply">
						<path id="&lt;Path&gt;" class="shp9" d="M2288.33 523.42C2276.71 523.42 2265.15 525.13 2254.91 528.54C2252.56 529.33 2251.28 531.87 2252.07 534.23C2252.85 536.58 2255.39 537.86 2257.75 537.07C2276.2 530.92 2300.37 530.92 2319.32 537.08C2321.69 537.84 2324.22 536.55 2324.98 534.19C2325.75 531.83 2324.46 529.3 2322.1 528.53C2311.62 525.13 2299.94 523.42 2288.33 523.42Z" />
					</g>
				</g>
				<g id="&lt;Group&gt;">
					<g id="&lt;Group&gt;">
						<path id="&lt;Path&gt;" class="shp12" d="M1487.55 1285.21C1479.13 1279.9 1472.41 1265.82 1467.03 1252.79C1480.08 1257.77 1494.55 1263.11 1500.42 1272.49C1499.39 1274.89 1495.1 1279.13 1487.55 1285.21Z" />
					</g>
					<g id="&lt;Group&gt;">
						<path id="&lt;Path&gt;" class="shp12" d="M1586.97 1209.43C1581.72 1200.98 1581.74 1184.8 1582.68 1171.3C1590.82 1178.26 1602.93 1191.5 1604.1 1202.5C1602.13 1204.21 1596.42 1206.52 1586.97 1209.43Z" />
					</g>
					<g id="&lt;Group&gt;">
						<path id="&lt;Path&gt;" class="shp12" d="M1713.14 1205.11C1712.98 1195.16 1721.27 1181.61 1729.04 1170.19C1732.06 1183.63 1735.47 1198.87 1730.83 1208.91C1728.26 1209.37 1722.36 1208.1 1713.14 1205.11Z" />
					</g>
					<g id="&lt;Group&gt;">
						<path id="&lt;Path&gt;" class="shp12" d="M1808.58 1262.62C1812.35 1253.82 1825.43 1246.56 1840.16 1240.83C1835.49 1255.12 1830.95 1268.74 1821.81 1274.98C1819.37 1274.04 1814.96 1269.93 1808.58 1262.62Z" />
					</g>
					<g id="&lt;Group&gt;">
						<path id="&lt;Path&gt;" class="shp6" d="M1505.97 1999.25C1498.23 1987.27 1506.09 1982.78 1500.98 1975.67C1509.34 1966.69 1503.9 1953.96 1502.13 1952.09C1511.32 1947.27 1507.39 1935.62 1506.31 1933C1513.4 1926.52 1511.58 1918.78 1510.46 1914.66C1515.05 1909.91 1516.45 1901.93 1513.45 1897.44C1516.97 1890.38 1514.95 1883.96 1512.71 1879.47C1519.94 1870.99 1520.83 1863.38 1515.36 1856.64C1519.01 1852.37 1520 1846.13 1518.33 1837.92C1521.46 1830.72 1520.71 1824.36 1516.07 1818.83C1522.44 1809.1 1523.09 1802.36 1519.96 1801.62C1526.16 1793.28 1525.25 1787.39 1521.79 1782.15C1527.54 1778.09 1523.93 1763.81 1520.94 1760.82C1527.3 1756.7 1526.55 1745.1 1525.43 1740.98C1530.95 1739.78 1529.56 1726.01 1526.18 1722.64C1528.8 1718.15 1534.36 1709.54 1529.14 1705.79C1536.66 1695.31 1536.66 1685.96 1529.17 1688.2C1536.55 1672.91 1532.54 1667.99 1528.8 1670.61C1538.3 1650.69 1535.54 1644.03 1529.17 1641.41C1545.64 1627.19 1526.55 1618.58 1524.68 1618.58C1541.7 1604.32 1542.47 1590.51 1535.82 1592C1537.03 1581.15 1549.39 1558.69 1533.67 1560.19C1541.53 1552.33 1546.02 1541.1 1532.54 1536.61C1544.96 1519.5 1541.15 1514.9 1536.29 1505.16C1543.4 1493.19 1551.63 1474.84 1538.91 1468.48C1546.86 1455.72 1533.29 1444.9 1531.05 1445.27C1532.17 1427.68 1523.19 1426.56 1517.95 1426.56C1528.8 1416.45 1522.44 1397.36 1512.71 1398.86C1518.44 1389.03 1506.34 1383.51 1498.86 1382.76C1503.35 1375.28 1505.22 1359.93 1489.5 1359.93C1497.56 1349.36 1489.56 1330.74 1476.8 1331.11C1485.69 1321.28 1476.02 1304.91 1469.66 1304.16C1476.4 1294.05 1472.65 1285.07 1469.66 1280.2C1485.75 1276.83 1490.62 1270.85 1493.62 1255.5C1501.48 1261.11 1508.21 1257.37 1509.34 1252.13C1517.2 1259.24 1526.18 1254.38 1528.8 1250.26C1532.17 1261.49 1544.9 1264.11 1548.26 1257.75C1555.75 1265.23 1565.86 1260.74 1555.75 1250.26C1564.76 1240.53 1560.62 1236.04 1555.38 1230.05C1564.36 1229.67 1570.42 1220.66 1566.67 1209.43C1580.01 1212.32 1579.31 1199.97 1579.31 1198.1C1589.04 1202.31 1592.78 1197.04 1594.65 1189.21C1605.51 1199.29 1608.52 1194.49 1614.14 1189.62C1618.25 1202.84 1628.37 1198.6 1631.36 1195.24C1632.48 1206.84 1642.59 1211.33 1647.83 1208.71C1647.46 1217.69 1650.95 1228.55 1656.69 1225.18C1659.06 1235.66 1669.17 1225.93 1665.42 1217.69C1677.77 1219.19 1678.77 1213.2 1678.77 1207.71C1687.92 1210.55 1691 1204.84 1691 1201.16C1701.68 1203.81 1705.97 1198.23 1706.22 1197.48C1711.55 1199.31 1714.94 1198.3 1716.4 1194.45C1721.39 1198.45 1726.31 1199.21 1731.18 1196.73C1735.17 1205.47 1742.16 1204.97 1743.15 1204.22C1744.16 1210.53 1747.24 1213.94 1752.39 1214.45C1752.37 1220.33 1754.62 1224.74 1759.12 1227.68C1757.96 1234.09 1758.96 1237.92 1762.12 1239.15C1758.46 1245.85 1760.12 1253.13 1763.37 1251.88C1758.25 1258.34 1759.37 1266.35 1761.62 1262.61C1762.14 1269.38 1769.11 1262.36 1769.11 1256.87C1777.66 1261.14 1781.08 1253.38 1781.08 1252.38C1785.74 1256.87 1789.98 1255.79 1793.81 1249.14C1801.11 1256.77 1809.03 1247.89 1809.03 1248.89C1812.53 1257.62 1816.39 1258.12 1822.88 1255.87C1820.51 1262.74 1827.12 1265.85 1830.87 1264.86C1829.87 1272.34 1831.37 1274.59 1835.36 1275.09C1832.98 1279.82 1835.48 1284.82 1839.1 1285.94C1833.99 1288.44 1838.23 1297.05 1841.22 1296.92C1839.1 1303.04 1835.98 1307.03 1840.35 1309.9C1834.86 1310.9 1834.7 1318.01 1836.84 1320.38C1831.64 1324.31 1837.85 1324.75 1832.49 1331.36C1827.12 1337.97 1825.25 1338.47 1826.63 1341.34C1823.88 1345.58 1819.64 1348.88 1821.39 1351.78C1817.27 1357.31 1814.9 1360.68 1816.39 1365.3C1812.15 1371.29 1806.41 1369.41 1809.28 1375.65C1804.29 1382.02 1799.67 1380.52 1803.42 1387.01C1796.81 1388.13 1794.44 1392.99 1795.31 1394.74C1788.69 1396.61 1783.7 1400.54 1787.07 1405.6C1779.4 1408.22 1777.53 1413.46 1781.27 1417.95C1771.91 1421.5 1771.73 1425.81 1774.16 1430.11C1763.12 1432.17 1761.81 1438.54 1764.43 1441.72C1758.01 1447.75 1751.89 1447.33 1759.19 1452.57C1758.44 1457.81 1753.01 1458.56 1758.81 1464.55C1753.76 1476.72 1755.82 1483.08 1760.31 1485.33C1755.44 1489.82 1762.13 1488.26 1758.6 1496.15C1755.07 1504.04 1756.94 1510.96 1761.43 1513.02C1757.69 1520.14 1760.31 1526.5 1763.12 1526.87C1754.7 1532.86 1762.18 1540.54 1764.99 1541.1C1758.25 1547.09 1761.62 1561.31 1764.62 1561.87C1756.57 1567.86 1760.66 1574.46 1763.48 1575.75C1756.38 1586.01 1763.49 1596.12 1768.36 1598.37C1762.37 1602.67 1759.37 1605.48 1764.8 1609.6C1763.12 1616.89 1766.3 1625.13 1770.04 1626.25C1762.74 1632.43 1765.55 1638.42 1770.42 1639.17C1764.8 1647.03 1767.8 1651.33 1770.98 1652.45C1765.92 1655.07 1764.56 1663.15 1769.45 1664.26C1766.67 1670.61 1768.92 1677.16 1773.97 1677.53C1768.73 1682.02 1771.91 1691.2 1775.28 1691.38C1771.58 1694.94 1770.42 1706.73 1775.66 1707.85C1771.73 1716.65 1770.6 1728.06 1778.09 1730.12C1774.64 1738.54 1769.48 1746.41 1777.72 1750.71C1775.28 1759.88 1770.98 1767.18 1778.09 1770.55C1775.66 1778.03 1778.09 1792.26 1785.95 1793.76C1776.03 1802.74 1774.72 1818.46 1783.7 1821.27C1776.97 1826.88 1778.46 1838.3 1785.58 1839.61C1776.97 1847.28 1779.77 1868.8 1791.19 1869.74C1781.83 1879.66 1784.45 1893.51 1790.63 1895.01C1788.01 1903.05 1786.51 1911.66 1793.44 1914.47C1782.02 1917.84 1788.01 1936.74 1795.12 1938.24C1788.2 1942.36 1798.3 1947.6 1795.12 1958.64C1791.94 1969.68 1788.95 1974.73 1796.62 1976.42C1790.07 1979.79 1796.43 1997.19 1799.24 2000C1788.38 2000 1690.63 1999.75 1505.97 1999.25Z" />
					</g>
					<g id="&lt;Group&gt;">
						<path id="&lt;Path&gt;" class="shp13" d="M1538.38 1529.46C1538.3 1528.85 1538.2 1528.33 1538.08 1527.86C1536.78 1530.39 1534.98 1533.25 1532.54 1536.61C1546.02 1541.1 1541.53 1552.33 1533.67 1560.19C1549.39 1558.69 1537.03 1581.15 1535.82 1592C1542.47 1590.51 1541.7 1604.32 1524.68 1618.58C1526.55 1618.58 1545.64 1627.19 1529.17 1641.41C1535.54 1644.03 1538.3 1650.69 1528.8 1670.61C1532.54 1667.99 1536.55 1672.91 1529.17 1688.2C1536.66 1685.96 1536.66 1695.31 1529.14 1705.79C1534.36 1709.54 1528.8 1718.15 1526.18 1722.64C1529.56 1726.01 1530.95 1739.78 1525.43 1740.98C1526.55 1745.1 1527.3 1756.7 1520.94 1760.82C1523.93 1763.81 1527.54 1778.09 1521.79 1782.15C1525.25 1787.39 1526.16 1793.28 1519.96 1801.62C1523.1 1802.36 1522.44 1809.1 1516.07 1818.83C1520.71 1824.36 1521.46 1830.72 1518.33 1837.92C1520 1846.13 1519.01 1852.37 1515.36 1856.64C1520.83 1863.38 1519.94 1870.99 1512.71 1879.47C1514.95 1883.96 1516.97 1890.38 1513.45 1897.44C1516.45 1901.93 1515.05 1909.91 1510.46 1914.66C1511.58 1918.77 1513.4 1926.52 1506.31 1933C1507.39 1935.62 1511.31 1947.27 1502.13 1952.09C1503.9 1953.96 1509.34 1966.69 1500.98 1975.67C1506.09 1982.78 1498.23 1987.27 1505.97 1999.25C1690.63 1999.75 1788.38 2000 1799.24 2000C1796.43 1997.19 1790.07 1979.79 1796.62 1976.42C1788.95 1974.73 1791.94 1969.68 1795.12 1958.64C1798.3 1947.6 1788.2 1942.36 1795.12 1938.24C1788.01 1936.74 1782.02 1917.84 1793.44 1914.47C1786.51 1911.66 1788.01 1903.05 1790.63 1895.01C1784.45 1893.51 1781.83 1879.66 1791.19 1869.74C1779.77 1868.8 1776.97 1847.28 1785.58 1839.61C1778.46 1838.3 1776.97 1826.88 1783.7 1821.27C1774.72 1818.46 1776.03 1802.74 1785.95 1793.76C1778.09 1792.26 1775.66 1778.03 1778.09 1770.55C1770.98 1767.18 1775.28 1759.88 1777.72 1750.71C1769.48 1746.41 1774.64 1738.54 1778.09 1730.12C1770.6 1728.06 1771.73 1716.65 1775.66 1707.85C1770.42 1706.73 1771.58 1694.94 1775.28 1691.38C1771.91 1691.2 1768.73 1682.02 1773.97 1677.53C1768.92 1677.16 1766.67 1670.61 1769.45 1664.26C1764.56 1663.15 1765.92 1655.07 1770.98 1652.45C1767.8 1651.33 1764.8 1647.03 1770.42 1639.17C1765.55 1638.42 1762.74 1632.43 1770.04 1626.25C1766.3 1625.13 1763.12 1616.89 1764.8 1609.6C1759.37 1605.48 1762.37 1602.67 1768.36 1598.37C1763.49 1596.12 1756.38 1586.01 1763.48 1575.75C1760.66 1574.46 1756.57 1567.86 1764.62 1561.87C1761.62 1561.31 1758.25 1547.09 1764.99 1541.1C1763.54 1540.81 1760.87 1538.63 1759.75 1535.78C1758.23 1539.81 1753.72 1540.56 1742.72 1533.5C1734.62 1541.85 1729.1 1541.81 1726.16 1533.37C1721 1542.55 1714.01 1544.58 1705.17 1539.46C1695.23 1547.24 1679.76 1530.57 1672.03 1532.78C1667.62 1540.51 1658.78 1532.78 1644.42 1531.6C1638.9 1545.89 1632.27 1540.51 1616.5 1530.84C1612.88 1537.74 1607.97 1542.72 1590.3 1530.84C1578.15 1526.7 1567.1 1540.51 1558.26 1530.84C1549.43 1521.17 1540.59 1546.03 1538.38 1529.46Z" />
					</g>
					<g id="&lt;Group&gt;" style="mix-blend-mode: multiply">
						<path id="&lt;Path&gt;" class="shp14" d="M1650.23 1480.13C1640.67 1480.13 1631.17 1478.73 1622.75 1475.92C1620.4 1475.14 1619.13 1472.6 1619.91 1470.24C1620.7 1467.89 1623.24 1466.61 1625.59 1467.4C1640.46 1472.36 1659.93 1472.35 1675.19 1467.39C1677.55 1466.63 1680.08 1467.91 1680.85 1470.28C1681.62 1472.63 1680.33 1475.17 1677.96 1475.94C1669.36 1478.73 1659.76 1480.13 1650.23 1480.13Z" />
					</g>
					<g id="&lt;Group&gt;">
						<path id="&lt;Path&gt;" class="shp7" d="M1654.55 1347.88C1705.97 1347.88 1719.95 1401.04 1701.23 1415.26C1682.51 1429.48 1676.53 1405.53 1655.56 1405.53C1634.6 1405.53 1627.87 1429.48 1609.15 1413.01C1590.43 1396.54 1607.65 1347.88 1654.55 1347.88Z" />
					</g>
					<g id="&lt;Group&gt;">
						<path id="&lt;Path&gt;" class="shp7" d="M1546.52 1325.27C1531.94 1336.99 1562.99 1359.71 1573.47 1352.22C1583.95 1344.73 1560.49 1314.03 1546.52 1325.27Z" />
					</g>
					<g id="&lt;Group&gt;">
						<path id="&lt;Path&gt;" class="shp7" d="M1612.33 1275.87C1601.01 1279.64 1610.31 1314.89 1622.58 1313.21C1643.78 1310.3 1629.74 1270.06 1612.33 1275.87Z" />
					</g>
					<g id="&lt;Group&gt;">
						<path id="&lt;Path&gt;" class="shp7" d="M1705.97 1276.61C1690.19 1271.49 1678.77 1307.79 1692.75 1312.78C1706.72 1317.77 1724.44 1282.6 1705.97 1276.61Z" />
					</g>
					<g id="&lt;Group&gt;">
						<path id="&lt;Path&gt;" class="shp7" d="M1771.1 1324.04C1759.44 1314.84 1736.17 1343.46 1747.65 1352.45C1759.12 1361.43 1785.08 1335.07 1771.1 1324.04Z" />
					</g>
				</g>
				<g id="&lt;Group&gt;">
					<g id="&lt;Group&gt;">
						<path id="&lt;Path&gt;" class="shp8" d="M972.26 469.42C970.78 561.25 875.96 657.71 914.89 722.81C928.31 744.16 953.88 743.57 970.78 743.42C998.73 743.17 984.01 782.72 1015.7 795.82C1033.11 803.02 1054.13 804.3 1082.58 784.34C1095.43 777.48 1108.16 810.04 1141.47 807.3C1181.07 804.03 1181.27 756.75 1189.38 755.13C1201.76 752.65 1232.15 767.81 1252.64 737.8C1291.19 681.33 1232.03 601.18 1215.37 547.28C1189.7 473.9 1196.01 291.48 1234.3 0L935.6 0C963.05 261.22 975.27 417.7 972.26 469.42Z" />
					</g>
					<g id="&lt;Group&gt;">
						<path id="&lt;Path&gt;" class="shp7" d="M1091.89 648.4C1064.37 648.4 1066.49 630.45 1043.9 614.27C1022.51 598.94 1026.26 579.54 1041.08 571.89C1062.17 561.01 1080.12 578.07 1092.47 578.07C1104.83 578.07 1126.83 556.89 1147.3 574.25C1167.76 591.61 1147.43 609.66 1135.65 618.98C1121.89 629.86 1118.36 648.4 1091.89 648.4Z" />
					</g>
					<g id="&lt;Group&gt;">
						<path id="&lt;Path&gt;" class="shp7" d="M944.6 704.71C926.24 692.28 963.77 646.25 978.71 656.28C993.65 666.31 975.33 725.5 944.6 704.71Z" />
					</g>
					<g id="&lt;Group&gt;">
						<path id="&lt;Path&gt;" class="shp7" d="M1034.51 755.47C1008.12 751.54 1024.88 694.51 1045.34 696.72C1065.8 698.94 1064.34 759.92 1034.51 755.47Z" />
					</g>
					<g id="&lt;Group&gt;">
						<path id="&lt;Path&gt;" class="shp7" d="M1140.63 755.02C1111.16 758.58 1107.78 700.74 1126.8 697.54C1152.63 693.18 1168.42 751.65 1140.63 755.02Z" />
					</g>
					<g id="&lt;Group&gt;">
						<path id="&lt;Path&gt;" class="shp7" d="M1233.38 721.71C1211.58 736.1 1187.01 685.44 1200.26 672.58C1212.11 661.23 1251.69 709.63 1233.38 721.71Z" />
					</g>
					<g id="&lt;Group&gt;" style="mix-blend-mode: multiply">
						<path id="&lt;Path&gt;" class="shp15" d="M1094.14 488.73C1073.86 488.73 1053.03 493.54 1032.62 503.18C1029.17 504.81 1028.14 508.22 1030.33 510.8C1032.51 513.38 1037.08 514.14 1040.53 512.51C1076.57 495.49 1112.37 495.44 1144.07 512.34C1147.39 514.11 1152.02 513.54 1154.39 511.06C1156.77 508.58 1156 505.13 1152.67 503.36C1134.38 493.61 1114.54 488.73 1094.14 488.73Z" />
					</g>
					<g id="&lt;Group&gt;">
						<path id="&lt;Path&gt;" class="shp16" d="M1000.96 341.99C1050.21 353.95 1061.72 367.94 1048 372.93C1019.7 368.18 994.06 379.17 971.21 409.69C970.19 389.2 968.66 365.48 966.79 339.98C976 338.5 987.31 338.67 1000.96 341.99Z" />
					</g>
					<g id="&lt;Group&gt;">
						<path id="&lt;Path&gt;" class="shp16" d="M1029.35 138.03C1058.3 134.04 1081.26 178.96 1055.93 177.96C1030.61 176.96 1037.34 211.9 1006.39 211.9C979.95 211.9 973.18 214.1 958.25 235.11C955.28 201.28 952.16 167.61 949.22 136.76C973.35 126.15 1006.38 141.2 1029.35 138.03Z" />
					</g>
					<g id="&lt;Group&gt;">
						<path id="&lt;Path&gt;" class="shp16" d="M1204.16 331.58C1186.53 319.22 1178.43 303.67 1164.3 294.74C1145.34 282.77 1139.35 286.76 1129.37 294.74C1119.38 302.73 1099.42 289.75 1099.42 281.77C1099.42 273.78 1116.39 245.83 1130.36 243.84C1144.34 241.84 1168.29 237.85 1180.27 233.86C1186.25 231.86 1197.94 234.59 1210.02 237.2C1207.64 268.38 1205.59 300.35 1204.16 331.58Z" />
					</g>
					<g id="&lt;Group&gt;">
						<path id="&lt;Path&gt;" class="shp16" d="M1220.01 125.51C1169.06 88.9 1141.93 83.84 1121.29 90.12C1098.33 97.11 1069.39 82.14 1066.89 68.16C1064.4 54.19 1139.26 23.25 1182.18 31.23C1201.26 34.78 1216.38 41.67 1228.53 47.2C1226.09 68.18 1223.09 95.05 1220.01 125.51Z" />
					</g>
				</g>
				<g id="&lt;Group&gt;">
					<g id="&lt;Group&gt;">
						<path id="&lt;Path&gt;" class="shp2" d="M2771.12 0.75C2763.39 12.73 2771.25 17.22 2766.13 24.33C2774.5 33.31 2769.06 46.04 2767.29 47.91C2776.47 52.73 2772.55 64.38 2771.46 67C2778.56 73.48 2776.74 81.23 2775.62 85.34C2780.21 90.09 2781.61 98.07 2778.61 102.56C2782.13 109.62 2780.11 116.04 2777.86 120.53C2785.1 129.01 2785.98 136.62 2780.51 143.36C2784.17 147.63 2785.16 153.87 2783.49 162.08C2786.62 169.28 2785.87 175.64 2781.23 181.17C2787.6 190.9 2788.25 197.64 2785.12 198.38C2791.32 206.72 2790.41 212.61 2786.94 217.85C2792.7 221.91 2789.09 236.19 2786.1 239.18C2792.46 243.3 2791.71 254.9 2790.59 259.02C2796.1 260.22 2794.72 273.99 2791.34 277.36C2793.96 281.85 2799.51 290.46 2794.3 294.21C2801.82 304.69 2801.82 314.05 2794.33 311.8C2801.71 327.1 2797.7 332.01 2793.96 329.39C2803.45 349.31 2800.7 355.97 2794.33 358.59C2810.8 372.81 2791.71 381.42 2789.84 381.42C2806.86 395.68 2807.63 409.49 2800.98 408C2802.19 418.85 2814.54 441.31 2798.82 439.81C2806.68 447.67 2811.18 458.9 2797.7 463.39C2804.44 478.37 2806.31 485.1 2801.44 494.84C2808.56 506.81 2816.79 525.16 2804.06 531.52C2812.02 544.28 2798.45 555.1 2796.2 554.73C2797.33 572.32 2788.34 573.44 2783.1 573.44C2793.96 583.55 2787.6 602.64 2777.86 601.14C2783.59 610.97 2771.5 616.49 2764.01 617.24C2768.5 624.72 2770.38 640.07 2754.66 640.07C2762.72 650.64 2754.72 669.26 2741.96 668.89C2750.84 678.72 2741.18 695.09 2734.82 695.84C2741.55 705.95 2737.81 714.93 2734.82 719.8C2750.91 723.16 2755.78 729.15 2758.77 744.5C2766.63 738.89 2773.37 742.63 2774.49 747.87C2782.35 740.76 2791.34 745.62 2793.96 749.74C2795.64 744.13 2809.75 745.44 2810.47 753.39C2822.11 751.24 2823.15 766.96 2820.53 769.95C2829.52 770.33 2836.63 782.68 2832.89 793.91C2846.23 791.03 2848.61 799.52 2848.61 801.4C2856.09 798.78 2857.95 806.86 2860.1 812.25C2870.77 806.26 2873.68 805.51 2879.3 810.38C2883.41 797.16 2893.52 801.4 2896.52 804.76C2896.92 800.59 2902.58 792.23 2910.98 794.59C2912.88 788.48 2920.6 785.49 2924.2 791.47C2935.15 782.87 2943.93 789.82 2943.93 792.29C2953.08 789.45 2956.16 795.16 2956.16 798.84C2966.84 796.19 2971.13 801.77 2971.38 802.52C2976.7 800.69 2980.45 801.19 2982.61 804.02C2987.6 800.02 2992.18 799.77 2996.33 803.27C3000.33 794.53 3007.31 795.03 3008.31 795.78C3009.32 789.47 3012.4 786.06 3017.54 785.55C3017.53 779.67 3019.77 775.26 3024.28 772.32C3023.12 765.91 3024.12 762.08 3027.28 760.85C3029.97 744.87 3042.57 749.87 3042.57 750.86C3047.23 746.37 3052.7 746.37 3058.97 750.86C3066.26 743.23 3074.19 752.11 3074.19 751.11C3077.68 742.38 3081.55 741.88 3088.04 744.13C3085.67 737.26 3092.28 734.14 3096.03 735.14C3095.03 727.66 3096.52 725.41 3100.52 724.91C3098.14 720.18 3100.64 715.18 3104.26 714.06C3099.14 711.56 3103.39 702.95 3106.38 703.08C3104.26 696.96 3101.14 692.97 3105.51 690.1C3100.02 689.1 3099.86 681.99 3102 679.62C3096.8 675.69 3103.01 675.25 3097.65 668.64C3092.28 662.03 3090.41 661.53 3091.78 658.66C3089.04 654.42 3084.8 651.12 3086.54 648.22C3082.43 642.69 3080.05 639.32 3081.55 634.7C3077.31 628.71 3071.57 630.59 3074.44 624.35C3069.45 617.98 3064.83 619.48 3068.58 612.99C3061.96 611.87 3059.59 607 3060.47 605.26C3053.85 603.39 3048.86 599.46 3052.23 594.4C3044.56 591.78 3042.69 586.54 3046.43 582.05C3037.07 578.5 3036.88 574.19 3039.32 569.89C3028.28 567.83 3026.97 561.46 3029.59 558.28C3023.16 552.25 3017.05 552.67 3024.35 547.43C3023.6 542.19 3018.17 541.44 3023.97 535.45C3018.92 523.28 3020.98 516.92 3025.47 514.68C3020.6 510.18 3027.29 511.74 3023.76 503.85C3020.23 495.96 3022.1 489.04 3026.59 486.98C3022.85 479.86 3025.47 473.5 3028.28 473.13C3019.85 467.14 3027.34 459.46 3030.15 458.9C3023.41 452.91 3026.78 438.69 3029.77 438.13C3021.72 432.14 3025.81 425.54 3028.64 424.25C3021.54 413.99 3028.65 403.88 3033.52 401.63C3027.53 397.33 3024.53 394.52 3029.96 390.4C3028.28 383.11 3031.46 374.87 3035.2 373.75C3027.9 367.57 3030.71 361.58 3035.57 360.83C3029.96 352.97 3032.95 348.67 3036.14 347.55C3031.08 344.93 3029.71 336.85 3034.61 335.74C3031.83 329.39 3034.08 322.84 3039.13 322.47C3033.89 317.98 3037.07 308.81 3040.44 308.62C3036.74 305.06 3035.57 293.27 3040.82 292.15C3036.88 283.35 3035.76 271.94 3043.25 269.88C3039.8 261.46 3034.64 253.59 3042.87 249.29C3040.44 240.12 3036.14 232.82 3043.25 229.45C3040.82 221.97 3043.25 207.74 3051.11 206.24C3041.19 197.26 3039.88 181.54 3048.86 178.73C3042.12 173.12 3043.62 161.7 3050.73 160.39C3042.12 152.72 3044.93 131.2 3056.35 130.26C3046.99 120.34 3049.61 106.49 3055.79 104.99C3053.17 96.95 3051.67 88.34 3058.59 85.53C3047.18 82.16 3053.17 63.26 3060.28 61.76C3053.35 57.64 3063.46 52.4 3060.28 41.36C3057.1 30.32 3054.1 25.27 3061.78 23.58C3055.23 20.21 3061.59 2.81 3064.4 0C3053.54 0 2955.78 0.25 2771.12 0.75Z" />
					</g>
					<path id="&lt;Path&gt;" class="shp3" d="M3027.96 50.33C3037.93 51.53 3025.96 29.45 3043.96 30.5C3057.55 31.29 3045.03 0.17 3058.85 0.01C3036.95 0.05 2961.57 0.24 2893.45 0.42C2881.67 10.2 2905.39 17.24 2900.96 34C2893.96 56 2914.98 35.78 2911.65 59.67C2909.11 77.88 2934.96 66 2934.96 92C2934.96 118 2952.74 83.34 2964.62 104.33C2978.62 112.67 2978.03 73.28 2988.38 82.28C2998.74 91.28 2992.96 54 3007.29 63C3028.85 76.54 3016.86 49 3027.96 50.33Z" />
					<g id="&lt;Group&gt;">
						<path id="&lt;Path&gt;" class="shp7" d="M2916.76 672.64C2968.18 672.64 2982.16 619.49 2963.44 605.27C2944.72 591.04 2938.74 615 2917.78 615C2896.81 615 2890.08 591.04 2871.36 607.51C2852.64 623.98 2869.86 672.64 2916.76 672.64Z" />
					</g>
					<g id="&lt;Group&gt;">
						<path id="&lt;Path&gt;" class="shp7" d="M2798.14 692.64C2784.17 680.2 2815.62 655.05 2826.1 662.53C2836.58 670.02 2813.36 706.2 2798.14 692.64Z" />
					</g>
					<g id="&lt;Group&gt;">
						<path id="&lt;Path&gt;" class="shp7" d="M2868.84 747.65C2851.8 740.7 2865.28 704.27 2881.44 708.15C2899.86 712.57 2885.71 754.52 2868.84 747.65Z" />
					</g>
					<g id="&lt;Group&gt;">
						<path id="&lt;Path&gt;" class="shp7" d="M2974.76 745.4C2958.77 749.81 2947.49 712.58 2961.67 708.22C2975.85 703.86 2993.47 740.24 2974.76 745.4Z" />
					</g>
					<g id="&lt;Group&gt;">
						<path id="&lt;Path&gt;" class="shp7" d="M3038.64 681.37C3026.98 690.57 3003.71 661.95 3015.19 652.97C3026.67 643.99 3052.62 670.35 3038.64 681.37Z" />
					</g>
					<g id="&lt;Group&gt;">
						<path id="&lt;Path&gt;" class="shp3" d="M2795.26 295.62C2794.95 295.15 2794.64 294.68 2794.3 294.21C2799.51 290.46 2793.96 281.85 2791.34 277.36C2794.72 273.99 2796.1 260.22 2790.59 259.02C2791.71 254.9 2792.46 243.3 2786.1 239.18C2789.09 236.19 2792.7 221.91 2786.94 217.85C2790.41 212.61 2791.32 206.72 2785.12 198.38C2788.25 197.64 2787.6 190.9 2781.23 181.17C2785.87 175.64 2786.62 169.28 2783.49 162.08C2785.16 153.87 2784.17 147.63 2780.51 143.36C2782.13 141.37 2783.09 138.78 2783.4 135.6C2790.51 134.37 2798.24 133.31 2805.69 136.5C2819.66 142.49 2816.67 135.5 2818.66 151.47C2820.66 167.44 2830.64 152.47 2832.64 178.42C2834.63 204.37 2852.6 188.4 2841.62 199.38C2830.64 210.36 2853.6 217.35 2846.61 219.35C2839.62 221.34 2873.56 250.29 2860.58 254.28C2847.61 258.27 2865.58 271.25 2854.6 268.25C2843.62 265.26 2841.62 291.21 2833.63 291.21C2825.65 291.21 2821.66 306.19 2811.68 297.2C2803.42 289.78 2804.71 299.39 2795.26 295.62Z" />
					</g>
					<g id="&lt;Group&gt;">
						<path id="&lt;Path&gt;" class="shp3" d="M3035.2 373.75C3033.95 374.12 3032.77 375.3 3031.8 376.97C3014.79 391.89 2996.96 389.94 3006.32 360.05C3016.3 328.14 2968.39 336.13 2990.35 321.16C3012.3 306.19 2986.35 307.18 2996.33 295.2C3006.32 283.23 2974.7 275.24 2984.52 270.25C2991.07 266.92 2993.67 263.6 2992.34 260.27C2990.35 260.27 2989.68 256.61 2990.35 249.29C2991.34 238.31 2988.35 231.32 2992.34 222.34C2996.33 213.36 3003.32 215.35 3003.32 210.36C3003.32 205.37 3013.3 212.36 3014.3 203.37C3015.3 194.39 3034.14 199.38 3035.2 194.39C3036.26 189.4 3033.14 167.44 3035.2 168.44C3036.84 169.23 3035.29 158.66 3045.66 164.38C3043.54 168.56 3044.33 174.96 3048.86 178.73C3039.88 181.54 3041.19 197.26 3051.11 206.24C3043.25 207.74 3040.82 221.97 3043.25 229.45C3036.14 232.82 3040.44 240.12 3042.87 249.29C3034.64 253.59 3039.8 261.46 3043.25 269.88C3035.76 271.94 3036.88 283.35 3040.82 292.15C3035.57 293.27 3036.74 305.06 3040.44 308.62C3037.07 308.81 3033.89 317.98 3039.13 322.47C3034.08 322.84 3031.83 329.39 3034.61 335.74C3029.71 336.85 3031.08 344.93 3036.14 347.55C3032.95 348.67 3029.96 352.97 3035.57 360.83C3030.71 361.58 3027.9 367.57 3035.2 373.75Z" />
					</g>
					<g id="&lt;Group&gt;">
						<path id="&lt;Path&gt;" class="shp3" d="M2797.81 554.2C2801.95 551.9 2810.86 542.42 2804.06 531.52C2816.79 525.16 2808.56 506.81 2801.44 494.84C2806.31 485.1 2804.44 478.37 2797.7 463.39C2811.18 458.9 2806.68 447.67 2798.82 439.81C2813.39 441.2 2803.86 422.03 2801.42 410.57C2812.52 410.14 2818.09 427.35 2823.65 424.97C2830.64 421.97 2812.67 445.93 2823.65 444.93C2834.63 443.93 2833.63 461.9 2846.61 459.9C2859.59 457.9 2846.59 480.86 2863.57 477.87C2880.55 474.87 2852.6 485.85 2858.59 498.83C2864.58 511.81 2820.66 500.83 2825.65 517.79C2830.64 534.76 2822.66 528.77 2817.66 544.74C2815.29 552.35 2806.8 554.74 2797.81 554.2Z" />
					</g>
				</g>
				<g id="&lt;Group&gt;">
					<g id="&lt;Group&gt;">
						<path id="&lt;Path&gt;" class="shp17" d="M1596.99 557.97C1577.37 631.83 1510.99 666.77 1539.94 713.18C1565.45 754.09 1606.72 724.66 1613.83 727.66C1620.94 730.65 1607.2 779.27 1645.49 792.04C1687.04 805.89 1701.42 765.09 1711.53 763.59C1721.63 762.09 1738.73 809.26 1782.4 794.03C1811.84 783.8 1813.71 754.23 1809.22 729.9C1808.47 722.04 1816.36 735.35 1840.21 741.39C1871.73 749.37 1903.93 718.37 1882.22 670.46C1860.51 622.55 1812.09 568.95 1809.6 547.49C1807.1 526.03 1836.55 133.25 1845.53 0C1732.74 0 1637.04 0 1558.43 0C1591.66 343.68 1604.51 529.67 1596.99 557.97Z" />
					</g>
					<g id="&lt;Group&gt;">
						<path id="&lt;Path&gt;" class="shp3" d="M1708.26 639.32C1759.69 639.32 1773.66 586.17 1754.95 571.94C1736.23 557.72 1730.24 581.68 1709.28 581.68C1688.32 581.68 1681.58 557.72 1662.87 574.19C1644.15 590.66 1661.37 639.32 1708.26 639.32Z" />
					</g>
					<g id="&lt;Group&gt;">
						<path id="&lt;Path&gt;" class="shp3" d="M1578.68 691.72C1563.61 680.64 1591.86 653.79 1605.63 664.77C1615.7 672.8 1594.34 703.24 1578.68 691.72Z" />
					</g>
					<g id="&lt;Group&gt;">
						<path id="&lt;Path&gt;" class="shp3" d="M1668.32 740.61C1655.84 738.68 1660.08 701.34 1679.6 700.75C1699.11 700.16 1691.29 744.16 1668.32 740.61Z" />
					</g>
					<g id="&lt;Group&gt;">
						<path id="&lt;Path&gt;" class="shp3" d="M1767.79 739.99C1752.35 746.07 1740.54 710.11 1754.18 704.26C1767.82 698.42 1785.85 732.88 1767.79 739.99Z" />
					</g>
					<g id="&lt;Group&gt;">
						<path id="&lt;Path&gt;" class="shp3" d="M1844.83 689.73C1833.53 699.38 1809.16 671.69 1820.28 662.26C1831.4 652.84 1858.36 678.17 1844.83 689.73Z" />
					</g>
					<g id="&lt;Group&gt;">
						<path id="&lt;Path&gt;" class="shp3" d="M1845.53 0C1840.18 79.28 1827.6 250.42 1818.8 380.58C1739.18 378.71 1737.23 321.7 1763.99 257.52C1793.95 185.66 1637.49 197.64 1685.03 115.29C1710.26 71.57 1692.61 32.92 1684.93 0C1729.61 0 1784.2 0 1845.53 0Z" />
					</g>
				</g>
				<g id="&lt;Group&gt;">
					<g id="&lt;Group&gt;">
						<path id="&lt;Path&gt;" class="shp3" d="M925.64 1442.03C905.68 1391.62 846.79 1313.27 865.75 1283.32C891.55 1242.59 935.38 1275.34 942.49 1272.34C949.6 1269.35 934.14 1217.36 972.43 1204.59C1013.98 1190.74 1030.08 1234.91 1040.18 1236.41C1050.29 1237.91 1067.38 1190.74 1111.05 1205.97C1140.5 1216.2 1142.37 1245.77 1137.88 1270.1C1137.13 1277.96 1145.02 1264.65 1168.87 1258.61C1200.39 1250.63 1232.58 1281.63 1210.87 1329.54C1189.16 1377.45 1140.75 1431.05 1138.25 1452.51C1135.76 1473.97 1165.2 1866.75 1174.19 2000C1061.39 2000 965.69 2000 887.09 2000C923.58 1655.25 936.43 1469.26 925.64 1442.03Z" />
					</g>
					<g id="&lt;Group&gt;">
						<path id="&lt;Path&gt;" class="shp4" d="M1029.46 1352.39C1080.88 1352.39 1094.86 1405.55 1076.14 1419.77C1057.43 1433.99 1051.44 1410.04 1030.48 1410.04C1009.52 1410.04 1002.78 1433.99 984.06 1417.52C965.35 1401.05 982.57 1352.39 1029.46 1352.39Z" />
					</g>
					<g id="&lt;Group&gt;">
						<path id="&lt;Path&gt;" class="shp4" d="M923.67 1328.94C909.2 1340.79 938.61 1363.73 948.43 1355.39C958.35 1346.96 936.85 1318.14 923.67 1328.94Z" />
					</g>
					<g id="&lt;Group&gt;">
						<path id="&lt;Path&gt;" class="shp4" d="M991.47 1284.45C980.74 1289.05 992.65 1322.13 1004.58 1318.33C1014.87 1315.05 1008.51 1277.15 991.47 1284.45Z" />
					</g>
					<g id="&lt;Group&gt;">
						<path id="&lt;Path&gt;" class="shp4" d="M1079.81 1286.7C1064.03 1281.58 1050.94 1319.44 1064.91 1324.43C1078.89 1329.42 1098.28 1292.69 1079.81 1286.7Z" />
					</g>
					<g id="&lt;Group&gt;">
						<path id="&lt;Path&gt;" class="shp4" d="M1143.64 1328.61C1131.98 1319.41 1108.71 1348.03 1120.19 1357.01C1131.67 1365.99 1157.62 1339.63 1143.64 1328.61Z" />
					</g>
					<g id="&lt;Group&gt;">
						<path id="&lt;Path&gt;" class="shp7" d="M1156.52 1750.05C1133.09 1854.92 1093.98 1821.98 1092.57 1868.4C1091.17 1914.81 1031.44 1893.85 1026.12 1931.28C1023.22 1951.65 1004.85 1976 1008.16 2000C1053.81 2000 1110.35 2000 1174.19 2000C1170.52 1945.62 1163.44 1848 1156.52 1750.05Z" />
					</g>
					<g id="&lt;Group&gt;">
						<g id="&lt;Group&gt;">
							<g id="&lt;Group&gt;">
								<path id="&lt;Path&gt;" class="shp7" d="M1000.96 1761.27C992.35 1720.85 1026.04 1701.39 1047 1657.03C1067.96 1612.68 987.11 1616.04 974.36 1583.1C964.17 1556.75 949.68 1573.5 925.88 1556.72C922.12 1623.47 915.01 1709.13 907.9 1787.33C946.24 1807.14 1008.24 1795.45 1000.96 1761.27Z" />
							</g>
							<g id="&lt;Group&gt;">
								<path id="&lt;Path&gt;" class="shp7" d="M897.49 1897.29C896.62 1906.13 895.79 1914.58 894.99 1922.55C892.15 1952.06 889.52 1978.55 887.36 2000C910.75 1967.72 916.78 1930.39 897.49 1897.29Z" />
							</g>
						</g>
					</g>
				</g>
				<g id="&lt;Group&gt;">
					<g id="&lt;Group&gt;">
						<path id="&lt;Path&gt;" class="shp10" d="M3665.63 1442.03C3685.59 1391.62 3744.48 1313.27 3725.52 1283.32C3699.72 1242.59 3655.9 1275.34 3648.78 1272.34C3641.67 1269.35 3657.13 1217.36 3618.84 1204.59C3577.29 1190.74 3564.93 1246.29 3551.65 1242.18C3542.17 1239.24 3520.01 1195.01 3485.6 1206.67C3456.75 1214.1 3456.09 1244.19 3457.13 1269.42C3459.74 1281.55 3447.22 1271.3 3422.69 1269.42C3390.13 1266.92 3365.42 1296.08 3383.74 1336.51C3405.44 1384.43 3450.53 1431.05 3453.02 1452.51C3455.52 1473.97 3426.07 1866.75 3417.09 2000C3529.88 2000 3625.58 2000 3704.18 2000C3667.7 1655.25 3654.84 1469.26 3665.63 1442.03Z" />
					</g>
					<path id="&lt;Path&gt;" class="shp7" d="M3676.2 1705.4C3659.18 1700.45 3644.03 1695.93 3640.84 1681.99C3633.65 1650.55 3587.39 1666.27 3576.16 1628.13C3564.94 1589.99 3499.81 1601.15 3467.45 1560.72C3459.56 1550.87 3453.59 1543.71 3449.06 1539.13C3448.06 1555.25 3446.91 1573.04 3445.65 1592.02C3481.39 1664.93 3543.45 1704.41 3553.36 1750.05C3564.25 1800.13 3627.82 1776.31 3640.84 1841.09C3651.67 1894.96 3663.71 1948.94 3702.35 1982.38C3697.83 1938.68 3685.83 1820.43 3676.2 1705.4Z" />
					<g id="&lt;Group&gt;">
						<path id="&lt;Path&gt;" class="shp3" d="M3552.54 1333.02C3501.12 1333.02 3487.14 1386.17 3505.86 1400.4C3524.57 1414.62 3530.56 1390.66 3551.52 1390.66C3572.48 1390.66 3579.22 1414.62 3597.94 1398.15C3616.65 1381.68 3599.44 1333.02 3552.54 1333.02Z" />
					</g>
					<g id="&lt;Group&gt;">
						<path id="&lt;Path&gt;" class="shp3" d="M3670.35 1317.26C3684.27 1329.75 3653.88 1351.7 3643.4 1344.21C3632.92 1336.72 3657.17 1305.44 3670.35 1317.26Z" />
					</g>
					<g id="&lt;Group&gt;">
						<path id="&lt;Path&gt;" class="shp3" d="M3597.37 1273C3612.29 1278.33 3599.66 1317.12 3584.08 1311.48C3570.11 1306.42 3580.28 1266.88 3597.37 1273Z" />
					</g>
					<g id="&lt;Group&gt;">
						<path id="&lt;Path&gt;" class="shp3" d="M3506.15 1269.85C3521.93 1264.73 3532.1 1306.78 3518.13 1311.77C3504.16 1316.76 3487.69 1275.84 3506.15 1269.85Z" />
					</g>
					<g id="&lt;Group&gt;">
						<path id="&lt;Path&gt;" class="shp3" d="M3434.54 1316.68C3447.02 1306.84 3471.93 1337.46 3459.65 1347.08C3447.36 1356.69 3419.59 1328.48 3434.54 1316.68Z" />
					</g>
					<path id="&lt;Path&gt;" class="shp7" d="M3434.75 1750.05C3458.18 1854.92 3497.29 1821.98 3498.7 1868.4C3500.11 1914.81 3559.83 1893.85 3565.15 1931.28C3568.05 1951.65 3586.42 1976 3583.12 2000C3537.46 2000 3480.93 2000 3417.09 2000C3420.75 1945.62 3427.83 1848 3434.75 1750.05Z" />
				</g>
				<g id="&lt;Group&gt;">
					<g id="&lt;Group&gt;">
						<path id="&lt;Path&gt;" class="shp18" d="M318.87 1521.44C314.94 1486.28 249.55 1344.79 277.86 1298.26C295.95 1270.47 322.76 1280.78 335.05 1282.66C343.8 1284 336.72 1251.12 367.82 1238.41C383.57 1231.97 402.39 1233.67 421.57 1252.63C433.89 1262.98 442.53 1223.14 480.84 1224.84C515.11 1226.37 521.08 1270.11 528.08 1271.51C538.76 1273.65 559.04 1257.09 577.02 1265.17C614.85 1282.17 632.05 1335.42 588.97 1427.26C534.7 1542.99 548 1538.72 552.92 1715.42C556.58 1808.02 561 1902.88 566.2 2000L284.95 2000C304.57 1844.14 315.97 1725.34 319.15 1643.62C320.05 1620.54 324.33 1570.31 318.87 1521.44Z" />
					</g>
					<g id="&lt;Group&gt;">
						<path id="&lt;Path&gt;" class="shp3" d="M340.78 1615.51C334.27 1610.7 327.37 1607.12 321.02 1604.6C320.81 1610.25 320.56 1615.57 320.31 1620.52C346.82 1633.28 355.58 1628.04 378.59 1630.32C402.01 1632.63 435.31 1625.8 451.53 1619.83C450.67 1611.29 427.95 1623.24 399.19 1616.41C370.43 1609.58 360.41 1630.02 340.78 1615.51Z" />
					</g>
					<g id="&lt;Group&gt;">
						<path id="&lt;Path&gt;" class="shp6" d="M432.1 1370.26C401.32 1370.26 403.69 1391.04 378.43 1409.77C354.51 1427.51 358.7 1449.96 375.28 1458.82C398.86 1471.42 418.94 1451.66 432.75 1451.66C446.56 1451.66 471.17 1476.19 494.06 1456.09C516.95 1436 494.21 1415.11 481.04 1404.32C465.65 1391.72 461.7 1370.26 432.1 1370.26Z" />
					</g>
					<g id="&lt;Group&gt;">
						<path id="&lt;Path&gt;" class="shp6" d="M316.84 1326.33C300.57 1332.98 317.67 1386.01 339.84 1374.72C358.1 1365.43 338.52 1317.46 316.84 1326.33Z" />
					</g>
					<g id="&lt;Group&gt;">
						<path id="&lt;Path&gt;" class="shp6" d="M387.05 1288.2C360.68 1292.13 378.8 1345.71 399.25 1343.5C419.7 1341.28 416.88 1283.75 387.05 1288.2Z" />
					</g>
					<g id="&lt;Group&gt;">
						<path id="&lt;Path&gt;" class="shp6" d="M477.12 1284.33C451.96 1281.42 446.66 1333.96 468.56 1338.94C490.45 1343.93 503.05 1287.32 477.12 1284.33Z" />
					</g>
					<g id="&lt;Group&gt;">
						<path id="&lt;Path&gt;" class="shp6" d="M553.79 1318.7C528.48 1309.77 513.95 1357.76 529.86 1367.67C556.58 1380.29 570.36 1324.55 553.79 1318.7Z" />
					</g>
					<g id="&lt;Group&gt;">
						<g id="&lt;Group&gt;">
							<path id="&lt;Path&gt;" class="shp3" d="M317.75 1671.82C316.85 1687.13 315.69 1703.52 314.34 1720.51C325.75 1721.16 334.58 1719.54 336.13 1716.51C340.1 1708.75 400.66 1729.44 433.12 1732.02C465.58 1734.61 452.36 1716.51 479.51 1710.05C506.65 1703.58 526.04 1688.07 491.35 1694.54C464.06 1699.62 379.6 1697.5 317.75 1671.82Z" />
						</g>
						<g id="&lt;Group&gt;">
							<path id="&lt;Path&gt;" class="shp3" d="M317.82 1831.55C338.4 1840.59 370.92 1852.23 373.96 1841.01C377.01 1829.8 431.67 1853.52 430.53 1839.3C429.39 1825.08 475.62 1847.06 506.85 1839.3C538.07 1831.55 504.06 1827.67 472.39 1818.62C440.73 1809.57 422.62 1822.5 395.83 1809.57C369.03 1796.65 356.24 1822.31 325.68 1796.65C318.96 1791 313.41 1787.44 308.67 1785.22C307.23 1800.39 305.72 1815.55 304.19 1830.41C307.61 1829.1 311.66 1828.84 317.82 1831.55Z" />
						</g>
						<g id="&lt;Group&gt;">
							<path id="&lt;Path&gt;" class="shp3" d="M319.45 1940.98C341 1955.63 347.03 1937.54 369.43 1946.15C391.84 1954.77 397.87 1951.32 422.86 1950.46C447.85 1949.6 471.11 1947.01 454.74 1940.98C438.37 1934.95 419.41 1941.84 394.42 1928.92C369.43 1915.99 354.78 1925.47 328.93 1911.68C313.91 1903.67 305.85 1904.08 296.49 1902.11C295.21 1913.47 293.99 1924.21 292.84 1934.11C300.96 1934.08 309.02 1933.89 319.45 1940.98Z" />
						</g>
					</g>
					<g id="&lt;Group&gt;">
						<g id="&lt;Group&gt;">
							<path id="&lt;Path&gt;" class="shp3" d="M368.57 1889.71C380.64 1900.05 403.04 1894.88 417.69 1894.88C432.34 1894.88 426.31 1907.81 453.88 1900.05C481.45 1892.3 487.9 1914.49 509.23 1902.53C530.57 1890.57 546.21 1905.12 560.73 1896.6C560.81 1896.56 560.89 1896.52 560.97 1896.47C560.39 1884.51 559.78 1871.84 559.16 1858.64C543.23 1869.38 534.48 1863.97 515.06 1869.1C489.21 1875.92 476.28 1862.28 459.05 1869.1C441.82 1875.92 431.88 1870.26 409.93 1875.06C387.57 1879.96 356.51 1879.37 368.57 1889.71Z" />
						</g>
						<g id="&lt;Group&gt;">
							<path id="&lt;Path&gt;" class="shp3" d="M392.03 1779.84C416.59 1792.77 463.41 1782.43 486.53 1779.84C509.65 1777.26 531.8 1785.01 549.16 1773.38C551.03 1772.13 553.03 1770.46 555.11 1768.5C554.54 1755.37 553.99 1742.13 553.46 1728.9C552.07 1729.49 550.65 1730.09 549.16 1730.73C505.5 1749.51 472.17 1761.75 479.92 1764.33C487.68 1766.92 417.63 1757.87 432.62 1770.8C447.61 1783.72 367.47 1766.92 392.03 1779.84Z" />
						</g>
						<g id="&lt;Group&gt;">
							<path id="&lt;Path&gt;" class="shp3" d="M563 1937.72C555.45 1939.88 556.05 1944.15 554.48 1949.38C551.9 1958 508.81 1956.51 512.26 1962.85C515.71 1969.2 462.01 1964.03 455.69 1971.79C449.36 1979.54 362.76 1980.41 385.38 1987.3C407.99 1994.18 460.03 1986.44 486.15 1987.3C512.26 1988.16 530.35 1974.37 545.87 1980.4C554.08 1983.6 558.19 1980.03 564.97 1976.61C564.45 1966.4 563.77 1953.22 563 1937.72Z" />
						</g>
						<g id="&lt;Group&gt;">
							<path id="&lt;Path&gt;" class="shp3" d="M439.23 1667.39C449.57 1672.56 479.3 1664.16 490.93 1664.81C502.57 1665.45 493.21 1677.24 515.34 1668.44C537.46 1659.64 541.34 1660.93 541.99 1664.16C542.24 1665.4 546.02 1664.23 551.01 1661.47C550.54 1650.18 550.07 1639.84 549.64 1630.32C543.6 1633.5 541.87 1635.67 542.63 1639.29C543.93 1645.42 502.33 1643.48 509.23 1649.94C516.14 1656.41 476.71 1662.22 451.51 1659.64C426.31 1657.05 428.89 1662.22 439.23 1667.39Z" />
						</g>
					</g>
				</g>
				<g id="&lt;Group&gt;">
					<g id="&lt;Group&gt;">
						<path id="&lt;Path&gt;" class="shp19" d="M3436.91 557.97C3417.29 631.83 3350.91 666.77 3379.86 713.18C3405.37 754.09 3446.64 724.66 3453.75 727.66C3460.87 730.65 3447.12 779.27 3485.41 792.04C3526.96 805.89 3541.34 765.09 3551.45 763.59C3561.56 762.09 3578.65 809.26 3622.32 794.03C3651.76 783.8 3653.64 754.23 3649.14 729.9C3648.4 722.04 3656.28 735.35 3680.13 741.39C3711.65 749.37 3743.85 718.37 3722.14 670.46C3700.43 622.55 3652.01 568.95 3649.52 547.49C3647.02 526.03 3676.47 133.25 3685.45 0C3572.66 0 3476.96 0 3398.36 0C3431.58 343.68 3444.43 529.67 3436.91 557.97Z" />
					</g>
					<g id="&lt;Group&gt;">
						<path id="&lt;Path&gt;" class="shp7" d="M3548.19 660.21C3599.61 660.21 3613.59 607.05 3594.87 592.83C3576.15 578.61 3570.16 602.56 3549.2 602.56C3528.24 602.56 3521.51 578.61 3502.79 595.08C3484.07 611.54 3501.29 660.21 3548.19 660.21Z" />
					</g>
					<g id="&lt;Group&gt;">
						<path id="&lt;Path&gt;" class="shp7" d="M3428.58 682.24C3413.51 671.16 3441.76 644.31 3455.53 655.29C3465.61 663.32 3444.24 693.76 3428.58 682.24Z" />
					</g>
					<g id="&lt;Group&gt;">
						<path id="&lt;Path&gt;" class="shp7" d="M3508.24 740.61C3495.77 738.68 3500.01 701.34 3519.52 700.75C3539.03 700.16 3531.21 744.16 3508.24 740.61Z" />
					</g>
					<g id="&lt;Group&gt;">
						<path id="&lt;Path&gt;" class="shp7" d="M3607.71 739.99C3592.28 746.07 3580.46 710.11 3594.1 704.26C3607.74 698.42 3625.77 732.88 3607.71 739.99Z" />
					</g>
					<g id="&lt;Group&gt;">
						<path id="&lt;Path&gt;" class="shp7" d="M3679.76 685.24C3668.46 694.89 3644.09 667.19 3655.21 657.77C3666.34 648.35 3693.29 673.68 3679.76 685.24Z" />
					</g>
					<g id="&lt;Group&gt;">
						<path id="&lt;Path&gt;" class="shp8" d="M3672.96 177.16C3656.25 175.56 3639.33 170.01 3623.88 190.29C3596.93 225.66 3563.24 112.25 3565.49 177.38C3567.73 242.5 3511.59 166.15 3501.18 240.38C3490.77 314.62 3459.94 184.11 3431.22 255.98C3428.02 264 3425.27 270.51 3422.89 275.62C3415.37 183.23 3407.19 91.36 3398.36 0C3476.96 0 3572.66 0 3685.45 0C3682.7 40.78 3678.04 105.86 3672.96 177.16Z" />
					</g>
				</g>
			</g>
		</g>
	</g>
</svg>