<svg id="Layer_1" height="512" viewBox="0 0 512 512" width="512" xmlns="http://www.w3.org/2000/svg" data-name="Layer 1"><path d="m506 256c0 113.357-75.446 209.093-178.863 239.734a248.873 248.873 0 0 1 -45.387 8.956 252.968 252.968 0 0 1 -25.75 1.31c-138.071 0-250-111.929-250-250s111.929-250 250-250 250 111.929 250 250z" fill="#6994fe"/><path d="m36 256c0-133.033 103.915-241.78 235-249.539-4.964-.294-9.962-.461-15-.461-138.071 0-250 111.929-250 250s111.929 250 250 250c5.039 0 10.037-.167 15-.46-131.085-7.76-235-116.506-235-249.54z" fill="#567fd1"/><path d="m93.333 220h163.927v171h-163.927z" fill="#e9fbff"/><path d="m257.26 220h161.927v171h-161.927z" fill="#cae6ee"/><path d="m434.53 389h-357.17c-.88 0-1.36.33-1.36 1.21v28.27a1.344 1.344 0 0 0 1.36 1.52h357.28a1.344 1.344 0 0 0 1.36-1.52v-28.27c0-.88-.59-1.21-1.47-1.21z" fill="#fe8700"/><path d="m257 220v-187h-114.109a250.751 250.751 0 0 0 -49.891 33.168v153.832z" fill="#e9fbff"/><path d="m257 220h162v-153.392a243.413 243.413 0 0 0 -49.891-33.608h-112.109z" fill="#cae6ee"/><path d="m271 230.235-131.034 38.207-6.474 16.274a38.153 38.153 0 0 0 7.644 41.322 8.269 8.269 0 0 0 -2.043 5.292c0 5.707 6.415 10.335 14.331 10.335 4.846 0 9.119-1.738 11.714-4.391.444.032.885-.117 1.33-.1.46.01.909-.17 1.369-.17h11.163l72.825-17.46.1.2c.8-.17 1.646-.36 2.426-.57a45.329 45.329 0 0 0 33.649-43.764v-30.41z" fill="#313960"/><path d="m372.4 285.47-19.86 19.78 28.54 41.33v-57.51a5.09 5.09 0 0 0 -8.68-3.6z" fill="#7f3d32"/><path d="m350.73 237.82c-10.99-.19-19.98 9.03-19.98 20.02v46.55h12.27v-46.94a7.369 7.369 0 0 1 8.08-7.33 7.508 7.508 0 0 1 6.66 7.55v8.12a6.135 6.135 0 0 0 12.27 0v-8.34a19.662 19.662 0 0 0 -19.3-19.63z" fill="#7f3d32"/><path d="m339.29 459.78a19.87 19.87 0 0 1 16.85 15.86l1.72 8.73q-6.36 2.85-12.9 5.33l-5.68-29.8z" fill="#b73e27"/><path d="m335.07 459.9-7.58 34.42a12.85 12.85 0 0 1 -.3 1.26l.04.12-.09.03q-7.245 2.145-14.66 3.86l4.71-23.95a19.818 19.818 0 0 1 17.86-15.96z" fill="#b73e27"/><path d="m344.96 489.71q-8.715 3.315-17.73 5.99l-.04-.12a12.85 12.85 0 0 0 .3-1.26l7.58-34.42-.02-.22c.53-.05 1.07-.07 1.61-.07a20.746 20.746 0 0 1 2.63.17l-.01.12 5.68 29.8z" fill="#2bbcb5"/><path d="m376.36 420.08-5.67-31.39-.7-3.88-.18-.16-66.03-.23-.44.39-.3 1.65-6.89 38.2-14.25 78.97c-.06.36-.11.71-.15 1.06a248.681 248.681 0 0 0 30.73-5.1l4.71-23.95a19.818 19.818 0 0 1 17.86-15.96c.53-.05 1.07-.07 1.61-.07a20.746 20.746 0 0 1 2.63.17 19.87 19.87 0 0 1 16.85 15.86l1.72 8.73a249.25 249.25 0 0 0 27.5-14.4z" fill="#ff7664"/><path d="m301.37 285.47a5.09 5.09 0 0 0 -8.68 3.6v57.51l28.54-41.33z" fill="#7f3d32"/><path d="m138.47 353.7a49.166 49.166 0 0 0 -8.12.41l3.72-17.16a48.571 48.571 0 0 1 4.95-.41c.52-.02 1.05-.03 1.57-.03a48.468 48.468 0 0 1 20.57 4.58 47.076 47.076 0 0 1 5.31 2.88l-3.72 17.17a47.821 47.821 0 0 0 -5.25-2.87h-.01a48.65 48.65 0 0 0 -19.02-4.57z" fill="#fff655"/><path d="m291.43 378.01a36.658 36.658 0 0 0 -15.36-3.35h-22.65a16.8 16.8 0 0 1 -16.8-16.8v-27.39l-.03-1.06h-57.62l-.03 1.06v27.39a16.8 16.8 0 0 1 -16.8 16.8h-2a4.062 4.062 0 0 1 3.16 1.5c7.04 8.68 46.5 51.9 132.85 48.5l6.89-38.2a36.884 36.884 0 0 0 -11.61-8.45z" fill="#fdddd8"/><path d="m163.3 376.16a4.062 4.062 0 0 0 -3.16-1.5h-2.23c.03.55.07 1.11.12 1.66l-51.68 19.4-.07-.02a36.639 36.639 0 0 0 -3.5 15.67v42.18a248.53 248.53 0 0 0 39.06 24.92v.01a248.911 248.911 0 0 0 114.16 27.52 251.953 251.953 0 0 0 25.75-1.31c.04-.35.09-.7.15-1.06l14.25-78.97c-86.35 3.4-125.81-39.82-132.85-48.5z" fill="#e75163"/><path d="m136.87 237.34-6.52 1.43 1.07 8.28 13.01 1.09.05-12.65c-2.52.68-5.05 1.29-7.61 1.85z" fill="#313960"/><path d="m128.64 219.53c.09-30.03 15.38-58.48 41.45-74.31a86.98 86.98 0 0 1 45.38-12.68 72.338 72.338 0 0 1 72.34 72.35v46.37a12.311 12.311 0 0 0 -3.81-4.2 9.659 9.659 0 0 0 -3.17-1.45h-.01a75.7 75.7 0 0 1 -10.19-6.19c-38.25-27.72-26.25-78.2-25.95-79.45a167.527 167.527 0 0 1 -100.2 75.52c-2.52.68-5.05 1.29-7.61 1.85l-6.52 1.43-.98-7.62a87.674 87.674 0 0 1 -.72-10.46c-.01-.39-.01-.77-.01-1.16z" fill="#313960"/><path d="m270.73 248.39a10.565 10.565 0 0 1 10.09-2.78h.01a9.659 9.659 0 0 1 3.17 1.45 12.34 12.34 0 0 1 -13.27 20.79h-1.12v-19.46z" fill="#fdddd8"/><path d="m139.83 269.47a12.345 12.345 0 0 1 -8.41-22.42c4.02-2.79 9.45-2.23 14.01 1.09l-.07 19.9a29.349 29.349 0 0 1 -5.53 1.43z" fill="#fdddd8"/><path d="m144.535 248.14.05-12.65a167.527 167.527 0 0 0 100.2-75.52c-.3 1.25-12.3 51.73 25.95 79.45l-.02.03v35.11a62.868 62.868 0 0 1 -91.64 55.85 64.061 64.061 0 0 1 -15.99-11.67 63.245 63.245 0 0 1 -18.64-44.8l.02-5.9z" fill="#fccac5"/><path d="m138.47 353.7a48.65 48.65 0 0 1 19.02 4.57h.01c-.04 1.41-.06 2.81-.06 4.22q0 6.09.47 12.17c.03.55.07 1.11.12 1.66a27.049 27.049 0 0 0 10.9 15.84l8.19 5.65a39.079 39.079 0 0 1 14.42 45.77l-2.45 6.57-21.22 36.83c3.39-18.17-11.75-30.97-21.82-37.31a67.588 67.588 0 0 0 -8.39-4.56c-29.14-16.02-34.91-33.8-31.31-49.39a42.758 42.758 0 0 1 2.31-7.11c8.14-19.55 28.82-34.21 29.81-34.91z" fill="#313960"/><path d="m311.25 394.42a28.088 28.088 0 0 0 51.28 0l.02.01a25.655 25.655 0 0 1 -51.31 0z" fill="#ffdb00"/><circle cx="336.89" cy="439.58" fill="#ffdb00" r="9.63"/><path d="m368.14 315.33a44.2 44.2 0 0 0 -15.6-10.08 43.026 43.026 0 0 0 -9.58-2.44 44.3 44.3 0 0 0 -21.73 2.44 44.183 44.183 0 0 0 -28.54 41.33v8.58a43.486 43.486 0 0 0 .36 5.62v.01a43.828 43.828 0 0 0 10.73 23.63 44.4 44.4 0 0 0 8.6 7.52 44.205 44.205 0 0 0 47.88.74 44.317 44.317 0 0 0 17.65-21.05 44.054 44.054 0 0 0 3.03-12.95c.09-1.16.14-2.34.14-3.52v-8.58a44.1 44.1 0 0 0 -12.94-31.25z" fill="#ff8e7b"/><path d="m353.3 361.95a11.467 11.467 0 0 0 -7.14-3.24l-18.54.01a11.465 11.465 0 0 0 -10.57 10.92c-.01.16-.01.33-.01.5a11.478 11.478 0 0 0 10.66 11.44c.27.02.54.03.82.03a11.374 11.374 0 0 0 8.37-3.65 11.413 11.413 0 0 0 8.38 3.65c.27 0 .54-.01.8-.03a11.476 11.476 0 0 0 7.23-19.63z" fill="#7f3d32"/><path d="m329.8 355.45a10.019 10.019 0 0 1 14.18 0 10.007 10.007 0 0 1 0 14.17l-7.09 7.1-7.09-7.1a10.02 10.02 0 0 1 0-14.17z" fill="#313960"/><path d="m327.7 381.58c.27.02.54.03.82.03a11.374 11.374 0 0 0 8.37-3.65 11.413 11.413 0 0 0 8.38 3.65c.27 0 .54-.01.8-.03l.02.19a9.205 9.205 0 0 1 -18.41 0z" fill="#c12826"/><path d="m172.925 33h-30.034q-3.225 1.64-6.411 3.372c-.849.463-1.688.943-2.531 1.415-.9.5-1.793 1-2.685 1.51a250.75 250.75 0 0 0 -38.264 27.153v30.65a251.01 251.01 0 0 1 79.925-64.1z" fill="#bacbce"/><g fill="#1e334c"><path d="m349.165 349.21a3 3 0 0 0 3-3 4.364 4.364 0 0 1 8.727 0 3 3 0 0 0 6 0 10.364 10.364 0 0 0 -20.727 0 3 3 0 0 0 3 3z"/><path d="m309.9 349.21a3 3 0 0 0 3-3 4.363 4.363 0 0 1 8.726 0 3 3 0 0 0 6 0 10.363 10.363 0 0 0 -20.726 0 3 3 0 0 0 3 3z"/><path d="m236.682 234.227a13.853 13.853 0 0 0 -13.837 13.838 3 3 0 0 0 6 0 7.838 7.838 0 0 1 15.675 0 3 3 0 0 0 6 0 13.854 13.854 0 0 0 -13.838-13.838z"/><path d="m189.718 251.064a3 3 0 0 0 3-3 13.838 13.838 0 0 0 -27.676 0 3 3 0 0 0 6 0 7.838 7.838 0 0 1 15.676 0 3 3 0 0 0 3 3z"/><path d="m223.728 286.544a22.579 22.579 0 0 1 -31.894 0 3 3 0 0 0 -4.242 4.244 28.586 28.586 0 0 0 40.378 0 3 3 0 1 0 -4.242-4.242z"/><path d="m269.345 448.875a3 3 0 0 0 -1.564 3.944 44.433 44.433 0 0 1 0 35.145 3 3 0 1 0 5.508 2.382 50.468 50.468 0 0 0 0-39.908 3 3 0 0 0 -3.944-1.563z"/><path d="m150.925 422.118c-9.732-4.456-15.74-10.349-17.856-17.516-3.111-10.54 3.213-20.658 3.287-20.775a3 3 0 0 0 -5.048-3.243c-.324.5-7.874 12.447-4.011 25.653 2.613 8.934 9.723 16.113 21.13 21.336a3 3 0 0 0 2.5-5.455z"/><path d="m137.653 118.213a3 3 0 0 0 4.178-.743l36.525-52.316a3 3 0 0 0 -4.921-3.434l-36.524 52.316a3 3 0 0 0 .742 4.177z"/><path d="m166.731 123.874a3 3 0 0 0 4.141-.925l20.152-31.749a3 3 0 1 0 -5.066-3.216l-20.152 31.746a3 3 0 0 0 .925 4.144z"/><path d="m326.267 166.709a3 3 0 0 0 4.177-.742l36.526-52.316a3 3 0 0 0 -4.92-3.435l-36.526 52.316a3 3 0 0 0 .743 4.177z"/><path d="m355.346 172.371a3 3 0 0 0 4.14-.925l20.152-31.746a3 3 0 0 0 -5.067-3.216l-20.151 31.746a3 3 0 0 0 .926 4.141z"/><path d="m256 3a253 253 0 0 0 -178.9 431.9 251.342 251.342 0 0 0 178.9 74.1 256.934 256.934 0 0 0 26.056-1.326 253.01 253.01 0 0 0 -26.056-504.674zm159.307 64.237v149.289h-124.5v-11.639a75.284 75.284 0 0 0 -31.707-61.363l1.13-104.955h113.176a246.513 246.513 0 0 1 41.901 28.668zm-96.22 341.185a31.036 31.036 0 0 0 35.608 0 22.629 22.629 0 0 1 -35.608 0zm24.436 31.157a6.633 6.633 0 1 1 -6.632-6.633 6.64 6.64 0 0 1 6.632 6.633zm-6.632-31.543a25.122 25.122 0 0 1 -20.209-10.236 47.108 47.108 0 0 0 40.42 0 25.119 25.119 0 0 1 -20.211 10.236zm0-11.681a41.224 41.224 0 0 1 -36.5-22.142 18.743 18.743 0 0 1 13.857-1.8 14.49 14.49 0 0 0 10.682 11.731 12.2 12.2 0 0 0 23.931 0 14.484 14.484 0 0 0 10.716-11.928 18.755 18.755 0 0 1 14.491.68 41.24 41.24 0 0 1 -37.181 23.459zm-120.8-237.913a3 3 0 0 0 -4.2.6 164.572 164.572 0 0 1 -80.174 57.532 83.472 83.472 0 0 1 83.754-81.029 69.421 69.421 0 0 1 69.342 69.342v39.147a13.02 13.02 0 0 0 -2.817-1.206c-20.061-10.2-31.966-27-35.375-49.932a93.092 93.092 0 0 1 .981-32.224l-2.91-.722-2.573-1.545a165.16 165.16 0 0 1 -105.889 76.009l-3.316.725-.562-4.373c-.339-2.634-.54-5.262-.636-7.88a170.566 170.566 0 0 0 84.974-60.243 3 3 0 0 0 -.602-4.201zm-8.307 175.94a60.5 60.5 0 0 1 -60.438-60.427l.13-36.191a171.408 171.408 0 0 0 92.414-65.035 99.353 99.353 0 0 0 .762 20.813c2.909 19.929 12.149 36.059 26.957 47.338v33.677a59.893 59.893 0 0 1 -59.828 59.825zm43.375-10.375-.51 47.369a13.824 13.824 0 0 1 -11.022-13.519v-25.715a66.07 66.07 0 0 0 11.529-8.135zm22.45-49.45v-2.389a15.208 15.208 0 0 0 3.36.383 15.536 15.536 0 0 0 5.785-1.125 14.876 14.876 0 0 0 2.06-1.028v5.014a42.512 42.512 0 0 1 -24.023 38.116 65.463 65.463 0 0 0 12.815-38.971zm6.915-8.7a9.363 9.363 0 0 1 -6.915.044v-16.022a7.359 7.359 0 0 1 8.692-.347 9.325 9.325 0 0 1 -1.777 16.324zm-139.054-26.5-.012 3.6a13.4 13.4 0 0 0 -7.574-.285l-.2-1.562 3.829-.838q1.987-.43 3.954-.914zm-8.343 10.155a7.354 7.354 0 0 1 8.307.065l-.06 16.491a9.343 9.343 0 0 1 -8.247-16.556zm8.22 24.079v.352a66.486 66.486 0 0 0 34.6 58.292v2.146h-8.187c-.425 0-.848-.008-1.267-.021a33.668 33.668 0 0 1 -27.553-15.812 35.183 35.183 0 0 1 -2.789-32.649zm4.22 60.176c-.582-.057-1.166-.1-1.75-.139l.409-.8c.439.32.884.638 1.338.94zm17.514 11.674-2.4 11.057q-.95-.494-1.916-.947a51.492 51.492 0 0 0 -21.875-4.879q-1.366 0-2.739.073l2.4-11.056a45.729 45.729 0 0 1 26.527 5.753zm-1.93 18.235a3 3 0 0 0 4.529-1.9l3.721-17.165a3 3 0 0 0 -1.334-3.175c-.593-.373-1.193-.73-1.8-1.077h.018q.731.024 1.468.025h8.187v17.475a13.816 13.816 0 0 1 -13.8 13.8h-1.432q-.24-4.186-.257-8.39c.23.138.47.265.697.408zm20.791-5.82v-22.706a66.089 66.089 0 0 0 51.685-.06v22.767a19.823 19.823 0 0 0 19.8 19.8h22.643a33.674 33.674 0 0 1 11.776 2.137 2.958 2.958 0 0 0 2.82 2.013 3.022 3.022 0 0 0 1.149-.228 33.712 33.712 0 0 1 8 5.858l-6.186 34.3c-76.67 2.26-114.952-32.817-125.814-44.914a19.83 19.83 0 0 0 14.124-18.966zm154.948-52.469a41.238 41.238 0 0 1 41.191 41.192v8.232l-1.6-.533a24.742 24.742 0 0 0 -23.051 3.95 14.324 14.324 0 0 0 -5.3-2.258 12.987 12.987 0 0 0 -22.473.008 14.37 14.37 0 0 0 -6.355 3.057 2.988 2.988 0 0 0 -.59-.534 24.749 24.749 0 0 0 -22.986-2.357c-.008-.327-.025-.652-.025-.981v-8.583a41.239 41.239 0 0 1 41.186-41.192zm-41.19 18.203v-34.516a2.086 2.086 0 0 1 3.557-1.478l16.743 16.682a47.508 47.508 0 0 0 -20.3 19.312zm55.686-76.461a10.377 10.377 0 0 0 -11.36 10.321v42.05c-1.037-.069-2.08-.116-3.134-.116s-2.1.047-3.135.116v-41.659a17.3 17.3 0 0 1 5.164-12.255 16.366 16.366 0 0 1 11.762-4.771 16.713 16.713 0 0 1 16.348 16.635v8.338a3.135 3.135 0 0 1 -6.269 0v-8.122a10.562 10.562 0 0 0 -9.381-10.537zm6.393 57.149 16.742-16.678a2.085 2.085 0 0 1 3.557 1.478v34.512a47.5 47.5 0 0 0 -20.304-19.312zm19.879 56.722a40.889 40.889 0 0 1 -1.406 6.3 24.742 24.742 0 0 0 -17.112-1.246 14.5 14.5 0 0 0 -1.554-3.454 18.766 18.766 0 0 1 17-2.628zm-44.506 16.224a8.355 8.355 0 0 1 -4.637 1.392 8.455 8.455 0 0 1 -4.642-15.533 12.979 12.979 0 0 0 3.808 8.666zm-2.752-17.372a7.025 7.025 0 0 1 12.985 0 7.018 7.018 0 0 1 -1.524 7.65l-4.968 4.969-4.968-4.971a7 7 0 0 1 -1.525-7.648zm6.5 22.081a14.508 14.508 0 0 0 5.631 2.4 6.192 6.192 0 0 1 -11.273 0 14.534 14.534 0 0 0 5.635-2.4zm3.741-4.72 5.468-5.467a12.925 12.925 0 0 0 3.789-8.684 8.455 8.455 0 1 1 -9.257 14.151zm-42.647-8.524a40.847 40.847 0 0 1 -1.635-6.249 18.766 18.766 0 0 1 19.021 1.06c.075.05.157.082.235.124a14.349 14.349 0 0 0 -1.043 2.7 24.745 24.745 0 0 0 -16.585 2.365zm81.126 7.509 1.777 1.315a3 3 0 0 0 3.57-4.822l-2.955-2.188a46.95 46.95 0 0 0 2.573-15.339v-66.09a8.086 8.086 0 0 0 -13.792-5.729l-18.536 18.455a46.846 46.846 0 0 0 -5.736-1.519v-42.831a4.377 4.377 0 0 1 1.432-3.229 4.321 4.321 0 0 1 3.365-1.119 4.518 4.518 0 0 1 3.939 4.564v8.122a9.135 9.135 0 0 0 18.269 0v-8.338a22.74 22.74 0 0 0 -22.247-22.634 22.119 22.119 0 0 0 -16.069 6.491 23.34 23.34 0 0 0 -6.958 16.534v42.442a46.894 46.894 0 0 0 -5.736 1.519l-18.53-18.457a8.086 8.086 0 0 0 -13.791 5.729v66.09c0 1.32.069 2.624.176 3.917l-.626.333a3 3 0 0 0 1.411 5.649c.03 0 .06-.01.09-.011a46.7 46.7 0 0 0 2.16 7.19q-.612.556-1.194 1.157l-1.026 1.064a39.659 39.659 0 0 0 -14.616-2.806h-19.426l.541-50.249a48.53 48.53 0 0 0 33.626-46v-11.6a15.216 15.216 0 0 0 1.373-8.774 15.5 15.5 0 0 0 -1.373-4.507v-28.001h124.5v163.085h-42.125l-.049-.271a47.332 47.332 0 0 0 5.976-9.14zm54.128 15.413v25.472h-54.385l-4.594-25.472zm-177.248-382.611a246.149 246.149 0 0 1 105.6 23.569h-211.2a246.149 246.149 0 0 1 105.6-23.569zm-156.778 56.108a246.4 246.4 0 0 1 39.372-26.539h115.638l-1.09 101.113a74.855 74.855 0 0 0 -37.673-10.137 89.472 89.472 0 0 0 -89.756 86.981h-26.491zm0 157.418h14.229a2.985 2.985 0 0 0 2.616 4.437 3.03 3.03 0 0 0 .644-.07c3.05-.667 6.07-1.426 9.065-2.255q.183 3.438.622 6.893l.63 4.895-15.045 3.289a3 3 0 1 0 1.282 5.861l14.535-3.176.432 3.359a15.243 15.243 0 0 0 -4.981 9.284 15.429 15.429 0 0 0 9.433 16.384 15.709 15.709 0 0 0 2.723.81l-4.788 11.329a41.188 41.188 0 0 0 3.26 38.215 41.637 41.637 0 0 0 5.66 7.031l-2.462 4.833c-1.135.077-2.27.179-3.4.332a3 3 0 0 0 -2.529 2.338l-3.721 17.165a2.96 2.96 0 0 0 2.1 3.5 113.708 113.708 0 0 0 -10.328 10.149 75.6 75.6 0 0 0 -12.453 18.482h-7.524zm.559 224.827q-9.564-7.836-18.436-16.7a247 247 0 0 1 0-349.31q5.779-5.779 11.877-11.114v315.38h-15.861a4.607 4.607 0 0 0 -4.6 4.6v28.271a4.607 4.607 0 0 0 4.6 4.6h22.42zm3.82-52.916-.032-.015a39.36 39.36 0 0 0 -3.788 16.946v5.715h-21.022v-25.472h25.631c-.3.946-.556 1.889-.79 2.826zm34.626 78.792a245.972 245.972 0 0 1 -32.446-21.129v-33c4.895 10.6 15.075 20.2 30.439 28.647.084.046.172.089.26.127a61.119 61.119 0 0 1 5.637 2.949 50.123 50.123 0 0 0 -3.89 22.406zm26.8 12.533q-10.41-4.119-20.422-9.174a44.093 44.093 0 0 1 2.648-22.486c9.024 6.31 20.079 17.198 17.775 31.66zm-8.418-32.013a75.672 75.672 0 0 0 -17.618-11.33c-19.56-10.783-29.842-23.229-30.559-36.993-1.232-23.617 25.79-44.853 30.943-48.679a45.49 45.49 0 0 1 15.094 3.467c-.072 5.453.109 10.945.57 16.364a3.088 3.088 0 0 0 .075.457 30.018 30.018 0 0 0 12.116 17.592l8.184 5.652a36.039 36.039 0 0 1 13.312 42.258l-2.357 6.333-15.608 27.086c-1.584-7.885-6.356-15.416-14.151-22.207zm122.553 48.16c-7.662.712-15.438 1.091-23.162 1.091a247.07 247.07 0 0 1 -85.227-15.047l20.921-36.3a2.907 2.907 0 0 0 .212-.452l2.444-6.567a42.035 42.035 0 0 0 -15.526-49.288l-8.185-5.651a24.024 24.024 0 0 1 -8.292-10c9.693 11.2 47.52 48.157 124.246 48.157 1.951 0 3.94-.033 5.945-.082zm45.478-8.585q-4.132 1.193-8.312 2.244l3.8-19.35a16.886 16.886 0 0 1 11.064-12.677zm6.58-1.99 5.89-26.768 4.422 23.2q-5.115 1.897-10.311 3.568zm16-5.76-4.12-21.663a16.875 16.875 0 0 1 10.1 12.307l1.246 6.343q-3.586 1.568-7.223 3.013zm12.836-5.557-.973-4.955a22.85 22.85 0 0 0 -44.844 0l-4.327 22.032a247.294 247.294 0 0 1 -24.538 4.163l20.026-110.981c1.041.934 2.119 1.826 3.239 2.666a3 3 0 0 0 -.4 1.486 28.7 28.7 0 0 0 25.656 28.5v4.4a12.632 12.632 0 1 0 6 0v-4.4a28.7 28.7 0 0 0 25.655-28.5 2.961 2.961 0 0 0 -.409-1.486c.985-.738 1.931-1.522 2.854-2.333l14.03 77.77a248.093 248.093 0 0 1 -21.966 11.638zm92.9-74.944a249.025 249.025 0 0 1 -65.45 59.944l-7.564-41.934h54.693a4.607 4.607 0 0 0 4.6-4.6v-28.27a4.607 4.607 0 0 0 -4.6-4.6h-13.328v-313.144q4.767 4.305 9.348 8.876a247.03 247.03 0 0 1 22.305 323.728z"/></g></svg>