<svg xmlns="http://www.w3.org/2000/svg" xmlns:xlink="http://www.w3.org/1999/xlink" width="1920" height="1076" viewBox="0 0 1920 1076">
  <defs>
    <clipPath id="clip-path">
      <rect id="Retângulo_588" data-name="Retângulo 588" width="1920" height="1076" transform="translate(-128 -9)" fill="none"/>
    </clipPath>
    <linearGradient id="linear-gradient" x1="0.106" y1="0.858" x2="0.863" y2="-0.105" gradientUnits="objectBoundingBox">
      <stop offset="0" stop-color="#feb53a"/>
      <stop offset="1" stop-color="#d65c15"/>
    </linearGradient>
  </defs>
  <g id="HEADERIMG" transform="translate(128 9)" clip-path="url(#clip-path)">
    <path id="Caminho_261" data-name="Caminho 261" d="M13245.6,884.8s755.2,246.4,1078.4-99.2,273.988-592.461,894.788-531.661S15914.4,56,15914.4,56s-630.4-384-656-384S13325.6-94.4,13325.6-94.4Z" transform="translate(-13596)" fill="#ff6752"/>
    <path id="Caminho_262" data-name="Caminho 262" d="M13406.667,772.121s590.376,336.97,1046.133-356.364C14707.11,28.88,15175.234,136.886,15492.8,252c252.24,91.434,390.4-275.2,390.4-275.2l-166.23-305.285s-2247.274,80-2256.971,80S13406.667,772.121,13406.667,772.121Z" transform="translate(-13596)" opacity="0.15" fill="url(#linear-gradient)" style="mix-blend-mode: multiply;isolation: isolate"/>
    <path id="Caminho_263" data-name="Caminho 263" d="M13406.667,772.121S13654.443,1305.333,14110.2,612s1307.107-6.479,1708.8-241.6-102.03-698.885-102.03-698.885-2247.274,80-2256.971,80S13406.667,772.121,13406.667,772.121Z" transform="translate(-13681 -168)" opacity="0.15" fill="url(#linear-gradient)" style="mix-blend-mode: multiply;isolation: isolate"/>
  </g>
</svg>
